<svg width="60" height="60" viewBox="0 0 60 60" fill="none" xmlns="http://www.w3.org/2000/svg">
<circle cx="13" cy="22" r="3" fill="#E8A200"/>
<circle cx="26" cy="22" r="3" fill="#E8A200"/>
<circle cx="40" cy="22" r="3" fill="#E8A200"/>
<path fill-rule="evenodd" clip-rule="evenodd" d="M9.28316 7.11377C8.2965 7.24073 6.79136 7.7914 5.9906 8.31831C4.43698 9.34074 3.5212 10.3782 2.78218 11.9529C1.97513 13.6723 1.97478 13.677 2.01194 22.0003L2.0451 29.4216L2.40352 30.4219C2.91789 31.8577 3.39395 32.5952 4.56034 33.7628C5.73004 34.934 6.88351 35.6004 8.39037 35.9754L9.24784 36.1889L9.305 40.7515C9.36777 45.7639 9.33884 45.5739 10.0866 45.886C10.3744 46.0062 10.5566 46.016 10.8297 45.9259C11.0731 45.8457 12.7616 44.2383 15.9928 41.0109L20.7941 36.215H32.0663C44.8329 36.215 44.1413 36.2611 46.119 35.2787C46.909 34.8863 47.2948 34.5923 48.1811 33.7072C49.0673 32.8222 49.3617 32.4369 49.7547 31.648C50.7003 29.7493 50.6922 29.8358 50.6922 21.6905C50.6922 13.5748 50.6966 13.6259 49.8338 11.8388C48.5569 9.1938 46.1556 7.46977 43.2399 7.10464C42.0783 6.95918 10.4178 6.96763 9.28316 7.11377ZM44.2281 9.81194C46.1667 10.5422 47.6482 12.2111 48.1155 14.1911C48.3711 15.274 48.3708 28.0425 48.1152 29.1255C47.6466 31.1109 46.1103 32.7844 44.0756 33.5258C43.4462 33.7552 43.1753 33.7615 31.5712 33.8173L19.7101 33.8744L15.7127 37.8652L11.7152 41.8561L11.682 38.1816L11.6488 34.5073L11.3494 34.2085C11.1037 33.9632 10.8909 33.8919 10.1632 33.8103C8.96476 33.6761 8.24288 33.4497 7.37627 32.936C6.01701 32.1303 4.92471 30.6498 4.56491 29.1255C4.31453 28.0647 4.30859 15.2757 4.55794 14.2195C5.08545 11.9856 6.73191 10.2812 8.96201 9.66032C9.36548 9.54797 13.1528 9.52125 26.5115 9.53621L43.5466 9.55527L44.2281 9.81194ZM11.3957 17.012C9.51845 17.6799 8.24448 19.3148 8.08065 21.2661C7.83656 24.1732 10.3875 26.7207 13.2985 26.4769C14.8173 26.3497 16.1737 25.5498 16.9782 24.3067C17.6072 23.3346 17.8024 22.5899 17.7446 21.3816C17.6578 19.5681 16.6912 18.104 15.0447 17.2913C14.2661 16.907 14.0914 16.8662 13.0907 16.8347C12.243 16.808 11.8555 16.8485 11.3957 17.012ZM24.835 17.0179C23.9617 17.3057 23.5153 17.5977 22.8083 18.3442C20.1353 21.1667 21.7122 25.7649 25.58 26.4265C28.7638 26.9712 31.6645 24.1013 31.1507 20.9149C30.8904 19.3008 29.6361 17.6938 28.2056 17.1416C27.2765 16.7831 25.7216 16.726 24.835 17.0179ZM38.286 17.0043C36.9003 17.4983 35.9449 18.351 35.3338 19.6391C34.9956 20.3518 34.9719 20.4843 34.9719 21.6601C34.9719 22.8622 34.9894 22.9541 35.3639 23.7153C36.8817 26.8004 40.9074 27.4431 43.2461 24.9736C45.5461 22.545 44.8521 18.7347 41.8407 17.2571C41.1353 16.9111 40.9305 16.8652 39.9543 16.8345C39.1234 16.8083 38.7208 16.8493 38.286 17.0043ZM13.6934 19.3434C14.6228 19.6208 15.3645 20.6818 15.3645 21.7342C15.3645 22.3145 14.8385 23.2806 14.35 23.5979C13.253 24.3101 12.1353 24.2098 11.2431 23.3188C10.0406 22.1178 10.3301 20.2515 11.835 19.5025C12.4982 19.1724 12.9817 19.1311 13.6934 19.3434ZM27.3129 19.4159C29.1177 20.2348 29.2212 22.8036 27.4878 23.7605C25.9955 24.5843 24.1035 23.5788 23.963 21.8871C23.8075 20.0147 25.6448 18.6592 27.3129 19.4159ZM40.8451 19.5025C41.869 20.012 42.3377 21.0014 42.1041 22.1601C41.9354 22.997 41.1699 23.7871 40.3337 23.9875C39.2175 24.2549 38.1208 23.7402 37.6053 22.7071C37.1162 21.7269 37.2812 20.7175 38.0577 19.9409C38.84 19.1585 39.8382 19.0014 40.8451 19.5025ZM56.3303 21.7678C55.5929 22.0881 55.6086 21.9287 55.6066 29.159C55.6048 36.3811 55.5915 36.542 54.8909 37.8554C54.1607 39.2244 52.7095 40.4354 51.3067 40.8464C50.9845 40.9409 50.3218 41.0628 49.834 41.1175C49.1063 41.199 48.8934 41.2704 48.6477 41.5156L48.3484 41.8144L48.3152 45.4888L48.282 49.1632L44.2845 45.1724L40.2871 41.1815L31.3683 41.1509C21.4392 41.1169 21.9167 41.0812 21.5808 41.8839C21.372 42.383 21.5252 42.9489 21.962 43.2919C22.2498 43.518 22.4062 43.5221 30.729 43.5221H39.2031L44.0044 48.318C47.2355 51.5455 48.9241 53.1528 49.1675 53.2331C49.4406 53.3232 49.6227 53.3134 49.9106 53.1931C50.6583 52.8811 50.6294 53.0711 50.6922 48.0586L50.7493 43.4961L51.6068 43.2826C53.1137 42.9075 54.2671 42.2412 55.4368 41.07C56.6032 39.9023 57.0793 39.1649 57.5937 37.729L57.9521 36.7288L57.9848 29.6077C58.0211 21.6979 58.0577 22.0949 57.2608 21.7623C56.7954 21.5681 56.7898 21.5682 56.3303 21.7678Z" fill="#05141F"/>
</svg>
