<svg width="120" height="120" viewBox="0 0 120 120" fill="none" xmlns="http://www.w3.org/2000/svg">
<g clip-path="url(#clip0_15_1214)">
<path d="M119.056 96.7134C109.398 84.1304 104.081 68.6423 104.081 52.6062V39.1518C104.081 22.9116 91.6005 8.93748 75.3781 8.17357C58.0585 7.35765 43.7597 21.1589 43.7597 38.2998V52.6062C43.7597 68.6423 38.4421 84.1304 28.7841 96.7134C26.5473 99.6269 28.5268 103.829 32.1996 103.829H115.641C119.313 103.829 121.293 99.6269 119.056 96.7134Z" fill="#FCD462"/>
<path d="M71.2744 16.8867C84.5417 16.8867 95.3345 27.6797 95.3345 40.9451V55.2512C95.3345 70.5481 99.6814 85.1755 107.783 97.7278H112.208C102.963 84.6072 97.9797 68.9897 97.9797 52.6062V38.2998C97.9797 25.0342 87.1868 14.2412 73.9192 14.2412C66.6147 14.2412 60.072 17.5249 55.6565 22.6807C59.864 19.0776 65.3137 16.8867 71.2744 16.8867Z" fill="#F6C358"/>
<path d="M57.749 103.829C57.749 112.76 64.989 120 73.9199 120C82.8511 120 90.0908 112.76 90.0908 103.829H57.749Z" fill="#DC8744"/>
<path d="M34.166 0C15.2964 0 0 15.2964 0 34.1658C0 53.0349 15.2961 68.3318 34.1658 68.3318C53.0349 68.3318 68.3318 53.0349 68.3318 34.1658C68.332 15.2964 53.0352 0 34.166 0Z" fill="#64798A"/>
<path d="M34.166 6.02539C18.6243 6.02539 6.02539 18.6245 6.02539 34.166C6.02539 49.7075 18.6245 62.3066 34.166 62.3066C49.7075 62.3066 62.3066 49.7075 62.3066 34.166C62.3066 18.6245 49.7075 6.02539 34.166 6.02539ZM34.166 61.3962C19.1272 61.3962 6.93604 49.2051 6.93604 34.166C6.93604 19.1272 19.1272 6.93603 34.166 6.93603C49.2048 6.93603 61.396 19.1272 61.396 34.166C61.396 49.2051 49.2048 61.3962 34.166 61.3962Z" fill="#3A556A"/>
<path d="M34.1663 61.396C49.205 61.396 61.3962 49.2047 61.3962 34.166C61.3962 19.1273 49.205 6.93604 34.1663 6.93604C19.1276 6.93604 6.93628 19.1273 6.93628 34.166C6.93628 49.2047 19.1276 61.396 34.1663 61.396Z" fill="#EBF0F3"/>
<path d="M58.3999 35.4341C59.1 35.4341 59.6675 34.8666 59.6675 34.1665C59.6675 33.4664 59.1 32.8989 58.3999 32.8989C57.6998 32.8989 57.1323 33.4664 57.1323 34.1665C57.1323 34.8666 57.6998 35.4341 58.3999 35.4341Z" fill="#E56353"/>
<path d="M34.1663 11.2002C34.8663 11.2002 35.4338 10.6327 35.4338 9.93262C35.4338 9.23255 34.8663 8.66504 34.1663 8.66504C33.4662 8.66504 32.8987 9.23255 32.8987 9.93262C32.8987 10.6327 33.4662 11.2002 34.1663 11.2002Z" fill="#E56353"/>
<path d="M34.1663 59.668C34.8663 59.668 35.4338 59.1005 35.4338 58.4004C35.4338 57.7003 34.8663 57.1328 34.1663 57.1328C33.4662 57.1328 32.8987 57.7003 32.8987 58.4004C32.8987 59.1005 33.4662 59.668 34.1663 59.668Z" fill="#E56353"/>
<path d="M9.93237 35.4341C10.6324 35.4341 11.2 34.8666 11.2 34.1665C11.2 33.4664 10.6324 32.8989 9.93237 32.8989C9.23231 32.8989 8.66479 33.4664 8.66479 34.1665C8.66479 34.8666 9.23231 35.4341 9.93237 35.4341Z" fill="#E56353"/>
<path d="M48.7983 34.1658L48.2563 33.5247L37.4478 33.2363C37.5322 33.5342 37.592 33.8416 37.592 34.1658C37.592 34.4902 37.5322 34.7976 37.4478 35.095L48.2563 34.8069L48.7983 34.1658Z" fill="#3A556A"/>
<path d="M37.448 33.2361L35.1497 33.1748V35.156L37.448 35.0947C37.5325 34.7974 37.5923 34.4897 37.5923 34.1655C37.5923 33.8413 37.5325 33.5339 37.448 33.2361Z" fill="#2F4859"/>
<path d="M35.262 32.5088H33.0693L33.5244 15.4326L34.1658 14.8906L34.8069 15.4326L35.262 32.5088Z" fill="#64798A"/>
<path d="M34.1663 36.3506C35.3724 36.3506 36.3501 35.3729 36.3501 34.1667C36.3501 32.9606 35.3724 31.9829 34.1663 31.9829C32.9602 31.9829 31.9824 32.9606 31.9824 34.1667C31.9824 35.3729 32.9602 36.3506 34.1663 36.3506Z" fill="#64798A"/>
<path d="M33.1763 35.6069L51.9084 16.8745L51.4692 16.4355L32.7371 35.1677L32.5173 34.948L27.6899 39.7756L28.5684 40.6541L33.3958 35.8264L33.1763 35.6069Z" fill="#E56353"/>
<path d="M34.1663 35.4341C34.8663 35.4341 35.4338 34.8666 35.4338 34.1665C35.4338 33.4664 34.8663 32.8989 34.1663 32.8989C33.4662 32.8989 32.8987 33.4664 32.8987 34.1665C32.8987 34.8666 33.4662 35.4341 34.1663 35.4341Z" fill="#3A556A"/>
</g>
<defs>
<clipPath id="clip0_15_1214">
<rect width="120" height="120" fill="white"/>
</clipPath>
</defs>
</svg>
