<svg width="137" height="44" viewBox="0 0 137 44" fill="none" xmlns="http://www.w3.org/2000/svg">
<g clip-path="url(#clip0_307_1348)">
<path d="M8.71094 44.0389C8.35894 44.0389 8.01494 44.0339 7.66594 44.0259C6.94229 44.0165 6.22033 43.9537 5.50594 43.8379C4.83984 43.7238 4.19444 43.5111 3.59094 43.2069C2.99364 42.9052 2.44869 42.5095 1.97694 42.0349C1.49831 41.5663 1.0997 41.0224 0.796937 40.4249C0.491453 39.8244 0.279989 39.1806 0.169938 38.5159C0.0512327 37.8018 -0.0129527 37.0798 -0.0220625 36.3559C-0.0290625 36.1119 -0.0390625 35.3029 -0.0390625 35.3029V8.68294C-0.0390625 8.68294 -0.0290625 7.88594 -0.0220625 7.65194C-0.0130625 6.92894 0.0509375 6.20794 0.168938 5.49394C0.27931 4.82729 0.491097 4.18148 0.796937 3.57894C1.41261 2.37892 2.39004 1.40289 3.59094 0.788938C4.19249 0.486447 4.83596 0.275776 5.49994 0.163938C6.21694 0.0469375 6.94194 -0.0160625 7.66794 -0.0260625L8.71094 -0.0390625H127.472L128.527 -0.0250625C129.246 -0.0160625 129.964 0.0459375 130.674 0.162938C131.345 0.276329 131.996 0.488991 132.605 0.793938C133.804 1.40918 134.78 2.38451 135.396 3.58294C135.697 4.18094 135.906 4.82194 136.015 5.48294C136.135 6.20194 136.202 6.92894 136.215 7.65794C136.219 7.98394 136.219 8.33494 136.219 8.68294C136.228 9.11594 136.228 9.52694 136.228 9.94194V34.0589C136.228 34.4789 136.228 34.8869 136.219 35.2989C136.219 35.6729 136.219 36.0169 136.214 36.3689C136.201 37.0859 136.135 37.7989 136.017 38.5059C135.909 39.1755 135.699 39.8245 135.393 40.4299C135.088 41.0206 134.692 41.5596 134.219 42.0269C133.747 42.5038 133.201 42.9016 132.602 43.2049C131.995 43.5117 131.345 43.7254 130.674 43.8389C129.96 43.9549 129.238 44.0189 128.514 44.0269C128.176 44.0349 127.821 44.0389 127.477 44.0389L126.225 44.0419L8.70994 44.0389H8.71094Z" fill="#272A2C"/>
<path d="M27.8381 21.8692C27.8525 20.8683 28.1196 19.8873 28.6148 19.0173C29.1099 18.1474 29.8169 17.4167 30.6701 16.8932C30.1267 16.1191 29.4103 15.4824 28.5778 15.0336C27.7452 14.5849 26.8195 14.3365 25.8741 14.3082C23.8561 14.0972 21.9001 15.5122 20.8711 15.5122C19.8231 15.5122 18.2401 14.3292 16.5351 14.3642C15.4325 14.3995 14.3577 14.7191 13.4151 15.2922C12.4738 15.8646 11.6969 16.6712 11.1601 17.6332C8.83611 21.6452 10.5701 27.5432 12.7961 30.7862C13.9091 32.3742 15.2111 34.1492 16.9151 34.0862C18.5811 34.0162 19.2041 33.0262 21.2161 33.0262C23.2091 33.0262 23.7941 34.0862 25.5311 34.0462C27.3211 34.0162 28.4471 32.4502 29.5211 30.8472C30.3213 29.7159 30.9372 28.4651 31.3461 27.1412C30.3075 26.7033 29.4206 25.9695 28.7961 25.0312C28.1727 24.0944 27.8395 22.9945 27.8381 21.8692ZM24.5561 12.1752C25.5312 11.009 26.0121 9.50792 25.8961 7.99219C24.407 8.1477 23.0308 8.85773 22.0411 9.98119C21.5582 10.5291 21.1882 11.167 20.9522 11.8582C20.7163 12.5494 20.619 13.2803 20.6661 14.0092C21.4109 14.0168 22.1477 13.8557 22.8213 13.5381C23.495 13.2205 24.0881 12.7546 24.5561 12.1752ZM47.8361 30.2242H42.3661L41.0531 34.0922H38.7361L43.9161 19.7822H46.3241L51.5051 34.0922H49.1501L47.8371 30.2242H47.8361ZM42.9331 28.4392H47.2691L45.1311 22.1622H45.0711L42.9331 28.4392ZM62.6951 28.8772C62.6951 32.1182 60.9551 34.2012 58.3291 34.2012C57.6646 34.2356 57.0037 34.0828 56.4218 33.7601C55.8398 33.4375 55.36 32.958 55.0371 32.3762H54.9871V37.5442H52.8391V23.6592H54.9191V25.3942H54.9581C55.2947 24.8143 55.7822 24.3366 56.3688 24.0119C56.9554 23.6872 57.619 23.5276 58.2891 23.5502C60.9441 23.5502 62.6951 25.6432 62.6951 28.8762V28.8772ZM60.4871 28.8772C60.4871 26.7642 59.3931 25.3752 57.7221 25.3752C56.0821 25.3752 54.9781 26.7932 54.9781 28.8762C54.9781 30.9782 56.0821 32.3862 57.7221 32.3862C59.3921 32.3862 60.4871 31.0082 60.4871 28.8762V28.8772ZM74.2101 28.8772C74.2101 32.1182 72.4701 34.2012 69.8441 34.2012C69.1796 34.2356 68.5187 34.0828 67.9368 33.7601C67.3548 33.4375 66.875 32.958 66.5521 32.3762H66.5021V37.5442H64.3551V23.6592H66.4331V25.3942H66.4731C66.8097 24.8143 67.2972 24.3366 67.8838 24.0119C68.4704 23.6872 69.134 23.5276 69.8041 23.5502C72.4601 23.5502 74.2101 25.6432 74.2101 28.8762V28.8772ZM72.0031 28.8772C72.0031 26.7642 70.9081 25.3752 69.2381 25.3752C67.5971 25.3752 66.4931 26.7932 66.4931 28.8762C66.4931 30.9782 67.5971 32.3862 69.2381 32.3862C70.9081 32.3862 72.0031 31.0082 72.0031 28.8762V28.8772ZM81.8201 30.1052C81.9801 31.5252 83.3621 32.4552 85.2511 32.4552C87.0611 32.4552 88.3641 31.5252 88.3641 30.2452C88.3641 29.1342 87.5781 28.4692 85.7191 28.0132L83.8591 27.5662C81.2241 26.9322 80.0001 25.7032 80.0001 23.7082C80.0001 21.2392 82.1581 19.5432 85.2201 19.5432C88.2541 19.5432 90.3331 21.2392 90.4031 23.7082H88.2351C88.1051 22.2802 86.9211 21.4182 85.1911 21.4182C83.4611 21.4182 82.2781 22.2902 82.2781 23.5602C82.2781 24.5722 83.0341 25.1672 84.8831 25.6232L86.4641 26.0102C89.4091 26.7042 90.6311 27.8832 90.6311 29.9772C90.6311 32.6542 88.4931 34.3312 85.0921 34.3312C81.9101 34.3312 79.7611 32.6932 79.6221 30.1052H81.8201ZM95.2681 21.1902V23.6592H97.2581V25.3552H95.2681V31.1072C95.2681 32.0002 95.6661 32.4172 96.5411 32.4172C96.7771 32.4122 97.0131 32.3962 97.2471 32.3672V34.0532C96.8541 34.1264 96.4548 34.1596 96.0551 34.1522C93.9361 34.1522 93.1101 33.3582 93.1101 31.3352V25.3552H91.5901V23.6592H93.1111V21.1892H95.2691L95.2681 21.1902ZM98.4091 28.8772C98.4091 25.5932 100.347 23.5312 103.371 23.5312C106.404 23.5312 108.334 25.5942 108.334 28.8762C108.334 32.1682 106.414 34.2222 103.371 34.2222C100.328 34.2222 98.4091 32.1682 98.4091 28.8762V28.8772ZM106.146 28.8772C106.146 26.6242 105.111 25.2952 103.371 25.2952C101.631 25.2952 100.596 26.6352 100.596 28.8762C100.596 31.1372 101.631 32.4562 103.371 32.4562C105.111 32.4562 106.146 31.1372 106.146 28.8762V28.8772ZM110.105 23.6592H112.153V25.4352H112.202C112.341 24.8796 112.667 24.3889 113.126 24.0456C113.584 23.7022 114.147 23.5273 114.719 23.5502C114.967 23.5492 115.213 23.5762 115.455 23.6302V25.6332C115.143 25.5378 114.817 25.4939 114.49 25.5032C114.178 25.4907 113.867 25.5456 113.579 25.6642C113.29 25.7827 113.03 25.9622 112.817 26.1902C112.605 26.4181 112.444 26.6893 112.347 26.9852C112.249 27.2811 112.217 27.5946 112.252 27.9042V34.0922H110.104L110.105 23.6592ZM125.357 31.0272C125.068 32.9222 123.218 34.2222 120.852 34.2222C117.808 34.2222 115.919 32.1882 115.919 28.9262C115.919 25.6532 117.818 23.5312 120.761 23.5312C123.656 23.5312 125.476 25.5142 125.476 28.6772V29.4112H118.087V29.5412C118.053 29.9257 118.101 30.3131 118.229 30.6774C118.356 31.0418 118.56 31.3748 118.826 31.6543C119.093 31.9338 119.415 32.1534 119.773 32.2984C120.131 32.4434 120.515 32.5105 120.901 32.4952C121.408 32.5434 121.917 32.4267 122.353 32.1624C122.788 31.8981 123.127 31.5003 123.318 31.0282H125.357V31.0272ZM118.097 27.9142H123.328C123.357 27.3933 123.223 26.8764 122.944 26.4355C122.665 25.9945 122.256 25.6515 121.773 25.4542C121.452 25.3226 121.108 25.2586 120.761 25.2662C120.412 25.2643 120.065 25.3313 119.742 25.4635C119.418 25.5956 119.124 25.7902 118.876 26.0362C118.629 26.2823 118.432 26.5749 118.299 26.8973C118.165 27.2196 118.096 27.5652 118.097 27.9142ZM41.4081 11.9172H42.3301C42.4885 11.9368 42.6493 11.9234 42.8023 11.878C42.9554 11.8325 43.0974 11.756 43.2194 11.6531C43.3415 11.5502 43.441 11.4232 43.5116 11.28C43.5823 11.1369 43.6226 10.9807 43.6301 10.8212C43.6301 10.1872 43.1511 9.77819 42.3401 9.77819C42.0954 9.74433 41.8462 9.78477 41.6247 9.89425C41.4033 10.0037 41.2198 10.1772 41.0981 10.3922C41.0181 10.5352 40.9671 10.6922 40.9481 10.8552H39.9361C39.9535 10.5596 40.0317 10.2707 40.1659 10.0067C40.3002 9.74277 40.4875 9.50938 40.7161 9.32119C40.9449 9.13241 41.21 8.99266 41.4951 8.91061C41.7801 8.82856 42.079 8.80595 42.3731 8.84419C43.7301 8.84419 44.6861 9.60219 44.6861 10.6932C44.6893 11.0592 44.5666 11.4152 44.3384 11.7014C44.1103 11.9877 43.7906 12.1867 43.4331 12.2652V12.3462C43.8581 12.3662 44.2571 12.5502 44.5441 12.8622C44.8321 13.1742 44.9841 13.5862 44.9671 14.0092C44.9201 14.468 44.7358 14.9019 44.4385 15.2544C44.1411 15.6069 43.7444 15.8615 43.3001 15.9852C43.0049 16.0679 42.6963 16.091 42.3921 16.0532C41.9333 16.1151 41.4665 16.0371 41.0528 15.8294C40.639 15.6217 40.2976 15.2941 40.0731 14.8892C39.9252 14.6204 39.833 14.3245 39.8021 14.0192H40.8301C40.8921 14.6762 41.4981 15.1012 42.3921 15.1012C43.2851 15.1012 43.8691 14.6242 43.8691 13.9522C43.8691 13.2712 43.3191 12.8522 42.3591 12.8522H41.4081V11.9182V11.9172ZM46.1351 14.4192C46.1351 13.4852 46.8331 12.9472 48.0701 12.8702L49.4801 12.7902V12.3412C49.4801 11.7932 49.1181 11.4842 48.4141 11.4842C47.8411 11.4842 47.4451 11.6942 47.3301 12.0612H46.3361C46.4411 11.1692 47.2831 10.5982 48.4631 10.5982C49.7671 10.5982 50.5031 11.2452 50.5031 12.3412V15.8872H49.5131V15.1572H49.4331C49.2679 15.4193 49.0361 15.6329 48.7613 15.7761C48.4865 15.9193 48.1786 15.987 47.8691 15.9722C47.5404 16.0061 47.2093 15.9358 46.9227 15.7712C46.6362 15.6067 46.4086 15.3562 46.2721 15.0552C46.1821 14.8552 46.1361 14.6382 46.1351 14.4192ZM49.4801 13.9762V13.5422L48.2091 13.6232C47.4921 13.6712 47.1671 13.9142 47.1671 14.3712C47.1671 14.8382 47.5741 15.1112 48.1321 15.1112C48.3785 15.1358 48.6265 15.0855 48.8438 14.9669C49.0612 14.8482 49.2376 14.6667 49.3501 14.4462C49.4246 14.2999 49.4688 14.14 49.4801 13.9762ZM53.2301 11.5602V15.8872H52.2021V10.6972H55.6281V11.5602H53.2301ZM61.8521 13.2902C61.8521 14.9392 61.0161 15.9722 59.7021 15.9722C59.3801 15.994 59.0585 15.9236 58.775 15.7694C58.4915 15.6151 58.2578 15.3834 58.1011 15.1012H58.0201V17.6112H56.9931V10.6982H57.9811V11.5552H58.0581C58.217 11.2626 58.4537 11.0196 58.7421 10.8532C59.0305 10.6868 59.3593 10.6034 59.6921 10.6122C61.0161 10.6122 61.8521 11.6412 61.8521 13.2902ZM60.7961 13.2902C60.7961 12.1942 60.2761 11.5322 59.4061 11.5322C58.5411 11.5322 58.0011 12.2082 58.0011 13.2942C58.0011 14.3762 58.5411 15.0532 59.4011 15.0532C60.2761 15.0532 60.7961 14.3912 60.7961 13.2902ZM63.2201 17.7452V16.8642C63.3311 16.8782 63.4431 16.8842 63.5551 16.8832C63.7735 16.899 63.99 16.834 64.1636 16.7005C64.3371 16.567 64.4554 16.3743 64.4961 16.1592L64.5731 15.9062L62.6901 10.6972H63.8081L65.1121 14.8182H65.1941L66.4941 10.6972H67.5831L65.6431 16.1002C65.1981 17.3632 64.7061 17.7682 63.6451 17.7682C63.5601 17.7682 63.3151 17.7582 63.2201 17.7442V17.7452ZM68.3831 14.4142H69.4051C69.5051 14.8722 69.9351 15.1102 70.5371 15.1102C71.2211 15.1102 71.6411 14.8102 71.6411 14.3432C71.6411 13.8432 71.2641 13.6032 70.5371 13.6032H69.7581V12.8082H70.5241C71.1441 12.8082 71.4601 12.5702 71.4601 12.1372C71.4601 11.7552 71.1551 11.4652 70.5241 11.4652C69.9491 11.4652 69.5291 11.7082 69.4631 12.1172H68.4731C68.5491 11.6465 68.806 11.2242 69.189 10.9402C69.5719 10.6563 70.0507 10.5332 70.5231 10.5972C71.7601 10.5972 72.4681 11.1552 72.4681 12.0322C72.474 12.2767 72.3955 12.5158 72.2458 12.7093C72.0961 12.9027 71.8843 13.0386 71.6461 13.0942V13.1752C71.9294 13.2116 72.1895 13.3506 72.3773 13.5658C72.565 13.781 72.6674 14.0576 72.6651 14.3432C72.6651 15.3292 71.8231 15.9822 70.5371 15.9822C69.4011 15.9822 68.4771 15.4622 68.3831 14.4142ZM74.1441 15.8872V10.6972H75.1611V14.2672H75.2431L77.6411 10.6972H78.6591V15.8872H77.6401V12.2992H77.5631L75.1611 15.8872H74.1431H74.1441ZM84.2661 11.5602H82.6281V15.8872H81.6001V11.5602H79.9601V10.6972H84.2661V11.5592V11.5602ZM89.7991 14.4862C89.6589 14.9612 89.3561 15.3718 88.9436 15.6461C88.5312 15.9203 88.0354 16.0407 87.5431 15.9862C87.0271 15.9996 86.5208 15.844 86.1015 15.5431C85.6821 15.2421 85.3726 14.8123 85.2201 14.3192C85.12 13.9924 85.0923 13.6477 85.1391 13.3092C85.0933 12.9691 85.1214 12.6231 85.2215 12.2949C85.3216 11.9666 85.4913 11.6639 85.7191 11.4072C85.9468 11.1497 86.2271 10.9442 86.5411 10.8044C86.8551 10.6647 87.1954 10.594 87.5391 10.5972C88.9861 10.5972 89.8611 11.5842 89.8611 13.2132V13.5712H86.1861V13.6282C86.1611 13.9156 86.2278 14.2035 86.3765 14.4507C86.5253 14.6979 86.7485 14.8916 87.0141 15.0042C87.1901 15.0792 87.3801 15.1172 87.5721 15.1142C87.8173 15.1434 88.0656 15.0993 88.2857 14.9875C88.5059 14.8758 88.688 14.7013 88.8091 14.4862H89.7991ZM86.1861 12.8132H88.8131C88.8263 12.6387 88.8028 12.4635 88.744 12.2987C88.6852 12.1339 88.5925 11.9833 88.4719 11.8567C88.3512 11.73 88.2053 11.63 88.0436 11.5633C87.8819 11.4965 87.708 11.4645 87.5331 11.4692C87.2659 11.4658 87.0038 11.5429 86.7809 11.6904C86.558 11.8378 86.3845 12.0489 86.2831 12.2962C86.2171 12.4602 86.1831 12.6362 86.1861 12.8132ZM94.1521 10.6972H96.5001C97.5171 10.6972 98.1151 11.2122 98.1151 12.0172C98.1169 12.2732 98.0303 12.522 97.87 12.7217C97.7097 12.9213 97.4855 13.0596 97.2351 13.1132V13.1942C97.5385 13.2136 97.8229 13.3485 98.0299 13.5711C98.2369 13.7937 98.3508 14.0872 98.3481 14.3912C98.3481 15.2962 97.6651 15.8872 96.5231 15.8872H94.1531V10.6972H94.1521ZM95.1701 11.4842V12.8272H96.1881C96.8081 12.8272 97.1061 12.5892 97.1061 12.1502C97.1061 11.7462 96.8471 11.4842 96.3021 11.4842H95.1701ZM95.1701 13.5802V15.1002H96.3881C96.9951 15.1002 97.3201 14.8332 97.3201 14.3432C97.3201 13.8232 96.9521 13.5802 96.2601 13.5802H95.1701Z" fill="white"/>
</g>
<defs>
<clipPath id="clip0_307_1348">
<rect width="137" height="44" fill="white"/>
</clipPath>
</defs>
</svg>
