<svg width="24" height="24" viewBox="0 0 24 24" fill="none" xmlns="http://www.w3.org/2000/svg">
<path d="M12.5452 12.2729H3.81789L1.63608 13.9093L0.545166 17.182L2.18153 19.9093L4.9088 21.0002H11.9997L11.4543 19.9093L9.81789 17.182L10.3633 15.0002L12.5452 12.2729Z" fill="#E8A200"/>
<path fill-rule="evenodd" clip-rule="evenodd" d="M3.14206 3.03652C2.78926 3.06268 2.65279 3.09673 2.39762 3.22236C1.59299 3.61858 1.11595 4.49864 1.24936 5.34074C1.30081 5.66523 1.46113 6.06479 1.62191 6.26925L1.71841 6.39196L1.34963 6.77242C0.783422 7.35664 0.495147 7.83935 0.321946 8.49336C0.21101 8.91221 0.212421 9.81795 0.324674 10.2309C0.55567 11.0812 1.11614 11.8837 1.79591 12.3378L2.03993 12.5008L1.53186 13.0017C0.965886 13.5596 0.719794 13.8983 0.42028 14.5315C0.0568556 15.2998 0 15.5806 0 16.6068C0 17.4063 0.0116157 17.5401 0.110372 17.8767C0.654427 19.7311 2.09138 21.0597 4.0208 21.4923C4.46718 21.5924 4.47424 21.5925 12.5797 21.5925H20.6918L21.1523 21.433C22.4428 20.9861 23.3177 20.0553 23.638 18.7884C23.7217 18.4576 23.733 18.3071 23.7122 17.8079C23.6844 17.1451 23.6219 16.8973 23.3329 16.3029C23.1795 15.9874 23.0481 15.8099 22.6991 15.446L22.2586 14.9872L22.3585 14.8469C22.7752 14.2616 22.8461 13.4938 22.5479 12.7944C22.5031 12.6895 22.3571 12.4721 22.2233 12.3114L21.9801 12.0191L22.1352 11.8907C22.7407 11.3894 23.1637 10.8524 23.496 10.1631C23.8227 9.48546 23.9598 8.96583 23.9927 8.28171C24.0632 6.81433 23.6236 5.64171 22.6056 4.58146C21.9637 3.91296 21.2129 3.46007 20.3156 3.20016C19.9951 3.10736 19.7154 3.06743 19.1635 3.03572C18.3246 2.98761 3.79282 2.98831 3.14206 3.03652ZM10.6516 4.5166C11.6198 4.75559 12.5585 5.4921 13.0226 6.37682C13.3371 6.97646 13.3956 7.22226 13.3975 7.95247C13.399 8.51001 13.3826 8.66504 13.2908 8.96371C13.0594 9.71617 12.5654 10.4302 11.9779 10.8616C11.6507 11.1018 11.1232 11.3532 10.7103 11.4655C10.3632 11.56 10.2133 11.5657 7.54782 11.5847C6.00887 11.5958 4.41635 11.5852 4.00886 11.5612C3.28742 11.5188 3.25864 11.5131 2.91242 11.3419C2.03556 10.9085 1.52748 9.96771 1.66805 9.03779C1.81515 8.06483 2.61441 7.28674 3.58726 7.16944C3.78745 7.14531 5.28258 7.13181 6.92133 7.13929C9.84626 7.1527 9.89442 7.15439 10.0251 7.25076C10.3822 7.51416 10.4063 7.9131 10.0834 8.22024L9.89992 8.39483L6.87806 8.4088C3.58472 8.42408 3.71075 8.41327 3.49669 8.69858C3.34672 8.89838 3.34032 9.31849 3.48422 9.51293C3.68574 9.78516 3.60687 9.7782 6.74836 9.80097C8.78275 9.81574 9.74257 9.806 9.98462 9.76819C11.4308 9.54223 12.1844 7.95755 11.4373 6.71358C11.188 6.29846 10.6988 5.91155 10.2858 5.80285C10.1855 5.77647 8.59996 5.74129 6.57013 5.72045L3.02943 5.68414L2.90932 5.57187C2.57035 5.25523 2.57101 4.71476 2.91059 4.53245C3.11464 4.42291 3.65808 4.40842 6.95999 4.42456C9.87053 4.43881 10.3889 4.45174 10.6516 4.5166ZM19.9764 4.55592C21.1462 4.96432 21.9288 5.67501 22.3458 6.7077C22.719 7.63198 22.6764 8.61405 22.2224 9.55164C21.772 10.4817 20.9132 11.1828 19.8756 11.4675C19.5316 11.5619 19.384 11.567 16.4477 11.5862C14.76 11.5972 13.3792 11.5918 13.3792 11.5742C13.3792 11.5565 13.4711 11.4329 13.5835 11.2994C14.0771 10.7133 14.4461 10.0285 14.6775 9.2692C14.7976 8.87505 14.8065 8.78822 14.8065 7.9995C14.8065 7.21455 14.7972 7.12208 14.679 6.72957C14.4469 5.95811 14.0417 5.21046 13.6062 4.74994C13.4747 4.61091 13.3847 4.47742 13.4028 4.44826C13.4262 4.41035 14.2896 4.40033 16.5227 4.41195L19.6102 4.42804L19.9764 4.55592ZM10.5528 13.091C10.518 13.1363 10.4131 13.2685 10.3197 13.3849C9.84401 13.9777 9.47381 14.6681 9.2857 15.3134C9.14537 15.7948 9.10408 16.954 9.20773 17.5033C9.35794 18.2992 9.77704 19.168 10.329 19.8279L10.5944 20.145L10.2396 20.1749C9.78038 20.2138 7.43938 20.2067 5.64323 20.161C4.24282 20.1254 4.22965 20.1241 3.85621 19.9876C3.23376 19.7602 2.86018 19.5243 2.42062 19.0809C2.00429 18.6608 1.73219 18.2219 1.52057 17.629C1.38043 17.2363 1.34699 16.2988 1.45567 15.8102C1.77691 14.3659 3.14714 13.1689 4.60864 13.0557C4.84142 13.0376 6.28835 13.0197 7.82396 13.0158C10.4765 13.009 10.6129 13.0128 10.5528 13.091ZM21.0137 13.117C21.4033 13.3725 21.4267 13.9163 21.0587 14.1658C20.9332 14.2508 20.7622 14.2564 17.447 14.2826C13.7226 14.3122 13.8381 14.3043 13.3321 14.5623C13.0765 14.6926 12.674 15.0698 12.5133 15.3298C12.2387 15.7736 12.171 16.4706 12.3507 17.0029C12.543 17.5722 13.0089 18.0483 13.6031 18.2825C13.8683 18.387 13.9132 18.3891 16.2243 18.4058C17.5175 18.4151 18.9506 18.405 19.409 18.3833L20.2423 18.3439L20.3858 18.2064C20.7038 17.9016 20.6806 17.4744 20.3296 17.174L20.1341 17.0066L17.3797 17.0042C15.8649 17.0028 14.4796 16.9856 14.3015 16.9658C14.0093 16.9334 13.9621 16.9129 13.8195 16.7573C13.6851 16.6107 13.6613 16.5501 13.6613 16.3552C13.6613 16.0944 13.7539 15.9445 14.0143 15.7835L14.1776 15.6826L17.2937 15.7003C20.3376 15.7176 20.4167 15.7204 20.7154 15.8197C21.6907 16.1442 22.3125 16.9546 22.3121 17.9003C22.3121 18.0943 22.2906 18.3459 22.2644 18.4594C22.1003 19.1715 21.5277 19.7912 20.7859 20.0596C20.5044 20.1614 20.496 20.1616 16.9532 20.1474L13.4027 20.1331L13.0726 20.0109C12.2557 19.7084 11.6075 19.2338 11.1821 18.6266C10.7792 18.0516 10.5572 17.3259 10.5583 16.5875C10.5591 15.9659 10.6438 15.5966 10.9097 15.0547C11.4642 13.9246 12.5917 13.1449 13.8024 13.0545C14.0481 13.0361 15.742 13.0236 17.5667 13.0266C20.6797 13.0319 20.8922 13.0374 21.0137 13.117Z" fill="#05141F"/>
</svg>
