<svg width="180" height="140" viewBox="0 0 180 140" fill="none" xmlns="http://www.w3.org/2000/svg">
<path fill-rule="evenodd" clip-rule="evenodd" d="M23.5654 0.773933C20.9195 0.970067 19.8959 1.22546 17.9822 2.16768C11.9474 5.13932 8.36962 11.7398 9.37023 18.0556C9.75609 20.4892 10.9584 23.4859 12.1643 25.0194L12.8881 25.9397L10.1222 28.7932C5.87566 33.1748 3.7136 36.7951 2.4146 41.7002C1.58257 44.8415 1.59315 51.6346 2.43505 54.7318C4.16753 61.1086 8.37103 67.1277 13.4693 70.5333L15.2995 71.7559L11.4889 75.5125C7.24415 79.6969 5.39846 82.2371 3.1521 86.9863C0.426417 92.7486 0 94.8542 0 102.551C0 108.547 0.0871174 109.551 0.827791 112.075C4.9082 125.983 15.6854 135.948 30.156 139.192C33.5039 139.943 33.5568 139.943 94.3478 139.943H155.189L158.642 138.748C168.321 135.396 174.883 128.415 177.285 118.913C177.913 116.432 177.998 115.303 177.841 111.559C177.633 106.588 177.164 104.73 174.997 100.272C173.846 97.9056 172.861 96.5739 170.243 93.8453L166.94 90.4038L167.689 89.3519C170.814 84.9621 171.345 79.2034 169.109 73.9582C168.774 73.1716 167.678 71.5411 166.675 70.3354L164.851 68.143L166.014 67.18C170.555 63.4206 173.728 59.3928 176.22 54.2231C178.67 49.141 179.699 45.2437 179.945 40.1128C180.474 29.1075 177.177 20.3129 169.542 12.361C164.728 7.34723 159.096 3.95052 152.367 2.00118C149.964 1.30519 147.866 1.0057 143.726 0.767936C137.435 0.407065 28.4461 0.412356 23.5654 0.773933ZM79.887 11.8745C87.1484 13.6669 94.1887 19.1907 97.6692 25.8261C100.028 30.3234 100.467 32.1669 100.481 37.6435C100.492 41.8251 100.369 42.9878 99.6806 45.2278C97.9457 50.8712 94.2406 56.2268 89.8339 59.4623C87.3801 61.2639 83.4242 63.1486 80.3275 63.9914C77.7239 64.7001 76.5995 64.7427 56.6087 64.8856C45.0665 64.9682 33.1226 64.8888 30.0664 64.7092C24.6556 64.391 24.4398 64.348 21.8432 63.0643C15.2667 59.8137 11.4561 52.7578 12.5103 45.7834C13.6136 38.4863 19.6081 32.6506 26.9045 31.7708C28.4059 31.5898 39.6194 31.4886 51.91 31.5447C73.847 31.6452 74.2081 31.6579 75.1883 32.3807C77.8667 34.3562 78.0469 37.3483 75.6256 39.6518L74.2494 40.9612L51.5855 41.066C26.8854 41.1806 27.8307 41.0995 26.2252 43.2393C25.1004 44.7378 25.0524 47.8887 26.1317 49.347C27.643 51.3887 27.0515 51.3365 50.6127 51.5073C65.8706 51.618 73.0693 51.545 74.8846 51.2614C85.7309 49.5667 91.383 37.6816 85.7799 28.3519C83.9099 25.2384 80.2411 22.3366 77.1433 21.5214C76.391 21.3235 64.4997 21.0596 49.276 20.9034L22.7207 20.631L21.8199 19.789C19.2776 17.4142 19.2826 13.3607 21.8294 11.9934C23.3598 11.1718 27.4356 11.0632 52.1999 11.1842C74.029 11.2911 77.9164 11.3881 79.887 11.8745ZM149.823 12.1694C158.597 15.2324 164.466 20.5626 167.593 28.3078C170.393 35.2398 170.073 42.6054 166.668 49.6373C163.29 56.6127 156.849 61.8709 149.067 64.0062C146.487 64.7142 145.38 64.7526 123.358 64.8966C110.7 64.9791 100.344 64.9385 100.344 64.8062C100.344 64.674 101.034 63.7466 101.877 62.7454C105.578 58.3501 108.346 53.2136 110.081 47.519C110.982 44.5629 111.049 43.9117 111.049 37.9963C111.049 32.1091 110.979 31.4156 110.093 28.4718C108.351 22.6859 105.313 17.0784 102.046 13.6246C101.06 12.5818 100.385 11.5807 100.521 11.362C100.696 11.0776 107.172 11.0025 123.92 11.0896L147.077 11.2103L149.823 12.1694ZM79.146 76.1823C78.885 76.5221 78.0981 77.514 77.3976 78.3871C73.83 82.8329 71.0536 88.011 69.6428 92.8502C68.5903 96.4607 68.2806 105.155 69.058 109.275C70.1845 115.244 73.3278 121.76 77.4678 126.709L79.4578 129.087L76.7973 129.312C73.3528 129.603 55.7953 129.55 42.3242 129.208C31.8211 128.94 31.7224 128.931 28.9216 127.907C24.2532 126.202 21.4513 124.432 18.1546 121.106C15.0322 117.956 12.9914 114.664 11.4043 110.217C10.3532 107.272 10.1024 100.241 10.9175 96.5764C13.3268 85.7446 23.6035 76.7665 34.5648 75.9174C36.3107 75.782 47.1626 75.6476 58.6797 75.6183C78.5739 75.5678 79.5971 75.5957 79.146 76.1823ZM157.602 76.3778C160.525 78.294 160.7 82.3725 157.94 84.2436C156.999 84.8814 155.717 84.923 130.852 85.1198C102.919 85.3414 103.786 85.2824 99.991 87.2173C98.0741 88.1945 95.0553 91.0236 93.8494 92.9733C91.7903 96.3019 91.2824 101.529 92.6305 105.522C94.0723 109.792 97.5665 113.362 102.023 115.118C104.013 115.903 104.349 115.918 121.682 116.043C131.381 116.113 142.13 116.037 145.567 115.875L151.817 115.579L152.893 114.548C155.279 112.262 155.104 109.058 152.472 106.805L151.006 105.549L130.348 105.531C118.986 105.521 108.597 105.392 107.261 105.244C105.07 105 104.716 104.847 103.646 103.68C102.638 102.58 102.46 102.126 102.46 100.664C102.46 98.7077 103.154 97.5838 105.107 96.3763L106.332 95.6193L129.703 95.7523C152.532 95.8821 153.126 95.9029 155.365 96.648C162.68 99.0816 167.344 105.159 167.341 112.252C167.341 113.707 167.179 115.594 166.983 116.445C165.752 121.787 161.458 126.434 155.894 128.447C153.783 129.21 153.72 129.212 127.149 129.105L100.52 128.998L98.0444 128.082C91.918 125.813 87.0564 122.254 83.8658 117.7C80.8442 113.387 79.1791 107.944 79.1869 102.406C79.1932 97.7443 79.8284 94.9741 81.8226 90.91C85.9813 82.4343 94.4377 76.587 103.518 75.9086C105.361 75.771 118.065 75.6768 131.75 75.6998C155.098 75.7389 156.691 75.7806 157.602 76.3778Z" fill="white"/>
</svg>
