<svg width="24" height="24" viewBox="0 0 24 24" fill="none" xmlns="http://www.w3.org/2000/svg">
<g clip-path="url(#clip0_15_1953)">
<path d="M16 12H7.5L8.5 14.5L11 16L14 15.5L15.5 14.5L16 12Z" fill="#E8A200"/>
<path fill-rule="evenodd" clip-rule="evenodd" d="M0 12V24H12H24V12V0H12H0V12ZM22.5938 2.10938V2.8125H12H1.40625V2.10938V1.40625H12H22.5938V2.10938ZM22.5938 4.92188V5.625H12H1.40625V4.92188V4.21875H12H22.5938V4.92188ZM22.5938 7.73438V8.4375H12H1.40625V7.73438V7.03125H12H22.5938V7.73438ZM22.5938 10.5469V11.25H12H1.40625V10.5469V9.84375H12H22.5938V10.5469ZM2.8125 16.9219V21.1875H12H21.1875V16.9219V12.6562H21.8906H22.5938V17.625V22.5938H12H1.40625V17.625V12.6562H2.10938H2.8125V16.9219ZM7.18908 13.1367C7.25948 13.401 7.32848 13.6616 7.34241 13.716C7.36434 13.8015 7.28269 13.8639 6.73036 14.1835C6.37978 14.3864 6.09844 14.5652 6.10509 14.5809C6.16528 14.7228 6.78112 15.7491 6.80634 15.7495C6.82444 15.7498 7.09537 15.6009 7.40845 15.4187C7.72153 15.2365 8.00288 15.0777 8.03363 15.0659C8.11228 15.0357 8.91464 15.8481 8.88427 15.9272C8.87086 15.9622 8.71209 16.2437 8.53148 16.553C8.35088 16.8622 8.20336 17.1297 8.20364 17.1474C8.20406 17.1722 9.23241 17.7887 9.37223 17.848C9.38794 17.8547 9.56677 17.5733 9.76959 17.2228C10.0876 16.6733 10.152 16.5886 10.2372 16.6091C10.2915 16.6222 10.4941 16.676 10.6875 16.7286C10.8809 16.7813 11.097 16.8361 11.168 16.8506L11.2969 16.8768V17.6259V18.375H12H12.7031V17.6259V16.8768L12.832 16.8506C12.9581 16.825 13.6366 16.653 13.7865 16.6086C13.8429 16.5919 13.9555 16.7477 14.2306 17.2232C14.4333 17.5735 14.6118 17.8547 14.6271 17.848C14.7791 17.782 15.7969 17.1777 15.7969 17.1535C15.7969 17.1359 15.6571 16.8815 15.4863 16.5881C15.3155 16.2947 15.1562 16.0123 15.1323 15.9604C15.0953 15.88 15.15 15.8049 15.5009 15.454C15.8518 15.1031 15.9269 15.0484 16.0073 15.0855C16.0591 15.1093 16.3416 15.2686 16.635 15.4395C16.9283 15.6103 17.1815 15.7498 17.1975 15.7495C17.2203 15.7491 17.8419 14.7069 17.8954 14.5793C17.9024 14.5628 17.621 14.3841 17.2702 14.1821C16.7196 13.8652 16.6355 13.8014 16.656 13.716C16.6691 13.6617 16.7228 13.459 16.7755 13.2656C16.8281 13.0723 16.883 12.856 16.8975 12.7852L16.9237 12.6562H18.3525H19.7812V16.2188V19.7812H12H4.21875V16.2188V12.6562H5.63991H7.06106L7.18908 13.1367ZM15.4678 12.7383C15.4672 12.7834 15.416 12.9642 15.354 13.14C15.0237 14.0759 14.2525 14.8795 13.3219 15.2577C11.6865 15.9222 9.75398 15.233 8.88923 13.6768C8.72714 13.3852 8.53125 12.8659 8.53125 12.7281C8.53125 12.6642 8.91614 12.6562 12 12.6562C15.2727 12.6562 15.4687 12.6609 15.4678 12.7383Z" fill="#05141F"/>
</g>
<defs>
<clipPath id="clip0_15_1953">
<rect width="24" height="24" fill="white"/>
</clipPath>
</defs>
</svg>
