<svg width="180" height="180" viewBox="0 0 180 180" fill="none" xmlns="http://www.w3.org/2000/svg">
<path fill-rule="evenodd" clip-rule="evenodd" d="M0 90V180H90H180V90V0H90H0V90ZM169.453 15.8203V21.0938H90H10.5469V15.8203V10.5469H90H169.453V15.8203ZM169.453 36.9141V42.1875H90H10.5469V36.9141V31.6406H90H169.453V36.9141ZM169.453 58.0078V63.2812H90H10.5469V58.0078V52.7344H90H169.453V58.0078ZM169.453 79.1016V84.375H90H10.5469V79.1016V73.8281H90H169.453V79.1016ZM21.0938 126.914V158.906H90H158.906V126.914V94.9219H164.18H169.453V132.188V169.453H90H10.5469V132.188V94.9219H15.8203H21.0938V126.914ZM53.9181 98.5254C54.4461 100.507 54.9636 102.462 55.068 102.87C55.2326 103.512 54.6202 103.979 50.4777 106.376C47.8484 107.898 45.7383 109.239 45.7882 109.357C46.2396 110.421 50.8584 118.118 51.0476 118.121C51.1833 118.123 53.2153 117.007 55.5634 115.64C57.9115 114.274 60.0216 113.083 60.2522 112.994C60.8421 112.768 66.8598 118.86 66.632 119.454C66.5314 119.716 65.3407 121.828 63.9861 124.147C62.6316 126.467 61.5252 128.473 61.5273 128.606C61.5305 128.791 69.243 133.416 70.2918 133.86C70.4095 133.91 71.7507 131.8 73.272 129.171C75.657 125.049 76.1404 124.415 76.7788 124.568C77.1863 124.667 78.7061 125.07 80.1562 125.465C81.6064 125.859 83.2279 126.271 83.7598 126.379L84.7266 126.576V132.194V137.812H90H95.2734V132.194V126.576L96.2402 126.38C97.1856 126.188 102.275 124.897 103.399 124.564C103.822 124.439 104.666 125.608 106.73 129.174C108.25 131.801 109.588 133.91 109.703 133.86C110.843 133.365 118.477 128.833 118.477 128.651C118.477 128.519 117.429 126.611 116.147 124.411C114.866 122.211 113.671 120.092 113.492 119.703C113.215 119.1 113.625 118.537 116.257 115.905C118.889 113.273 119.452 112.863 120.054 113.141C120.444 113.32 122.562 114.515 124.763 115.796C126.963 117.077 128.861 118.123 128.981 118.121C129.152 118.118 133.815 110.302 134.216 109.345C134.268 109.221 132.157 107.88 129.526 106.366C125.397 103.989 124.766 103.51 124.92 102.87C125.018 102.463 125.421 100.942 125.816 99.4922C126.211 98.042 126.623 96.4202 126.731 95.8887L126.927 94.9219H137.643H148.359V121.641V148.359H90H31.6406V121.641V94.9219H42.2993H52.958L53.9181 98.5254ZM116.008 95.5371C116.004 95.8753 115.62 97.2313 115.155 98.5504C112.678 105.569 106.894 111.596 99.9144 114.433C87.6484 119.416 73.1549 114.247 66.6693 102.576C65.4536 100.389 63.9844 96.4944 63.9844 95.4605C63.9844 94.9816 66.8711 94.9219 90 94.9219C114.545 94.9219 116.015 94.9567 116.008 95.5371Z" fill="white"/>
</svg>
