<svg width="180" height="180" viewBox="0 0 180 180" fill="none" xmlns="http://www.w3.org/2000/svg">
<g clip-path="url(#clip0_80_1409)">
<path fill-rule="evenodd" clip-rule="evenodd" d="M11.9048 0.515151C4.52597 2.54971 -0.538636 9.71902 0.0912742 17.2383C0.340987 20.2227 1.40174 22.9698 3.14657 25.1511C5.56738 28.1774 5.9627 28.9335 5.96411 30.5376C5.96586 32.2919 5.64194 32.997 3.83556 35.1744C-1.22271 41.2721 -1.23045 49.8657 3.81728 55.6297C5.60677 57.673 5.96551 58.4274 5.96551 60.1447C5.96551 61.8336 5.62998 62.5539 3.83556 64.7168C-1.16819 70.7487 -1.18121 79.4648 3.80532 85.1587C5.60712 87.2161 5.96551 87.9674 5.96551 89.6871C5.96551 91.376 5.62998 92.0963 3.83556 94.2592C-1.16819 100.291 -1.18121 109.007 3.80532 114.701C5.60712 116.759 5.96551 117.51 5.96551 119.23C5.96551 120.918 5.62998 121.639 3.83556 123.802C-3.55489 132.711 0.169002 145.384 11.2809 149.139C13.1034 149.756 14.1244 149.873 16.6926 149.762C20.4454 149.6 23.2042 148.484 26.3977 145.836C29.5026 143.261 32.0359 143.189 34.4539 145.607C36.8751 148.028 36.7966 150.712 34.2165 153.722C29.5398 159.178 28.9177 166.8 32.6746 172.612C37.9636 180.795 48.7565 182.448 56.2598 176.224C58.4229 174.43 59.1432 174.094 60.8321 174.094C62.5519 174.094 63.3032 174.452 65.3607 176.254C71.0548 181.24 79.7712 181.227 85.8034 176.224C87.9664 174.43 88.6867 174.094 90.3756 174.094C92.0954 174.094 92.8467 174.452 94.9042 176.254C100.598 181.24 109.315 181.227 115.347 176.224C117.51 174.43 118.23 174.094 119.919 174.094C121.639 174.094 122.39 174.452 124.448 176.254C130.142 181.24 138.858 181.227 144.89 176.224C147.053 174.43 147.774 174.094 149.463 174.094C151.182 174.094 151.934 174.452 153.991 176.254C157.336 179.183 162.263 180.554 166.708 179.792C173.464 178.633 178.636 173.402 179.812 166.538C180.54 162.286 179.116 157.285 176.242 154.004C174.441 151.946 174.082 151.195 174.082 149.475C174.082 147.77 174.375 147.156 176.333 144.752C181.205 138.771 181.166 130.084 176.242 124.461C174.441 122.404 174.082 121.653 174.082 119.933C174.082 118.228 174.375 117.614 176.333 115.21C181.205 109.229 181.166 100.541 176.242 94.919C174.441 92.8616 174.082 92.1103 174.082 90.3905C174.082 88.6855 174.375 88.0711 176.333 85.6676C181.205 79.6863 181.166 70.9988 176.242 65.3766C174.441 63.3191 174.082 62.5679 174.082 60.8481C174.082 59.1431 174.375 58.5287 176.333 56.1252C179.244 52.5509 180.52 47.9166 179.78 43.6028C178.456 35.8792 171.916 30.2506 164.267 30.2506C160.259 30.2506 157.019 31.4802 153.591 34.3029C152.059 35.5637 151.203 36.0058 150.04 36.137C148.015 36.3652 146.17 35.4758 144.818 33.6202C143.904 32.3668 143.79 31.9539 143.918 30.36C144.044 28.802 144.313 28.2361 145.76 26.4914C146.692 25.3673 147.946 23.419 148.546 22.1616C149.565 20.03 149.638 19.6126 149.638 15.9806C149.638 12.1109 149.629 12.0659 148.156 9.09441C143.412 -0.480499 131.977 -2.9392 123.788 3.85379C121.625 5.64814 120.905 5.98366 119.216 5.98366C117.496 5.98366 116.745 5.62528 114.687 3.82355C109.065 -1.09983 100.377 -1.13852 94.3953 3.73316C91.9917 5.6907 91.3773 5.98366 89.6722 5.98366C87.9523 5.98366 87.2011 5.62528 85.1436 3.82355C79.5212 -1.09983 70.8332 -1.13852 64.8517 3.73316C62.4482 5.6907 61.8337 5.98366 60.1286 5.98366C58.4113 5.98366 57.6568 5.62493 55.6134 3.83551C49.864 -1.19901 41.244 -1.19092 35.1573 3.85485C32.9936 5.6485 32.2737 5.98366 30.5851 5.98366C28.8653 5.98366 28.114 5.62528 26.0565 3.82355C22.3738 0.598503 16.5446 -0.764317 11.9048 0.515151ZM17.6686 10.8775C18.1343 11.0544 19.2918 11.8721 20.2417 12.6947C21.1913 13.5173 22.997 14.6783 24.2544 15.2744C26.3963 16.2901 26.7958 16.3587 30.5851 16.3587C34.2805 16.3587 34.812 16.2736 36.74 15.3722C37.9007 14.8299 39.744 13.6847 40.8364 12.8277C44.6988 9.79709 46.5914 9.81784 50.0617 12.9289C50.8115 13.6014 52.4734 14.648 53.7546 15.2551C55.9454 16.2933 56.3242 16.3587 60.1286 16.3587C63.824 16.3587 64.3555 16.2736 66.2835 15.3722C67.4442 14.8299 69.2875 13.6847 70.3799 12.8277C74.2424 9.79709 76.1349 9.81784 79.6052 12.9289C80.3551 13.6014 82.0169 14.648 83.2982 15.2551C85.4889 16.2933 85.8677 16.3587 89.6722 16.3587C93.3676 16.3587 93.899 16.2736 95.8271 15.3722C96.9877 14.8299 98.831 13.6847 99.9234 12.8277C103.786 9.79709 105.678 9.81784 109.149 12.9289C109.899 13.6014 111.56 14.648 112.842 15.2551C115.032 16.2933 115.411 16.3587 119.216 16.3587C122.911 16.3587 123.443 16.2736 125.371 15.3722C126.531 14.8299 128.351 13.7062 129.415 12.8758C131.935 10.9092 132.645 10.5546 134.052 10.5613C136.781 10.575 139.264 13.1688 139.262 16.0014C139.26 17.4876 138.821 18.3102 136.444 21.2824C134.562 23.6352 133.603 26.2891 133.376 29.7692C133.081 34.3092 134.175 37.2054 138.005 42.0212C138.769 42.982 139.068 43.7818 139.168 45.1351C139.313 47.1081 139.159 47.431 136.444 50.8248C134.178 53.6577 133.497 55.8112 133.497 60.1447C133.497 64.5912 134.253 66.8853 136.713 69.9053C138.806 72.4745 139.259 73.397 139.26 75.0918C139.261 76.5728 138.822 77.395 136.444 80.3672C134.562 82.7201 133.603 85.374 133.376 88.854C133.078 93.4383 134.154 96.2888 138.005 101.111C138.77 102.069 139.068 102.865 139.168 104.22C139.313 106.193 139.159 106.516 136.444 109.91C134.562 112.262 133.603 114.916 133.376 118.396C133.078 122.981 134.154 125.831 138.005 130.654C139.379 132.374 139.634 135.055 138.583 136.73C136.847 139.494 133.434 140.112 130.832 138.133C127.082 135.281 126.009 134.651 123.704 133.951C119.05 132.538 113.547 133.537 109.895 136.457C106.501 139.172 106.179 139.326 104.205 139.181C102.85 139.081 102.055 138.783 101.097 138.019C96.2741 134.167 93.4235 133.091 88.839 133.39C85.3588 133.616 82.7048 134.575 80.3519 136.457C76.9579 139.172 76.635 139.326 74.662 139.181C73.3068 139.081 72.5113 138.783 71.5532 138.019C66.7306 134.167 63.88 133.091 59.2954 133.39C55.8153 133.616 53.1613 134.575 50.8084 136.457C47.4144 139.172 47.0915 139.326 45.1184 139.181C43.7633 139.081 42.9677 138.783 42.0097 138.019C37.187 134.167 34.3364 133.091 29.7519 133.39C26.2718 133.616 23.6178 134.575 21.2648 136.457C18.2925 138.834 17.4699 139.273 15.9836 139.275C13.1509 139.278 10.5571 136.794 10.5434 134.065C10.5367 132.659 10.8912 131.948 12.8579 129.429C13.6883 128.365 14.812 126.545 15.3544 125.384C16.2558 123.456 16.3409 122.925 16.3409 119.23C16.3409 115.425 16.2755 115.046 15.2373 112.856C14.6302 111.575 13.5835 109.913 12.9111 109.163C9.79984 105.693 9.77909 103.8 12.8098 99.938C13.6669 98.8456 14.812 97.0024 15.3544 95.8418C16.2558 93.9138 16.3409 93.3824 16.3409 89.6871C16.3409 85.8829 16.2755 85.5041 15.2373 83.3134C14.6302 82.0321 13.5835 80.3704 12.9111 79.6206C9.79984 76.1504 9.77909 74.2579 12.8098 70.3956C13.6669 69.3032 14.812 67.46 15.3544 66.2994C16.2558 64.3714 16.3409 63.84 16.3409 60.1447C16.3409 56.3405 16.2755 55.9617 15.2373 53.771C14.6302 52.4897 13.5835 50.828 12.9111 50.0782C9.79984 46.608 9.77909 44.7155 12.8098 40.8532C13.6669 39.7608 14.812 37.9176 15.3544 36.757C16.2558 34.829 16.3409 34.2976 16.3409 30.6023C16.3409 26.798 16.2755 26.4193 15.2373 24.2286C14.6302 22.9473 13.5835 21.2856 12.9111 20.5358C10.5972 17.9547 9.99328 15.7875 11.0319 13.7913C12.3649 11.2299 15.2562 9.96028 17.6686 10.8775ZM166.567 41.3748C167.272 41.7092 168.137 42.5645 168.643 43.428C170.071 45.8642 169.777 47.3613 167.238 50.5973C166.381 51.6896 165.236 53.5329 164.693 54.6935C163.792 56.6215 163.707 57.1529 163.707 60.8481C163.707 64.6524 163.772 65.0312 164.811 67.2219C165.418 68.5031 166.464 70.1649 167.137 70.9147C170.248 74.3849 170.269 76.2774 167.238 80.1397C166.381 81.232 165.236 83.0753 164.693 84.2359C163.792 86.1639 163.707 86.6953 163.707 90.3905C163.707 94.1948 163.772 94.5736 164.811 96.7643C165.418 98.0455 166.464 99.7073 167.137 100.457C170.248 103.927 170.269 105.82 167.238 109.682C166.381 110.774 165.236 112.618 164.693 113.778C163.792 115.706 163.707 116.238 163.707 119.933C163.707 123.737 163.772 124.116 164.811 126.307C165.418 127.588 166.464 129.25 167.137 130C169.343 132.46 169.928 134.262 169.169 136.258C168.982 136.751 167.966 138.286 166.912 139.669C164.26 143.15 163.398 145.898 163.59 150.261C163.709 152.988 163.911 153.9 164.824 155.849C165.424 157.13 166.464 158.792 167.137 159.542C170.138 162.889 170.241 165.847 167.437 168.206C165.153 170.127 162.765 169.906 159.972 167.514C158.931 166.623 157.051 165.404 155.793 164.806C153.649 163.787 153.256 163.719 149.463 163.719C145.767 163.719 145.236 163.804 143.308 164.706C142.147 165.248 140.304 166.393 139.211 167.25C135.349 170.281 133.456 170.26 129.986 167.149C129.236 166.476 127.574 165.43 126.293 164.823C124.102 163.784 123.724 163.719 119.919 163.719C116.224 163.719 115.692 163.804 113.764 164.706C112.604 165.248 110.76 166.393 109.668 167.25C105.805 170.281 103.913 170.26 100.443 167.149C99.6927 166.476 98.0309 165.436 96.7496 164.836C94.8004 163.923 93.8885 163.721 91.161 163.602C86.7984 163.41 84.0498 164.272 80.5692 166.924C79.186 167.978 77.6504 168.994 77.1577 169.181C75.1621 169.94 73.3596 169.355 70.899 167.149C70.1492 166.476 68.4874 165.436 67.2061 164.836C65.2569 163.923 64.3449 163.721 61.6174 163.602C57.5517 163.423 54.4904 164.298 51.6602 166.447C50.6114 167.244 49.2169 168.261 48.5609 168.709C45.3593 170.893 40.7822 168.166 40.7861 164.076C40.7875 162.59 41.2264 161.767 43.6036 158.795C45.1845 156.819 46.2675 154.25 46.6107 151.663L46.8418 149.922L48.8251 149.481C51.4337 148.901 53.6196 147.769 55.9162 145.808C58.8815 143.277 61.4131 143.218 64.1828 145.615C67.511 148.495 70.9078 149.827 74.9271 149.827C78.9859 149.827 82.5392 148.372 86.2757 145.179C87.4603 144.167 87.8749 144.024 89.6324 144.024C91.748 144.024 91.8721 144.084 95.1237 146.673C97.5269 148.587 100.154 149.538 103.597 149.742C108.028 150.003 111.487 148.81 115.006 145.805C118.065 143.195 120.472 143.204 123.511 145.838C126.357 148.305 129.215 149.519 132.683 149.735C139.488 150.158 145.332 146.794 148.331 140.728C149.604 138.153 149.638 137.979 149.631 134.195C149.623 129.665 148.973 127.585 146.661 124.681C144.071 121.429 144.011 121.305 144.011 119.19C144.011 117.432 144.154 117.018 145.166 115.833C148.671 111.732 149.998 108.185 149.73 103.639C149.526 100.167 148.58 97.5489 146.661 95.1384C144.071 91.887 144.011 91.7629 144.011 89.6474C144.011 87.89 144.154 87.4753 145.166 86.2908C148.359 82.5544 149.814 79.0012 149.814 74.9427C149.814 70.9235 148.482 67.5268 145.602 64.1987C143.205 61.4291 143.264 58.8976 145.795 55.9325C147.756 53.6359 148.888 51.4501 149.468 48.8416L149.909 46.8584L151.65 46.6273C154.237 46.2841 156.807 45.2012 158.783 43.6203C162.58 40.5838 164.023 40.1674 166.567 41.3748Z" fill="white"/>
</g>
<defs>
<clipPath id="clip0_80_1409">
<rect width="180" height="180" fill="white"/>
</clipPath>
</defs>
</svg>
