<svg width="24" height="24" viewBox="0 0 24 24" fill="none" xmlns="http://www.w3.org/2000/svg">
<g clip-path="url(#clip0_15_1946)">
<path d="M8 18.5L5.5 19L4.5 22L5.5 23H23V14.5V11.5V9L23.5 6L22 4.5L19.5 5.5L18.5 7.5L19 10.5L18.5 16L19 18L18 19L16.5 18.5L14.5 19L12.5 18.5L10.5 19L8 18.5Z" fill="#E8A200"/>
<path fill-rule="evenodd" clip-rule="evenodd" d="M1.58731 0.0686868C0.603463 0.339961 -0.0718181 1.29587 0.0121699 2.29844C0.045465 2.69637 0.186899 3.06265 0.419542 3.35347C0.742317 3.75699 0.795026 3.85781 0.795214 4.07168C0.795448 4.30558 0.752259 4.3996 0.511409 4.68992C-0.163028 5.50294 -0.16406 6.64877 0.50897 7.41729C0.747569 7.68974 0.795402 7.79032 0.795402 8.0193C0.795402 8.24448 0.750664 8.34051 0.511409 8.6289C-0.155759 9.43316 -0.157494 10.5953 0.507376 11.3545C0.747616 11.6288 0.795402 11.729 0.795402 11.9583C0.795402 12.1835 0.750664 12.2795 0.511409 12.5679C-0.155759 13.3721 -0.157494 14.5343 0.507376 15.2935C0.747616 15.5678 0.795402 15.668 0.795402 15.8973C0.795402 16.1225 0.750664 16.2185 0.511409 16.5069C-0.473985 17.6948 0.0225336 19.3845 1.50412 19.8853C1.74713 19.9674 1.88326 19.9831 2.22568 19.9683C2.72605 19.9466 3.09389 19.7979 3.51969 19.4448C3.93367 19.1015 4.27146 19.0918 4.59385 19.4142C4.91668 19.737 4.90622 20.0949 4.5622 20.4962C3.93864 21.2237 3.85569 22.24 4.35662 23.015C5.06181 24.106 6.50087 24.3264 7.50131 23.4965C7.78971 23.2573 7.88575 23.2125 8.11094 23.2125C8.34025 23.2125 8.44042 23.2603 8.71475 23.5006C9.47398 24.1654 10.6362 24.1637 11.4404 23.4965C11.7289 23.2573 11.8249 23.2125 12.0501 23.2125C12.2794 23.2125 12.3796 23.2603 12.6539 23.5006C13.4131 24.1654 14.5753 24.1637 15.3796 23.4965C15.668 23.2573 15.764 23.2125 15.9892 23.2125C16.2185 23.2125 16.3187 23.2603 16.593 23.5006C17.3522 24.1654 18.5144 24.1637 19.3187 23.4965C19.6071 23.2573 19.7032 23.2125 19.9284 23.2125C20.1577 23.2125 20.2578 23.2603 20.5322 23.5006C20.9781 23.8911 21.6351 24.0739 22.2278 23.9722C23.1286 23.8178 23.8181 23.1203 23.9749 22.205C24.072 21.6381 23.8821 20.9713 23.499 20.5338C23.2587 20.2595 23.211 20.1594 23.211 19.93C23.211 19.7027 23.25 19.6208 23.511 19.3003C24.1606 18.5028 24.1555 17.3445 23.499 16.5949C23.2587 16.3205 23.211 16.2204 23.211 15.9911C23.211 15.7637 23.25 15.6818 23.511 15.3613C24.1606 14.5638 24.1555 13.4055 23.499 12.6559C23.2587 12.3815 23.211 12.2814 23.211 12.0521C23.211 11.8247 23.25 11.7428 23.511 11.4224C24.1606 10.6248 24.1555 9.4665 23.499 8.71688C23.2587 8.44255 23.211 8.34239 23.211 8.11308C23.211 7.88575 23.25 7.80383 23.511 7.48336C23.8992 7.00679 24.0693 6.38889 23.9707 5.8137C23.7941 4.78389 22.9221 4.03342 21.9022 4.03342C21.3679 4.03342 20.9359 4.19736 20.4788 4.57372C20.2746 4.74183 20.1604 4.80077 20.0053 4.81826C19.7354 4.8487 19.4894 4.7301 19.309 4.4827C19.1872 4.31557 19.172 4.26052 19.1891 4.048C19.2058 3.84027 19.2418 3.76482 19.4346 3.53218C19.5589 3.38231 19.7261 3.12253 19.8062 2.95489C19.9419 2.67067 19.9518 2.61501 19.9518 2.13075C19.9518 1.61479 19.9505 1.60878 19.7542 1.21259C19.1216 -0.0640665 17.597 -0.391893 16.5051 0.513839C16.2167 0.753086 16.1206 0.797822 15.8954 0.797822C15.6661 0.797822 15.5659 0.750038 15.2916 0.509807C14.542 -0.146645 13.3836 -0.151803 12.586 0.497755C12.2656 0.75876 12.1836 0.797822 11.9563 0.797822C11.727 0.797822 11.6268 0.750038 11.3525 0.509807C10.6028 -0.146645 9.44443 -0.151803 8.6469 0.497755C8.32642 0.75876 8.2445 0.797822 8.01715 0.797822C7.78817 0.797822 7.68758 0.749991 7.41512 0.511401C6.64854 -0.159868 5.4992 -0.15879 4.68764 0.51398C4.39915 0.753133 4.30316 0.797822 4.07802 0.797822C3.8487 0.797822 3.74853 0.750038 3.4742 0.509807C2.98317 0.0798004 2.20594 -0.101909 1.58731 0.0686868ZM2.35582 1.45033C2.4179 1.47392 2.57223 1.58295 2.6989 1.69263C2.82551 1.80231 3.06627 1.9571 3.23391 2.03659C3.5195 2.17201 3.57277 2.18116 4.07802 2.18116C4.57074 2.18116 4.64159 2.16981 4.89867 2.04962C5.05342 1.97731 5.29919 1.82463 5.44485 1.71035C5.95984 1.30628 6.21218 1.30905 6.67489 1.72386C6.77487 1.81352 6.99645 1.95307 7.16728 2.03401C7.45939 2.17243 7.50989 2.18116 8.01715 2.18116C8.50987 2.18116 8.58073 2.16981 8.83781 2.04962C8.99256 1.97731 9.23833 1.82463 9.38399 1.71035C9.89898 1.30628 10.1513 1.30905 10.614 1.72386C10.714 1.81352 10.9356 1.95307 11.1064 2.03401C11.3985 2.17243 11.449 2.18116 11.9563 2.18116C12.449 2.18116 12.5199 2.16981 12.7769 2.04962C12.9317 1.97731 13.1775 1.82463 13.3231 1.71035C13.8381 1.30628 14.0905 1.30905 14.5532 1.72386C14.6531 1.81352 14.8747 1.95307 15.0456 2.03401C15.3377 2.17243 15.3882 2.18116 15.8954 2.18116C16.3881 2.18116 16.459 2.16981 16.7161 2.04962C16.8708 1.97731 17.1135 1.82749 17.2554 1.71678C17.5913 1.45455 17.686 1.40729 17.8736 1.40818C18.2374 1.41001 18.5686 1.75584 18.5682 2.13351C18.568 2.33168 18.5095 2.44136 18.1926 2.83765C17.9416 3.15137 17.8137 3.50522 17.7835 3.96922C17.7441 4.57456 17.89 4.96072 18.4007 5.60282C18.5026 5.73094 18.5424 5.83757 18.5557 6.01801C18.5751 6.28108 18.5545 6.32413 18.1926 6.77664C17.8904 7.15436 17.7996 7.44149 17.7996 8.0193C17.7996 8.61216 17.9004 8.91805 18.2284 9.32071C18.5074 9.66326 18.5678 9.78626 18.5679 10.0122C18.5681 10.2097 18.5096 10.3193 18.1926 10.7156C17.9416 11.0293 17.8137 11.3832 17.7835 11.8472C17.7437 12.4584 17.8872 12.8385 18.4007 13.4815C18.5027 13.6092 18.5424 13.7153 18.5557 13.896C18.5751 14.1591 18.5545 14.2021 18.1926 14.6546C17.9416 14.9683 17.8137 15.3222 17.7835 15.7862C17.7437 16.3974 17.8872 16.7775 18.4007 17.4205C18.5839 17.6498 18.6178 18.0074 18.4777 18.2306C18.2462 18.5992 17.7911 18.6816 17.4443 18.4178C16.9443 18.0374 16.8012 17.9535 16.4938 17.8602C15.8734 17.6717 15.1396 17.8049 14.6527 18.1943C14.2002 18.5563 14.1571 18.5769 13.8941 18.5575C13.7134 18.5441 13.6073 18.5045 13.4796 18.4025C12.8365 17.889 12.4565 17.7455 11.8452 17.7853C11.3812 17.8155 11.0273 17.9434 10.7136 18.1943C10.2611 18.5563 10.218 18.5769 9.95493 18.5575C9.77424 18.5441 9.66817 18.5045 9.54043 18.4025C8.89741 17.889 8.51733 17.7455 7.90606 17.7853C7.44204 17.8155 7.08817 17.9434 6.77445 18.1943C6.32192 18.5563 6.27887 18.5769 6.01579 18.5575C5.83511 18.5441 5.72903 18.5045 5.60129 18.4025C4.95827 17.889 4.57819 17.7455 3.96692 17.7853C3.5029 17.8155 3.14904 17.9434 2.83531 18.1943C2.43901 18.5113 2.32932 18.5698 2.13114 18.57C1.75346 18.5703 1.40761 18.2392 1.40578 17.8754C1.40489 17.6878 1.45216 17.5931 1.71439 17.2572C1.82511 17.1153 1.97494 16.8726 2.04725 16.7179C2.16744 16.4608 2.17879 16.39 2.17879 15.8973C2.17879 15.39 2.17007 15.3395 2.03163 15.0474C1.95069 14.8766 1.81114 14.655 1.72147 14.5551C1.30665 14.0924 1.30388 13.84 1.70797 13.3251C1.82225 13.1794 1.97494 12.9337 2.04725 12.7789C2.16744 12.5218 2.17879 12.451 2.17879 11.9583C2.17879 11.451 2.17007 11.4005 2.03163 11.1085C1.95069 10.9376 1.81114 10.7161 1.72147 10.6161C1.30665 10.1534 1.30388 9.90106 1.70797 9.38608C1.82225 9.24043 1.97494 8.99467 2.04725 8.83992C2.16744 8.58286 2.17879 8.512 2.17879 8.0193C2.17879 7.51206 2.17007 7.46156 2.03163 7.16946C1.95069 6.99863 1.81114 6.77706 1.72147 6.67709C1.30665 6.2144 1.30388 5.96207 1.70797 5.44709C1.82225 5.30144 1.97494 5.05568 2.04725 4.90093C2.16744 4.64387 2.17879 4.57301 2.17879 4.08031C2.17879 3.57307 2.17007 3.52257 2.03163 3.23047C1.95069 3.05964 1.81114 2.83808 1.72147 2.7381C1.41296 2.39396 1.33244 2.105 1.47092 1.83884C1.64865 1.49732 2.03417 1.32804 2.35582 1.45033ZM22.209 5.51664C22.3029 5.56123 22.4183 5.67527 22.4857 5.7904C22.6761 6.11522 22.637 6.31484 22.2984 6.7463C22.1841 6.89195 22.0314 7.13772 21.9591 7.29246C21.8389 7.54953 21.8276 7.62038 21.8276 8.11308C21.8276 8.62032 21.8363 8.67083 21.9747 8.96292C22.0557 9.13375 22.1952 9.35532 22.2849 9.4553C22.6997 9.91799 22.7025 10.1703 22.2984 10.6853C22.1841 10.8309 22.0314 11.0767 21.9591 11.2315C21.8389 11.4885 21.8276 11.5594 21.8276 12.0521C21.8276 12.5593 21.8363 12.6098 21.9747 12.9019C22.0557 13.0727 22.1952 13.2943 22.2849 13.3943C22.6997 13.857 22.7025 14.1093 22.2984 14.6243C22.1841 14.7699 22.0314 15.0157 21.9591 15.1704C21.8389 15.4275 21.8276 15.4984 21.8276 15.9911C21.8276 16.4983 21.8363 16.5488 21.9747 16.8409C22.0557 17.0117 22.1952 17.2333 22.2849 17.3333C22.579 17.6613 22.657 17.9017 22.5559 18.1677C22.5309 18.2334 22.3955 18.4382 22.2549 18.6226C21.9013 19.0866 21.7864 19.4531 21.812 20.0348C21.8279 20.3984 21.8548 20.52 21.9765 20.7799C22.0565 20.9507 22.1952 21.1723 22.2849 21.2723C22.685 21.7186 22.6987 22.1129 22.325 22.4274C22.0205 22.6836 21.702 22.6541 21.3296 22.3352C21.1908 22.2164 20.9401 22.0539 20.7725 21.9741C20.4866 21.8382 20.4341 21.8292 19.9284 21.8292C19.4356 21.8292 19.3648 21.8406 19.1077 21.9607C18.9529 22.033 18.7072 22.1857 18.5615 22.3C18.0465 22.7041 17.7942 22.7013 17.3315 22.2865C17.2315 22.1968 17.0099 22.0573 16.8391 21.9764C16.547 21.8379 16.4965 21.8292 15.9892 21.8292C15.4965 21.8292 15.4256 21.8406 15.1686 21.9607C15.0138 22.033 14.768 22.1857 14.6224 22.3C14.1074 22.7041 13.855 22.7013 13.3923 22.2865C13.2924 22.1968 13.0708 22.0581 12.8999 21.9781C12.6401 21.8564 12.5185 21.8295 12.1548 21.8136C11.5731 21.788 11.2066 21.903 10.7426 22.2565C10.5581 22.3971 10.3534 22.5325 10.2877 22.5575C10.0216 22.6586 9.78128 22.5806 9.4532 22.2865C9.35322 22.1968 9.13165 22.0581 8.96081 21.9781C8.70092 21.8564 8.57932 21.8295 8.21566 21.8136C7.67356 21.7898 7.26539 21.9064 6.88803 22.1929C6.74819 22.2992 6.56225 22.4348 6.47479 22.4945C6.04791 22.7857 5.43763 22.4221 5.43814 21.8768C5.43833 21.6787 5.49685 21.569 5.81381 21.1727C6.02461 20.9092 6.16899 20.5666 6.21476 20.2217L6.24557 19.9896L6.51001 19.9308C6.85783 19.8534 7.14928 19.7025 7.4555 19.4411C7.85086 19.1036 8.18841 19.0957 8.5577 19.4153C9.00147 19.7994 9.45437 19.9769 9.99028 19.9769C10.5314 19.9769 11.0052 19.7829 11.5034 19.3572C11.6614 19.2222 11.7167 19.2032 11.951 19.2032C12.2331 19.2032 12.2496 19.2112 12.6832 19.5565C13.0036 19.8116 13.3538 19.9384 13.8129 19.9655C14.4037 20.0004 14.8649 19.8413 15.3342 19.4407C15.742 19.0926 16.0629 19.0939 16.4681 19.4451C16.8476 19.774 17.2286 19.9359 17.691 19.9646C18.5984 20.021 19.3776 19.5725 19.7774 18.7637C19.9472 18.4204 19.9518 18.3972 19.9508 17.8927C19.9497 17.2887 19.8631 17.0113 19.5547 16.6241C19.2095 16.1906 19.2015 16.174 19.2015 15.892C19.2015 15.6577 19.2205 15.6024 19.3555 15.4444C19.8227 14.8976 19.9998 14.4247 19.964 13.8186C19.9367 13.3556 19.8107 13.0065 19.5547 12.6851C19.2095 12.2516 19.2015 12.235 19.2015 11.953C19.2015 11.7187 19.2205 11.6634 19.3555 11.5054C19.7812 11.0073 19.9752 10.5335 19.9752 9.99236C19.9752 9.45647 19.7977 9.00358 19.4136 8.55983C19.094 8.19055 19.1019 7.85302 19.4394 7.45767C19.7008 7.15146 19.8517 6.86002 19.9291 6.51221L19.9879 6.24779L20.22 6.21698C20.5649 6.17121 20.9076 6.02683 21.1711 5.81605C21.6773 5.41117 21.8697 5.35565 22.209 5.51664Z" fill="#05141F"/>
</g>
<defs>
<clipPath id="clip0_15_1946">
<rect width="24" height="24" fill="white"/>
</clipPath>
</defs>
</svg>
