<svg width="180" height="180" viewBox="0 0 180 180" fill="none" xmlns="http://www.w3.org/2000/svg">
<path fill-rule="evenodd" clip-rule="evenodd" d="M0 15.812V31.6241H5.27344H10.5469V26.3534V21.0827H15.8203H21.0938V100.541V180L26.4551 179.812C34.2548 179.539 38.9197 178.059 45.0032 173.93C51.0915 169.798 56.6768 168.536 62.9757 169.87C65.662 170.44 67.7029 171.411 71.7933 174.065C78.8667 178.654 82.1682 179.671 90 179.671C97.8834 179.671 101.374 178.57 108.771 173.751C114.33 170.129 117.84 169.091 123.238 169.472C126.757 169.72 129.744 170.691 132.831 172.59C140.953 177.588 143.049 178.535 147.82 179.367C149.521 179.663 152.711 179.906 154.909 179.906H158.906V100.494V21.0827H164.18H169.453V26.3534V31.6241H174.727H180V15.812V0H174.727H169.453V5.27068V10.5414H90H10.5469V5.27068V0H5.27344H0V15.812ZM53.0859 90.1219V159.161L52.1191 159.374C47.8121 160.323 44.3858 161.822 39.9023 164.718C37.2653 166.422 32.8279 168.662 32.0899 168.662C31.7268 168.662 31.6406 154.538 31.6406 94.8722V21.0827H42.3633H53.0859V90.1219ZM84.7266 94.8722C84.7266 153.672 84.6373 168.661 84.2871 168.658C83.4616 168.652 80.1394 166.93 76.8776 164.818C75.0857 163.658 72.4402 162.166 70.9991 161.502C68.6152 160.405 67.4687 160.024 64.5996 159.379L63.6328 159.161V90.1219V21.0827H74.1797H84.7266V94.8722ZM116.367 90.1219V159.161L115.4 159.379C112.531 160.024 111.385 160.405 109.001 161.502C107.56 162.166 104.914 163.658 103.122 164.818C99.8606 166.93 96.5384 168.652 95.7129 168.658C95.3627 168.661 95.2734 153.672 95.2734 94.8722V21.0827H105.82H116.367V90.1219ZM148.359 94.8722C148.359 154.538 148.273 168.662 147.91 168.662C147.144 168.662 142.498 166.306 140.236 164.771C136.291 162.094 132.29 160.346 127.881 159.374L126.914 159.161V90.1219V21.0827H137.637H148.359V94.8722Z" fill="white"/>
</svg>
