<svg width="24" height="24" viewBox="0 0 24 24" fill="none" xmlns="http://www.w3.org/2000/svg">
<g clip-path="url(#clip0_15_1930)">
<path d="M7.63634 14.7274L3.81816 10.9092H3.27271V23.4546L7.63634 21.8183L12 22.9092L16.3636 21.8183L20.7273 23.4546L20.1818 20.1819L16.3636 18.5455L12 16.9092L7.63634 14.7274Z" fill="#E8A200"/>
<path fill-rule="evenodd" clip-rule="evenodd" d="M0 2.10827V4.21654H0.703125H1.40625V3.51379V2.81103H2.10938H2.8125V13.4055V24L3.52734 23.9749C4.56731 23.9385 5.1893 23.7412 6.00042 23.1907C6.8122 22.6397 7.55691 22.4715 8.39677 22.6494C8.75494 22.7253 9.02705 22.8547 9.57244 23.2086C10.5156 23.8206 10.9558 23.9561 12 23.9561C13.0511 23.9561 13.5165 23.8094 14.5028 23.1668C15.244 22.6839 15.712 22.5455 16.4318 22.5963C16.9009 22.6293 17.2992 22.7588 17.7108 23.0121C18.7937 23.6784 19.0732 23.8047 19.7094 23.9156C19.9361 23.9551 20.3615 23.9874 20.6546 23.9874H21.1875V13.3992V2.81103H21.8906H22.5938V3.51379V4.21654H23.2969H24V2.10827V0H23.2969H22.5938V0.702757V1.40551H12H1.40625V0.702757V0H0.703125H0V2.10827ZM7.07812 12.0163V21.2215L6.94922 21.2499C6.37495 21.3764 5.91811 21.5763 5.32031 21.9624C4.9687 22.1896 4.37705 22.4882 4.27866 22.4882C4.23023 22.4882 4.21875 20.6051 4.21875 12.6496V2.81103H5.64844H7.07812V12.0163ZM11.2969 12.6496C11.2969 20.4895 11.285 22.4881 11.2383 22.4878C11.1282 22.4869 10.6852 22.2573 10.2503 21.9757C10.0114 21.821 9.65869 21.6221 9.46655 21.5337C9.14869 21.3873 8.99583 21.3366 8.61328 21.2505L8.48438 21.2215V12.0163V2.81103H9.89062H11.2969V12.6496ZM15.5156 12.0163V21.2215L15.3867 21.2505C15.0042 21.3366 14.8513 21.3873 14.5335 21.5337C14.3413 21.6221 13.9886 21.821 13.7497 21.9757C13.3147 22.2573 12.8718 22.4869 12.7617 22.4878C12.715 22.4881 12.7031 20.4895 12.7031 12.6496V2.81103H14.1094H15.5156V12.0163ZM19.7812 12.6496C19.7812 20.6051 19.7698 22.4882 19.7213 22.4882C19.6192 22.4882 18.9997 22.1742 18.6981 21.9695C18.1721 21.6125 17.6386 21.3794 17.0508 21.2499L16.9219 21.2215V12.0163V2.81103H18.3516H19.7812V12.6496Z" fill="#05141F"/>
</g>
<defs>
<clipPath id="clip0_15_1930">
<rect width="24" height="24" fill="white"/>
</clipPath>
</defs>
</svg>
