<svg width="60" height="60" viewBox="0 0 60 60" fill="none" xmlns="http://www.w3.org/2000/svg">
<g clip-path="url(#clip0_15_2015)">
<path d="M49 39H32.5L31.5 39.5L31 44.5V59H56L58.5 58L59 52.5L58.5 39.5L55.5 39L55 42V51.5L53 55V54L51 52V40L49 39Z" fill="#E8A200"/>
<circle cx="37" cy="49" r="2" fill="white"/>
<path fill-rule="evenodd" clip-rule="evenodd" d="M15.5679 0.145375C13.645 0.507 11.6449 2.08087 10.7576 3.93075C10.1031 5.295 10.0075 5.96613 10.0075 9.19625V11.9716L9.41933 12.0599C8.13157 12.253 6.97275 13.1128 6.3831 14.3125C5.96126 15.1707 5.95039 16.783 6.36073 17.6289C6.96376 18.8717 7.99037 19.656 9.37847 19.9341L10.0683 20.0724L10.1541 20.6725C10.5914 23.7305 12.7203 26.8955 15.3526 28.4006L16.012 28.7776L15.9774 30.5271L15.9428 32.2766L10.6947 33.9217C4.60677 35.8301 4.22404 36.0054 2.63301 37.6124C1.48732 38.7695 0.892289 39.7421 0.369236 41.3125L0.0777207 42.1875L0.0388605 50.7812L0 59.3751L0.312383 59.6875L0.62464 60H29.0115C50.9337 60 57.5152 59.9654 57.9125 59.848C58.5988 59.6451 59.6339 58.6096 59.8367 57.923C60.0544 57.1861 60.0544 40.8139 59.8367 40.077C59.6339 39.3904 58.5988 38.3549 57.9125 38.152C57.6296 38.0684 57.0814 38 56.6942 38H55.9902V36.8069C55.9902 35.7066 55.9663 35.5897 55.6834 35.3069C55.3793 35.0025 55.3574 35 52.9913 35C50.6252 35 50.6033 35.0025 50.2992 35.3069C50.0163 35.5897 49.9925 35.7066 49.9925 36.8069V38H44.8947H39.797L39.3031 37.491C38.7417 36.9124 37.3832 35.973 36.6667 35.6681C36.4018 35.5555 33.9079 34.7454 31.1245 33.868L26.0639 32.2729L26.0295 30.5426L25.995 28.8123L26.6542 28.4151C29.3656 26.7819 31.4157 23.7284 31.8526 20.6725L31.9384 20.0724L32.6282 19.9341C33.4693 19.7656 34.5359 19.2024 34.9529 18.7066C35.1228 18.5046 35.4111 18.0521 35.5935 17.7009C35.8753 17.1584 35.9255 16.9029 35.9279 16C35.9304 15.0262 35.895 14.8715 35.5044 14.1469C34.8688 12.9676 33.8686 12.252 32.5874 12.0599L31.9992 11.9716V7.79263V3.61363L31.6925 3.30688C31.3971 3.01125 31.3237 3 29.6932 3H28.0007V1.80687C28.0007 0.706625 27.9769 0.58975 27.694 0.306875L27.3873 0L21.7899 0.0139999C18.7115 0.0216249 15.9115 0.080875 15.5679 0.145375ZM25.9726 3.1155C25.8577 5.1325 24.9049 6.60162 23.1482 7.47062L22.2044 7.9375L19.3235 7.96925C17.739 7.98662 15.4376 8.01475 14.2092 8.03175L11.9757 8.0625L12.0356 6.91975C12.1063 5.56863 12.5375 4.49262 13.3702 3.58887C13.9229 2.98912 15.0575 2.321 15.8325 2.139C16.0993 2.07638 18.5043 2.0195 21.1769 2.0125L26.0361 2L25.9726 3.1155ZM30 6.53125L30.0001 8.0625L28.3443 8.02738C27.4338 8.008 26.5349 7.97988 26.347 7.96488L26.0051 7.9375L26.4582 7.375C26.7073 7.06563 27.1018 6.40462 27.3348 5.90625L27.7584 5H28.8791H30V6.53125ZM29.7021 10.3156L30.0176 10.6313L29.9731 15.6594C29.9287 20.6789 29.9281 20.6891 29.606 21.6459C29.1009 23.1463 28.4466 24.201 27.3245 25.3235C26.1985 26.4499 25.1387 27.1065 23.6482 27.601C22.8119 27.8785 22.4758 27.9189 21.0034 27.9189C19.5309 27.9189 19.1948 27.8785 18.3585 27.601C16.868 27.1065 15.8082 26.4499 14.6822 25.3235C13.5602 24.201 12.9058 23.1463 12.4007 21.6459C12.0786 20.6891 12.078 20.6789 12.0336 15.6594L11.9891 10.6313L12.3046 10.3156L12.6201 10H21.0034H29.3866L29.7021 10.3156ZM10.0075 16.0156V18.0312L9.61189 17.9521C9.06284 17.8423 8.45944 17.351 8.19904 16.8019C7.76258 15.8819 8.20691 14.6778 9.15531 14.2103C10.0155 13.7861 10.0075 13.7692 10.0075 16.0156ZM16.1864 14.1759C14.9258 14.7251 14.628 16.4016 15.6156 17.3897C16.4262 18.2005 17.5835 18.2005 18.3941 17.3897C19.9449 15.8382 18.2002 13.2984 16.1864 14.1759ZM24.1834 14.1759C22.9228 14.7251 22.625 16.4016 23.6126 17.3897C24.4232 18.2005 25.5805 18.2005 26.3911 17.3897C27.9419 15.8382 26.1971 13.2984 24.1834 14.1759ZM33.2204 14.455C33.6995 14.8206 33.9985 15.4175 33.9985 16.0084C33.9985 16.8676 33.244 17.7823 32.3948 17.9521L31.9992 18.0312V16V13.9688L32.3948 14.0479C32.6125 14.0915 32.984 14.2746 33.2204 14.455ZM18.4103 21.9548C18.0841 22.3329 17.817 22.7086 17.817 22.7899C17.817 22.871 18.26 23.1625 18.8013 23.4375C19.7498 23.9193 19.83 23.9375 21.0034 23.9375C22.1767 23.9375 22.2569 23.9193 23.2054 23.4375C23.7467 23.1625 24.1897 22.871 24.1897 22.7899C24.1897 22.7086 23.9226 22.3329 23.5964 21.9548L23.0031 21.2673L22.4093 21.6021C21.5696 22.0756 20.4371 22.0756 19.5974 21.6021L19.0036 21.2673L18.4103 21.9548ZM19.5039 29.8816C20.7073 30.0864 21.9571 30.0245 23.5961 29.6793L24.0022 29.5938V31.5011C24.0022 32.6333 23.9405 33.6176 23.8503 33.923C23.6475 34.6096 22.6124 35.6451 21.926 35.848C20.7544 36.1942 19.8204 35.9501 18.9374 35.0667C18.1074 34.2365 18.0045 33.843 18.0045 31.5011V29.5938L18.4106 29.6793C18.6339 29.7264 19.1259 29.8174 19.5039 29.8816ZM16.4791 35.0415C16.9318 36.0884 17.744 36.9194 18.848 37.4651C19.7527 37.9125 19.8669 37.9375 21.0034 37.9375C22.1398 37.9375 22.254 37.9125 23.1587 37.4651C24.2627 36.9194 25.0749 36.0884 25.5276 35.0415C25.6852 34.6772 25.8615 34.3783 25.9196 34.3771C25.9776 34.376 26.4083 34.4915 26.8768 34.6338C27.7216 34.8905 27.7276 34.8954 27.625 35.2531C27.4032 36.0267 26.6577 37.2046 25.9276 37.935C23.1917 40.672 18.7732 40.6686 16.0647 37.9274C15.3505 37.2046 14.5844 35.9904 14.3867 35.2681C14.3007 34.9543 14.3347 34.9238 15.057 34.666C15.4754 34.5168 15.9021 34.3911 16.0052 34.3869C16.1157 34.3824 16.3104 34.6515 16.4791 35.0415ZM12.6379 36.2671C13.2506 37.9061 14.65 39.5944 16.2369 40.6091C19.0041 42.3785 22.7379 42.428 25.5868 40.7331C27.185 39.7822 28.7431 37.941 29.3712 36.2605C29.5411 35.8063 29.7206 35.5099 29.8059 35.5426C29.886 35.5734 31.2399 36.0034 32.8148 36.4984C34.3896 36.9933 35.9046 37.5195 36.1815 37.6678L36.685 37.9375L34.4358 38C32.5726 38.0518 32.1057 38.1028 31.7148 38.297C31.0728 38.6161 30.3145 39.5087 30.1362 40.155C30.0285 40.5455 29.9991 42.9961 30.0258 49.3438L30.0624 58H20.035H10.0075V51V44H9.00786H8.00824V46V48H5.00937H2.01049L2.01262 45.5938C2.01524 42.7736 2.16044 41.9033 2.84705 40.5929C3.41122 39.5164 4.53604 38.344 5.5108 37.8166C6.02373 37.5391 11.7778 35.5768 12.2726 35.5105C12.3159 35.5048 12.4802 35.8452 12.6379 36.2671ZM53.9909 38V39H52.9913H51.9917V38V37H52.9913H53.9909V38ZM49.9925 45.6273V51.2545L50.6253 52.5163C51.1318 53.5259 51.3314 53.8055 51.625 53.9164C51.9873 54.0531 51.9917 54.0664 51.9917 55.0274V56H52.9913H53.9909V55.0274C53.9909 54.0664 53.9953 54.0531 54.3577 53.9164C54.6512 53.8055 54.8509 53.5259 55.3573 52.5163L55.9902 51.2545V45.6273V40H56.6831C57.2522 40 57.4309 40.0549 57.6827 40.3069L57.9894 40.6136V49V57.3864L57.6827 57.6931L57.376 58H44.9943H32.6126L32.306 57.6931L31.9992 57.3864V49V40.6136L32.306 40.3069L32.6126 40H41.3026H49.9925V45.6273ZM53.9909 45.8791V50.7583L53.6764 51.3791C53.4058 51.9134 53.3102 52 52.9913 52C52.6724 52 52.5769 51.9134 52.3062 51.3791L51.9917 50.7583V45.8791V41H52.9913H53.9909V45.8791ZM34.9981 43V44H36.9973H38.9966V43V42H36.9973H34.9981V43ZM35.9977 46.1634C35.3844 46.3568 34.3385 47.4403 34.1504 48.077C33.8043 49.249 34.0483 50.1834 34.9314 51.0667C35.5785 51.7141 36.2114 52 36.9973 52C37.7833 52 38.4162 51.7141 39.0633 51.0667C40.2844 49.8452 40.3208 48.2914 39.1589 46.9985C38.3502 46.0988 37.1819 45.79 35.9977 46.1634ZM37.6902 48.3069C37.8836 48.5002 37.997 48.7565 37.997 49C37.997 49.2435 37.8836 49.4998 37.6902 49.6931C37.4969 49.8866 37.2407 50 36.9973 50C36.7539 50 36.4978 49.8866 36.3045 49.6931C36.111 49.4998 35.9977 49.2435 35.9977 49C35.9977 48.7565 36.111 48.5002 36.3045 48.3069C36.4978 48.1134 36.7539 48 36.9973 48C37.2407 48 37.4969 48.1134 37.6902 48.3069ZM8.00824 51V52H5.00937H2.01049V51V50H5.00937H8.00824V51ZM8.00824 56V58H5.00937H2.01049V56V54H5.00937H8.00824V56ZM34.9981 55V56H36.9973H38.9966V55V54H36.9973H34.9981V55Z" fill="#05141F"/>
</g>
<defs>
<clipPath id="clip0_15_2015">
<rect width="60" height="60" fill="white"/>
</clipPath>
</defs>
</svg>
