<svg width="40" height="40" viewBox="0 0 40 40" fill="none" xmlns="http://www.w3.org/2000/svg">
<circle cx="20" cy="20" r="19" stroke="#05141F" stroke-width="2"/>
<g clip-path="url(#clip0_301_9752)">
<path d="M30.084 11.0049H27.8426V10.7504C27.8426 9.22349 26.6191 8 25.0921 8H11.6435C10.1166 8 8.89313 9.22349 8.89313 10.7504V13.4519C8.89313 14.9788 10.1166 16.2023 11.6435 16.2023H25.0921C26.6191 16.2023 27.8426 14.9788 27.8426 13.4519V13.0457H29.066V17.783H18.3678C17.8099 17.783 17.3499 18.2431 17.3499 18.801V20.7928H16.743C16.2439 20.7928 15.8181 21.1599 15.7496 21.6591L14.8736 27.9821C14.5799 30.7765 16.19 32 18.3727 32C19.8262 32 22.2781 31.4372 21.8719 27.9821L20.9959 21.6591C20.9274 21.1648 20.5016 20.7928 20.0024 20.7928H19.3907V19.8189H30.0889C30.6468 19.8189 31.1068 19.3589 31.1068 18.801V12.0228C31.1019 11.4649 30.6419 11.0049 30.084 11.0049ZM25.8556 13.4519C25.8556 13.8581 25.4983 14.2153 25.0921 14.2153H11.6435C11.2373 14.2153 10.8801 13.8581 10.8801 13.4519V10.7504C10.8801 10.3442 11.2373 9.98695 11.6435 9.98695H25.0921C25.4983 9.98695 25.8556 10.3442 25.8556 10.7504V13.4519ZM18.3678 29.9886C17.5603 29.9886 16.8556 29.3475 16.8556 28.2561L17.6142 22.7945H19.1215L19.8801 28.2561C19.8801 29.5824 19.3466 29.9886 18.3678 29.9886Z" fill="#05141F"/>
</g>
<defs>
<clipPath id="clip0_301_9752">
<rect width="24" height="24" fill="white" transform="translate(8 8)"/>
</clipPath>
</defs>
</svg>
