<svg width="149" height="44" viewBox="0 0 149 44" fill="none" xmlns="http://www.w3.org/2000/svg">
<path d="M143 0H5.5C4.04131 0 2.64236 0.579463 1.61091 1.61091C0.579463 2.64236 0 4.04131 0 5.5L0 38.5C0 39.9587 0.579463 41.3576 1.61091 42.3891C2.64236 43.4205 4.04131 44 5.5 44H143C144.459 44 145.858 43.4205 146.889 42.3891C147.921 41.3576 148.5 39.9587 148.5 38.5V5.5C148.5 4.04131 147.921 2.64236 146.889 1.61091C145.858 0.579463 144.459 0 143 0V0Z" fill="#272A2C"/>
<path d="M74.954 23.9265C74.0274 23.9287 73.1223 24.2056 72.3531 24.7221C71.5839 25.2387 70.9851 25.9717 70.6325 26.8286C70.2799 27.6854 70.1893 28.6276 70.3721 29.5359C70.5549 30.4443 71.003 31.278 71.6596 31.9317C72.3163 32.5854 73.152 33.0297 74.0612 33.2085C74.9703 33.3872 75.9121 33.2924 76.7673 32.9359C77.6226 32.5795 78.3529 31.9774 78.866 31.2059C79.3791 30.4344 79.6519 29.5281 79.65 28.6015C79.6592 27.9832 79.5439 27.3693 79.3108 26.7965C79.0778 26.2236 78.7318 25.7036 78.2935 25.2673C77.8552 24.8311 77.3335 24.4875 76.7596 24.2572C76.1857 24.0268 75.5713 23.9144 74.953 23.9265H74.954ZM74.954 31.4395C74.3859 31.4792 73.819 31.3471 73.327 31.0604C72.835 30.7737 72.4407 30.3456 72.1952 29.8318C71.9497 29.318 71.8645 28.7422 71.9506 28.1793C72.0367 27.6164 72.2902 27.0924 72.678 26.6754C73.0659 26.2585 73.5702 25.9679 74.1254 25.8414C74.6806 25.7148 75.2611 25.7583 75.7913 25.966C76.3215 26.1737 76.7769 26.5362 77.0984 27.0062C77.4199 27.4762 77.5926 28.0321 77.594 28.6015C77.6116 28.9623 77.5568 29.3229 77.4328 29.6622C77.3088 30.0015 77.1182 30.3125 76.8722 30.577C76.6262 30.8415 76.3297 31.054 76.0003 31.2022C75.6708 31.3503 75.3151 31.431 74.954 31.4395ZM64.702 23.9265C63.7755 23.9289 62.8704 24.2059 62.1014 24.7226C61.3323 25.2393 60.7337 25.9724 60.3812 26.8292C60.0288 27.6861 59.9383 28.6282 60.1212 29.5365C60.3041 30.4448 60.7523 31.2784 61.409 31.932C62.0657 32.5857 62.9014 33.0299 63.8105 33.2085C64.7197 33.3872 65.6613 33.2923 66.5165 32.9358C67.3717 32.5794 68.102 31.9773 68.6151 31.2058C69.1282 30.4343 69.4009 29.528 69.399 28.6015C69.4082 27.9832 69.2929 27.3693 69.0598 26.7965C68.8268 26.2236 68.4808 25.7036 68.0425 25.2673C67.6042 24.8311 67.0825 24.4875 66.5086 24.2572C65.9347 24.0268 65.3203 23.9144 64.702 23.9265ZM64.702 31.4395C64.1339 31.4792 63.567 31.3471 63.075 31.0604C62.583 30.7737 62.1887 30.3456 61.9432 29.8318C61.6977 29.318 61.6125 28.7422 61.6986 28.1793C61.7847 27.6164 62.0382 27.0924 62.426 26.6754C62.8139 26.2585 63.3182 25.9679 63.8734 25.8414C64.4286 25.7148 65.0091 25.7583 65.5393 25.966C66.0695 26.1737 66.5249 26.5362 66.8464 27.0062C67.1679 27.4762 67.3406 28.0321 67.342 28.6015C67.3596 28.9623 67.3048 29.3229 67.1808 29.6622C67.0568 30.0015 66.8662 30.3125 66.6202 30.577C66.3742 30.8415 66.0777 31.054 65.7483 31.2022C65.4188 31.3503 65.0631 31.431 64.702 31.4395ZM52.514 25.3675V27.3475H57.266C57.1915 28.2801 56.8038 29.1601 56.166 29.8445C55.6893 30.3302 55.116 30.7104 54.4831 30.9606C53.8502 31.2107 53.1719 31.3251 52.492 31.2965C51.0916 31.2965 49.7486 30.7402 48.7584 29.75C47.7683 28.7598 47.212 27.4168 47.212 26.0165C47.212 24.6162 47.7683 23.2732 48.7584 22.283C49.7486 21.2928 51.0916 20.7365 52.492 20.7365C53.8345 20.7165 55.1308 21.2264 56.1 22.1555L57.497 20.7585C56.8414 20.1101 56.0629 19.599 55.2073 19.2552C54.3516 18.9114 53.436 18.7419 52.514 18.7565C51.534 18.715 50.5558 18.8723 49.6381 19.2187C48.7205 19.5651 47.8824 20.0936 47.1743 20.7724C46.4663 21.4511 45.9028 22.2661 45.5179 23.1683C45.133 24.0704 44.9346 25.0411 44.9346 26.022C44.9346 27.0029 45.133 27.9736 45.5179 28.8757C45.9028 29.7779 46.4663 30.5929 47.1743 31.2716C47.8824 31.9504 48.7205 32.4789 49.6381 32.8253C50.5558 33.1717 51.534 33.329 52.514 33.2875C53.4548 33.3249 54.3928 33.163 55.2666 32.8123C56.1404 32.4615 56.9301 31.93 57.584 31.2525C58.7395 29.9837 59.3553 28.3147 59.301 26.5995C59.3046 26.1867 59.2711 25.7743 59.201 25.3675H52.514ZM102.355 26.9075C102.068 26.0637 101.531 25.3269 100.816 24.7946C100.101 24.2623 99.2417 23.9596 98.351 23.9265C97.7493 23.9253 97.1537 24.0476 96.6011 24.2857C96.0485 24.5238 95.5507 24.8727 95.1383 25.3109C94.7259 25.749 94.4078 26.2671 94.2035 26.8331C93.9993 27.3991 93.9134 28.001 93.951 28.6015C93.9416 29.6056 94.2573 30.5859 94.8509 31.3958C95.4445 32.2057 96.2843 32.8018 97.2447 33.0952C98.205 33.3885 99.2346 33.3632 100.179 33.0232C101.124 32.6831 101.934 32.0465 102.487 31.2085L100.892 30.1085C100.654 30.505 100.317 30.8324 99.9133 31.0582C99.5098 31.284 99.0543 31.4003 98.592 31.3955C98.1153 31.4151 97.6439 31.2901 97.2397 31.0368C96.8354 30.7836 96.5173 30.4139 96.327 29.9765L102.586 27.3915L102.355 26.9075ZM95.975 28.4695C95.9527 28.1278 95.9988 27.7851 96.1106 27.4615C96.2224 27.1378 96.3976 26.8397 96.6261 26.5847C96.8545 26.3296 97.1315 26.1227 97.4409 25.976C97.7503 25.8293 98.0859 25.7459 98.428 25.7305C98.7824 25.7089 99.1353 25.7923 99.4425 25.9704C99.7497 26.1484 99.9976 26.4132 100.155 26.7315L95.975 28.4695ZM90.893 33.0015H92.95V19.2515H90.893V33.0015ZM87.527 24.9715H87.45C87.1376 24.6315 86.7562 24.3624 86.3311 24.1821C85.9061 24.0019 85.4475 23.9147 84.986 23.9265C83.7839 23.9848 82.6503 24.5034 81.8201 25.3747C80.99 26.2461 80.5269 27.4035 80.5269 28.607C80.5269 29.8105 80.99 30.9679 81.8201 31.8393C82.6503 32.7106 83.7839 33.2292 84.986 33.2875C85.4523 33.2969 85.915 33.2031 86.3409 33.013C86.7669 32.8228 87.1456 32.5409 87.45 32.1875H87.527V32.8585C87.527 34.6515 86.57 35.6085 85.03 35.6085C84.5155 35.5972 84.0161 35.4333 83.595 35.1375C83.1739 34.8418 82.8502 34.4276 82.665 33.9475L80.883 34.6845C81.2124 35.512 81.7853 36.22 82.5257 36.7149C83.2662 37.2099 84.1394 37.4685 85.03 37.4565C87.439 37.4565 89.43 36.0375 89.43 32.5835V24.2015H87.527V24.9715ZM85.162 31.4395C84.4384 31.3987 83.7578 31.0825 83.2599 30.5558C82.7621 30.0291 82.4847 29.3318 82.4847 28.607C82.4847 27.8822 82.7621 27.1849 83.2599 26.6582C83.7578 26.1315 84.4384 25.8153 85.162 25.7745C85.5142 25.7897 85.8598 25.8756 86.1782 26.0271C86.4966 26.1786 86.7813 26.3926 87.0153 26.6563C87.2492 26.9201 87.4278 27.2282 87.5403 27.5624C87.6527 27.8966 87.6968 28.2499 87.67 28.6015C87.7 28.9543 87.6581 29.3094 87.547 29.6456C87.4358 29.9817 87.2576 30.2918 87.0231 30.5571C86.7887 30.8224 86.5029 31.0373 86.183 31.189C85.8631 31.3407 85.5157 31.4259 85.162 31.4395ZM111.99 19.2515H107.062V33.0015H109.119V27.7875H111.99C112.575 27.8276 113.162 27.7469 113.715 27.5506C114.267 27.3542 114.774 27.0464 115.202 26.6462C115.631 26.2459 115.972 25.7618 116.206 25.224C116.44 24.6861 116.56 24.1059 116.56 23.5195C116.56 22.9331 116.44 22.3529 116.206 21.8151C115.972 21.2772 115.631 20.7931 115.202 20.3929C114.774 19.9926 114.267 19.6848 113.715 19.4884C113.162 19.2921 112.575 19.2114 111.99 19.2515ZM111.99 25.8515H109.119V21.1655H112.034C112.5 21.1648 112.955 21.3024 113.343 21.5609C113.73 21.8194 114.033 22.1872 114.211 22.6176C114.389 23.048 114.435 23.5216 114.344 23.9784C114.253 24.4352 114.028 24.8547 113.698 25.1835C113.257 25.6255 112.658 25.8735 112.034 25.8735L111.99 25.8515ZM124.684 23.8825C123.935 23.8366 123.189 24.0111 122.538 24.3845C121.887 24.7578 121.36 25.3137 121.021 25.9835L122.836 26.7425C123.019 26.4115 123.294 26.1407 123.628 25.9631C123.962 25.7854 124.34 25.7084 124.717 25.7415C124.978 25.7107 125.243 25.7323 125.496 25.8051C125.748 25.8778 125.984 26.0002 126.189 26.1651C126.394 26.33 126.564 26.5341 126.689 26.7655C126.814 26.9968 126.891 27.2508 126.917 27.5125V27.6445C126.255 27.2969 125.519 27.1157 124.772 27.1165C122.814 27.1165 120.812 28.2165 120.812 30.2185C120.831 30.6441 120.935 31.0616 121.119 31.446C121.303 31.8303 121.562 32.1737 121.882 32.4555C122.201 32.7378 122.573 32.9531 122.977 33.0885C123.381 33.2239 123.808 33.2766 124.233 33.2435C124.749 33.2724 125.264 33.1633 125.724 32.9274C126.184 32.6916 126.573 32.3375 126.851 31.9015H126.917V33.0015H128.897V27.7105C128.897 25.3015 127.071 23.9045 124.728 23.9045L124.684 23.8825ZM124.431 31.4175C123.76 31.4175 122.825 31.0765 122.825 30.2515C122.825 29.1515 123.991 28.7775 125.025 28.7775C125.678 28.7615 126.324 28.921 126.895 29.2395C126.826 29.8369 126.543 30.389 126.098 30.7935C125.653 31.198 125.076 31.4275 124.475 31.4395L124.431 31.4175ZM136.113 24.2015L133.759 30.1635H133.693L131.251 24.2015H129.051L132.714 32.5395L130.624 37.1705H132.824L138.401 24.2015H136.113ZM117.633 33.0015H119.679V19.2515H117.633V33.0015Z" fill="white"/>
<path d="M11.4842 8.29575C11.1336 8.72921 10.9606 9.27963 11.0002 9.83575V34.1678C10.9628 34.7292 11.1486 35.2826 11.5172 35.7078L11.5942 35.7957L25.1902 22.1668V21.8367L11.5612 8.21875L11.4842 8.29575Z" fill="url(#paint0_linear_307_1336)"/>
<path d="M29.6999 26.708L25.1899 22.165V21.835L29.6999 17.292L29.7989 17.358L35.1989 20.416C36.7389 21.285 36.7389 22.715 35.1989 23.595L29.8209 26.653L29.6999 26.708Z" fill="url(#paint1_linear_307_1336)"/>
<path d="M29.8319 26.642L25.1899 22L11.4839 35.706C11.7947 35.9827 12.1926 36.1419 12.6085 36.1559C13.0244 36.17 13.4321 36.038 13.7609 35.783L29.8309 26.642" fill="url(#paint2_linear_307_1336)"/>
<path d="M29.8319 17.3562L13.7599 8.22616C13.4332 7.96757 13.0259 7.83242 12.6094 7.84449C12.1929 7.85657 11.7941 8.01508 11.4829 8.29216L25.1899 21.9982L29.8319 17.3562Z" fill="url(#paint3_linear_307_1336)"/>
<path opacity="0.2" d="M29.6999 26.543L13.7599 35.618C13.443 35.8571 13.0569 35.9865 12.6599 35.9865C12.2629 35.9865 11.8767 35.8571 11.5599 35.618L11.4839 35.695L11.5609 35.783C11.8777 36.0221 12.2639 36.1515 12.6609 36.1515C13.0579 36.1515 13.444 36.0221 13.7609 35.783L29.8309 26.642L29.6999 26.543Z" fill="#272A2C"/>
<path opacity="0.12" d="M11.484 35.552C11.1306 35.1157 10.9575 34.5608 11 34.001V34.166C10.9624 34.7274 11.1482 35.281 11.517 35.706L11.594 35.629L11.484 35.552ZM35.2 23.43L29.7 26.543L29.8 26.642L35.2 23.584C35.5188 23.4492 35.7953 23.2309 36.0005 22.9522C36.2057 22.6734 36.332 22.3445 36.366 22C36.2972 22.313 36.1558 22.6055 35.9533 22.8539C35.7508 23.1023 35.4927 23.2996 35.2 23.43Z" fill="#272A2C"/>
<path opacity="0.25" d="M13.761 8.38383L35.2 20.5718C35.4927 20.7023 35.7507 20.8996 35.9533 21.148C36.1558 21.3964 36.2972 21.6888 36.366 22.0018C36.332 21.6574 36.2058 21.3284 36.0006 21.0497C35.7954 20.7709 35.5188 20.5526 35.2 20.4178L13.761 8.22983C12.232 7.34983 11 8.07583 11 9.83583V10.0018C11 8.24183 12.232 7.51583 13.761 8.38483V8.38383Z" fill="white"/>
<path d="M46.3201 15.697H45.5181V13.497H46.2001C46.5069 13.1638 46.7377 12.768 46.8763 12.3368C47.015 11.9057 47.0582 11.4495 47.0031 11V7.69996H51.4031V13.486H52.1401V15.686H51.3261V14.3H46.3201V15.697ZM47.8501 11C47.8991 11.8836 47.6806 12.7615 47.2231 13.519H50.5231V8.51396H47.8501V11ZM58.7511 13.442C58.4333 13.7598 58.056 14.0119 57.6408 14.184C57.2256 14.356 56.7805 14.4445 56.3311 14.4445C55.8816 14.4445 55.4366 14.356 55.0213 14.184C54.6061 14.0119 54.2288 13.7598 53.9111 13.442C53.5952 13.1199 53.3469 12.738 53.1807 12.3186C53.0145 11.8993 52.9337 11.4509 52.9431 11C52.9322 10.5497 53.0112 10.1018 53.1755 9.68253C53.3398 9.26322 53.5862 8.8809 53.9001 8.55796C54.2177 8.23987 54.5949 7.98753 55.0102 7.81536C55.4254 7.64319 55.8705 7.55457 56.3201 7.55457C56.7696 7.55457 57.2147 7.64319 57.63 7.81536C58.0452 7.98753 58.4224 8.23987 58.7401 8.55796C59.0598 8.87824 59.3122 9.25934 59.4822 9.67877C59.6522 10.0982 59.7365 10.5474 59.7301 11C59.7432 11.4524 59.6631 11.9027 59.4947 12.3228C59.3263 12.743 59.0731 13.1239 58.7511 13.442ZM54.5381 12.892C54.7698 13.1327 55.0486 13.3233 55.357 13.4519C55.6654 13.5806 55.9969 13.6446 56.3311 13.64C56.6655 13.6466 56.9976 13.5835 57.3063 13.4547C57.615 13.3259 57.8935 13.1343 58.1241 12.892C58.3698 12.6438 58.5621 12.3479 58.6888 12.0224C58.8156 11.697 58.8742 11.349 58.8611 11C58.8743 10.6509 58.8158 10.3029 58.689 9.97744C58.5622 9.65198 58.3699 9.35603 58.1241 9.10796C57.8935 8.86568 57.615 8.67406 57.3063 8.54528C56.9976 8.4165 56.6655 8.35339 56.3311 8.35996C55.9969 8.35532 55.6654 8.41931 55.357 8.54798C55.0486 8.67664 54.7698 8.86723 54.5381 9.10796C54.2958 9.35816 54.1067 9.65472 53.9819 9.97985C53.8572 10.305 53.7994 10.6519 53.8121 11C53.7994 11.348 53.8572 11.6949 53.9819 12.0201C54.1067 12.3452 54.2958 12.6418 54.5381 12.892ZM63.9981 14.443C63.5439 14.4523 63.0925 14.3695 62.6712 14.1996C62.2499 14.0297 61.8673 13.7763 61.5466 13.4546C61.2259 13.1328 60.9737 12.7495 60.8052 12.3276C60.6366 11.9057 60.5553 11.4541 60.5661 11C60.557 10.5398 60.6443 10.0829 60.8224 9.65858C61.0005 9.23423 61.2654 8.85183 61.6001 8.53596C61.9182 8.21403 62.2992 7.96099 62.7193 7.79257C63.1394 7.62415 63.5896 7.54395 64.0421 7.55696C64.5026 7.54393 64.96 7.63625 65.3794 7.82689C65.7988 8.01752 66.1691 8.30143 66.4621 8.65696L65.8791 9.22896C65.663 8.95112 65.3833 8.72918 65.0637 8.5818C64.744 8.43442 64.3937 8.36588 64.0421 8.38196C63.7035 8.37332 63.3667 8.43427 63.0526 8.56104C62.7385 8.68781 62.4538 8.8777 62.2161 9.11896C61.9634 9.36179 61.7637 9.65424 61.6295 9.97794C61.4953 10.3016 61.4294 10.6496 61.4361 11C61.4137 11.5219 61.5527 12.0382 61.8341 12.4783C62.1156 12.9185 62.5258 13.2613 63.0091 13.46C63.3231 13.588 63.6591 13.649 63.9991 13.64C64.3826 13.6382 64.761 13.5515 65.107 13.386C65.453 13.2205 65.758 12.9804 66.0001 12.683L66.5941 13.266C66.2928 13.6271 65.9177 13.9196 65.4941 14.124C65.0261 14.343 64.5141 14.452 63.9981 14.443ZM70.0491 14.3H69.2001V8.51396H67.3531V7.69996H71.8841V8.51396H70.0471V14.3H70.0491ZM77.7151 7.69996L75.2181 13.266C75.1574 13.489 75.0489 13.6962 74.9002 13.8733C74.7515 14.0503 74.5662 14.1929 74.357 14.2912C74.1477 14.3896 73.9196 14.4413 73.6885 14.4428C73.4573 14.4443 73.2285 14.3956 73.0181 14.3L73.2381 13.519C73.3727 13.5946 73.5237 13.6361 73.6781 13.64C73.8408 13.6481 74.0022 13.6059 74.1401 13.519C74.2741 13.408 74.3761 13.264 74.4371 13.101L74.6791 12.573L72.4571 7.69996H73.4581L75.0861 11.484L76.7141 7.69996H77.7151ZM78.6721 14.3V7.69996H83.4461V14.3H82.5991V8.51396H79.5191V14.3H78.6721ZM84.9531 14.3V7.69996H85.8001V10.527H89.1001V7.69996H89.9581V14.3H89.1001V11.319H85.8001V14.3H84.9531ZM96.8661 13.442C96.4677 13.8405 95.977 14.1344 95.4377 14.2976C94.8984 14.4608 94.3271 14.4882 93.7746 14.3773C93.2221 14.2665 92.7056 14.0209 92.2709 13.6623C91.8362 13.3037 91.4969 12.8433 91.2831 12.322C91.1146 11.9021 91.0343 11.4521 91.0471 11C91.0342 10.5475 91.1146 10.0972 91.2831 9.67705C91.4517 9.25695 91.705 8.87602 92.0271 8.55796C92.3438 8.24048 92.7201 7.9886 93.1343 7.81674C93.5485 7.64488 93.9926 7.55642 94.4411 7.55642C94.8895 7.55642 95.3336 7.64488 95.7478 7.81674C96.1621 7.9886 96.5383 8.24048 96.8551 8.55796C97.1772 8.87602 97.4304 9.25695 97.599 9.67705C97.7676 10.0972 97.8479 10.5475 97.8351 11C97.8494 11.4517 97.7707 11.9015 97.6041 12.3215C97.4374 12.7416 97.1862 13.123 96.8661 13.442ZM92.6531 12.892C92.8835 13.1344 93.162 13.3261 93.4707 13.4549C93.7795 13.5837 94.1116 13.6467 94.4461 13.64C94.7802 13.6447 95.1118 13.5808 95.4202 13.4521C95.7286 13.3234 96.0074 13.1328 96.2391 12.892C96.4812 12.6417 96.6704 12.3451 96.7951 12.02C96.9199 11.6949 96.9777 11.348 96.9651 11C96.9777 10.6519 96.9199 10.305 96.7952 9.97985C96.6704 9.65472 96.4813 9.35816 96.2391 9.10796C96.0073 8.86723 95.7286 8.67664 95.4202 8.54798C95.1117 8.41931 94.7802 8.35532 94.4461 8.35996C94.1117 8.35339 93.7795 8.4165 93.4709 8.54528C93.1622 8.67406 92.8837 8.86568 92.6531 9.10796C92.4073 9.3561 92.2151 9.65206 92.0883 9.9775C91.9615 10.3029 91.9029 10.6509 91.9161 11C91.9028 11.349 91.9614 11.697 92.0881 12.0225C92.2149 12.3479 92.4072 12.6439 92.6531 12.892ZM101.299 14.3V7.69996H103.686C104.181 7.69499 104.66 7.87551 105.028 8.20596C105.212 8.36543 105.358 8.56338 105.457 8.78579C105.556 9.0082 105.605 9.24962 105.6 9.49296C105.602 9.78896 105.518 10.08 105.358 10.329C105.196 10.5653 104.971 10.7522 104.709 10.869C105.025 10.974 105.301 11.173 105.501 11.44C105.711 11.706 105.823 12.036 105.82 12.375C105.825 12.6285 105.775 12.8801 105.672 13.112C105.57 13.3439 105.417 13.5504 105.226 13.717C104.844 14.0725 104.34 14.2661 103.818 14.257L101.299 14.3ZM102.146 10.527H103.686C103.83 10.5354 103.974 10.5111 104.108 10.4559C104.241 10.4006 104.36 10.3159 104.456 10.208C104.642 10.0249 104.749 9.776 104.753 9.51496C104.763 9.25296 104.673 8.99696 104.5 8.79996C104.407 8.69787 104.293 8.61738 104.166 8.56416C104.038 8.51095 103.901 8.4863 103.763 8.49196H102.146V10.527ZM102.146 13.487H103.851C104.002 13.4931 104.152 13.4656 104.291 13.4065C104.43 13.3473 104.554 13.258 104.654 13.145C104.844 12.9421 104.95 12.6749 104.951 12.397C104.946 12.1825 104.879 11.9741 104.757 11.7973C104.635 11.6206 104.465 11.4832 104.266 11.402C104.124 11.3432 103.972 11.3149 103.818 11.319H102.146V13.486V13.487Z" fill="white" stroke="white" stroke-width="0.2" stroke-miterlimit="10"/>
<defs>
<linearGradient id="paint0_linear_307_1336" x1="23.9802" y1="9.58275" x2="5.5222" y2="28.0408" gradientUnits="userSpaceOnUse">
<stop stop-color="#00A0FF"/>
<stop offset="0.01" stop-color="#00A1FF"/>
<stop offset="0.26" stop-color="#00BEFF"/>
<stop offset="0.51" stop-color="#00D2FF"/>
<stop offset="0.76" stop-color="#00DFFF"/>
<stop offset="1" stop-color="#00E3FF"/>
</linearGradient>
<linearGradient id="paint1_linear_307_1336" x1="37.2129" y1="22" x2="10.6039" y2="22" gradientUnits="userSpaceOnUse">
<stop stop-color="#FFE000"/>
<stop offset="0.41" stop-color="#FFBD00"/>
<stop offset="0.78" stop-color="#FFA500"/>
<stop offset="1" stop-color="#FF9C00"/>
</linearGradient>
<linearGradient id="paint2_linear_307_1336" x1="27.3129" y1="24.53" x2="2.27689" y2="49.555" gradientUnits="userSpaceOnUse">
<stop stop-color="#FF3A44"/>
<stop offset="1" stop-color="#C31162"/>
</linearGradient>
<linearGradient id="paint3_linear_307_1336" x1="8.02991" y1="0.196159" x2="19.2059" y2="11.3722" gradientUnits="userSpaceOnUse">
<stop stop-color="#32A071"/>
<stop offset="0.07" stop-color="#2DA771"/>
<stop offset="0.48" stop-color="#15CF74"/>
<stop offset="0.8" stop-color="#06E775"/>
<stop offset="1" stop-color="#00F076"/>
</linearGradient>
</defs>
</svg>
