<svg width="44" height="44" viewBox="0 0 44 44" fill="none" xmlns="http://www.w3.org/2000/svg">
<path d="M22.0001 42.9C33.5429 42.9 42.9001 33.5427 42.9001 22C42.9001 10.4572 33.5429 1.09998 22.0001 1.09998C10.4573 1.09998 1.1001 10.4572 1.1001 22C1.1001 33.5427 10.4573 42.9 22.0001 42.9Z" stroke="#F2F2F2" stroke-width="1.5"/>
<path fill-rule="evenodd" clip-rule="evenodd" d="M17.9184 12.1586C18.9744 12.1117 19.3117 12.1 22.0016 12.1H21.9986C24.687 12.1 25.0229 12.1117 26.0804 12.1586C27.1334 12.2085 27.8536 12.3742 28.4857 12.6192C29.1462 12.8677 29.7444 13.2576 30.2384 13.7617C30.7884 14.3117 31.1272 14.8646 31.3809 15.5158C31.6244 16.145 31.7916 16.8652 31.84 17.9182C31.8884 18.9742 31.9001 19.3116 31.9001 22C31.9001 24.6884 31.8884 25.0257 31.8414 26.0817C31.7901 27.1348 31.6244 27.8549 31.3809 28.4841C31.1272 29.1353 30.7884 29.6868 30.2369 30.2382C29.7433 30.7421 29.1457 31.132 28.4857 31.3808C27.855 31.6257 27.1364 31.7914 26.0804 31.8398C25.0244 31.8882 24.6885 31.9 22.0001 31.9C19.3117 31.9 18.9744 31.8882 17.9184 31.8413C16.8638 31.7914 16.1437 31.6257 15.5145 31.3808C14.8539 31.1316 14.2558 30.7412 13.7618 30.2368C13.258 29.7426 12.8681 29.1445 12.6193 28.4841C12.3758 27.8534 12.2086 27.1348 12.1602 26.0817C12.1118 25.0257 12.1001 24.6884 12.1001 22C12.1001 19.3116 12.1118 18.9742 12.1588 17.9182C12.2072 16.8637 12.3744 16.1436 12.6193 15.5144C12.873 14.8632 13.2118 14.3117 13.7633 13.7617C14.2574 13.2578 14.8555 12.8679 15.516 12.6192C16.1466 12.3742 16.8653 12.2085 17.9184 12.1601V12.1586ZM21.6701 13.8849H21.1113V13.882C19.2662 13.8849 18.9113 13.8966 17.999 13.9377C17.034 13.9817 16.5104 14.143 16.1613 14.2794C15.6993 14.4584 15.3693 14.674 15.0217 15.0201C14.6929 15.3394 14.4398 15.7283 14.281 16.1582C14.1461 16.5073 13.9848 17.0309 13.9408 17.9974C13.8924 19.0402 13.8821 19.3526 13.8821 21.9956C13.8821 24.64 13.8924 24.9538 13.9408 25.9966C13.9848 26.9617 14.1461 27.4853 14.281 27.8344C14.4614 28.2964 14.677 28.6264 15.0217 28.9725C15.3693 29.3186 15.6993 29.5342 16.1613 29.7132C16.5104 29.8481 17.034 30.0094 17.999 30.0534C19.0433 30.1018 19.3557 30.1121 22.0001 30.1121C24.643 30.1121 24.9569 30.1018 25.9997 30.0534C26.9648 30.0094 27.4898 29.8481 27.8374 29.7132C28.3009 29.5342 28.6294 29.3186 28.9756 28.9725C29.3217 28.6264 29.5373 28.2978 29.7162 27.8358C29.8526 27.4868 30.014 26.9632 30.058 25.9981C30.1049 24.9538 30.1166 24.64 30.1166 21.9985C30.1166 19.3556 30.1049 19.0432 30.058 17.9989C30.014 17.0338 29.8526 16.5102 29.7162 16.1612C29.5573 15.7313 29.3042 15.3424 28.9756 15.023C28.6564 14.6941 28.2675 14.4409 27.8374 14.2824C27.4884 14.1474 26.9648 13.9861 25.9997 13.9421C24.9554 13.8937 24.643 13.8834 22.0001 13.8834H21.6701V13.8849Z" fill="#F2F2F2"/>
<path fill-rule="evenodd" clip-rule="evenodd" d="M27.2861 15.5278C26.971 15.5278 26.6688 15.653 26.446 15.8758C26.2232 16.0986 26.0981 16.4008 26.0981 16.7158C26.0981 17.0309 26.2232 17.3331 26.446 17.5559C26.6688 17.7787 26.971 17.9038 27.2861 17.9038C27.6012 17.9038 27.9033 17.7787 28.1261 17.5559C28.3489 17.3331 28.4741 17.0309 28.4741 16.7158C28.4741 16.4008 28.3489 16.0986 28.1261 15.8758C27.9033 15.653 27.6012 15.5278 27.2861 15.5278ZM16.9167 22.0002C16.9053 21.3253 17.0283 20.6548 17.2787 20.028C17.529 19.4011 17.9017 18.8303 18.375 18.3489C18.8482 17.8676 19.4126 17.4853 20.0351 17.2243C20.6576 16.9633 21.3259 16.8289 22.0009 16.8289C22.676 16.8289 23.3443 16.9633 23.9668 17.2243C24.5893 17.4853 25.1537 17.8676 25.6269 18.3489C26.1002 18.8303 26.4729 19.4011 26.7232 20.028C26.9736 20.6548 27.0966 21.3253 27.0851 22.0002C27.0625 23.3337 26.5169 24.6049 25.5659 25.5399C24.6149 26.4749 23.3346 26.9988 22.0009 26.9988C20.6673 26.9988 19.387 26.4749 18.436 25.5399C17.485 24.6049 16.9394 23.3337 16.9167 22.0002ZM25.2973 22.0002C25.2973 21.125 24.9496 20.2856 24.3307 19.6668C23.7119 19.0479 22.8725 18.7002 21.9973 18.7002C21.1221 18.7002 20.2827 19.0479 19.6638 19.6668C19.045 20.2856 18.6973 21.125 18.6973 22.0002C18.6973 22.8754 19.045 23.7148 19.6638 24.3337C20.2827 24.9526 21.1221 25.3002 21.9973 25.3002C22.8725 25.3002 23.7119 24.9526 24.3307 24.3337C24.9496 23.7148 25.2973 22.8754 25.2973 22.0002Z" fill="#F2F2F2"/>
</svg>
