<svg width="60" height="60" viewBox="0 0 60 60" fill="none" xmlns="http://www.w3.org/2000/svg">
<path d="M27 20L22.5 18L20 17.5L16 18L13 20.5L12.5 24L14.5 27.5L21 29L26.5 27L28.5 23.5L27 20Z" fill="#E8A200"/>
<path fill-rule="evenodd" clip-rule="evenodd" d="M17.6298 8.06516C13.1096 8.62952 9.72212 9.79659 6.64055 11.8511C3.27115 14.0974 1.10468 16.8952 0.204858 20.1624C0.0177473 20.8414 0 21.7457 0 30.5814V40.2568L0.336964 41.2597C1.3046 44.1391 3.30511 46.7497 6.05712 48.7244C8.30433 50.3368 11.6279 51.7474 14.6935 52.3899C17.6451 53.0084 17.3106 53 39.0596 53H59.3141L59.657 52.6146L60 52.2293V44.3416C60 36.574 59.9964 36.4491 59.7596 36.147C59.6273 35.9782 59.3232 35.7856 59.0838 35.7188C58.8032 35.6405 55.5032 35.5971 49.8041 35.5968L40.9598 35.5961V28.8859C40.9598 23.4382 40.9265 21.9786 40.7821 21.1279C39.6658 14.5456 32.7743 9.27954 23.8047 8.15472C22.5868 8.00192 18.5988 7.9441 17.6298 8.06516ZM22.331 10.4632C25.6901 10.7345 28.3408 11.4393 31.0284 12.7756C36.7589 15.6248 39.5979 20.5945 38.2559 25.4276C37.3999 28.5105 34.7518 31.4027 31.1175 33.2244C27.82 34.877 24.5575 35.6059 20.4471 35.6081C16.6414 35.6102 13.3424 34.9031 10.2041 33.4125C1.79577 29.4191 -0.18664 21.352 5.82805 15.6057C8.81312 12.7538 13.3725 10.876 18.2762 10.4785C20.027 10.3365 20.7298 10.3339 22.331 10.4632ZM19.2491 16.2533C16.1401 16.5553 13.4071 18.1387 12.1342 20.375C11.1788 22.0538 11.2443 24.2811 12.2981 25.9417C12.9272 26.933 14.2606 28.0844 15.4742 28.6843C17.2467 29.5603 18.0966 29.7407 20.4505 29.7407C22.145 29.7407 22.5915 29.7013 23.3888 29.4813C25.2993 28.9545 27.1801 27.8159 28.1599 26.593C32.0917 21.686 26.779 15.5215 19.2491 16.2533ZM22.7406 18.902C24.4793 19.3247 26.2305 20.5455 26.8003 21.7319C27.1283 22.415 27.1113 23.6921 26.7653 24.3506C26.1357 25.5492 24.5555 26.6439 22.7777 27.1132C21.5951 27.4254 19.5185 27.4517 18.335 27.1694C16.4576 26.7217 14.7566 25.5525 14.1399 24.286C13.7902 23.5681 13.7828 22.534 14.1219 21.7834C14.4276 21.1063 15.3559 20.1663 16.1771 19.7021C16.8977 19.2948 18.065 18.8785 18.9226 18.7231C19.7231 18.5781 21.811 18.6759 22.7406 18.902ZM4.18601 32.1212C7.21951 35.0285 11.2159 36.8873 16.3957 37.8002C17.4022 37.9776 19.4892 38.0011 37.5808 38.039L57.6494 38.081V44.3311V50.5811H56.4153H55.1812V47.2898V43.9986L54.8402 43.6321C54.366 43.1223 53.6693 43.1134 53.1741 43.6105L52.8306 43.9554V47.2683V50.5811H50.3624H47.8942V48.6842V46.7872L47.5507 46.4423C47.2967 46.1873 47.0955 46.0974 46.779 46.0974C45.7275 46.0974 45.5436 46.5007 45.5436 48.8054V50.5811H43.1342H40.7248V49.003C40.7248 47.1119 40.6688 46.7814 40.283 46.3941C39.7194 45.8283 38.6453 46.0751 38.383 46.8307C38.3135 47.0309 38.2566 47.9565 38.2566 48.8878V50.5811H35.8472H33.4378V47.462C33.4378 45.7465 33.3882 44.2118 33.3274 44.0515C33.0108 43.2153 32.0892 43.0027 31.4123 43.6098L31.0284 43.9538L30.9922 47.2675L30.956 50.5811H28.6709H26.3859V48.8878C26.3859 47.9565 26.329 47.0309 26.2596 46.8307C25.9972 46.0751 24.9231 45.8283 24.3595 46.3941C23.9737 46.7814 23.9177 47.1119 23.9177 49.003V50.5811H21.5083H19.0989V48.8054C19.0989 46.9293 18.9971 46.4765 18.5177 46.2189C18.1491 46.0208 17.5097 46.0781 17.1795 46.3387C16.7548 46.6743 16.6322 47.2337 16.6315 48.8407C16.6306 50.4398 16.7352 50.3437 15.3162 50.0478C11.309 49.2122 7.71291 47.3446 5.40317 44.8996C4.12983 43.5517 3.31416 42.1978 2.74813 40.4928C2.48204 39.6912 2.47287 39.5257 2.43549 34.8991L2.39694 30.1313L2.85755 30.7103C3.11083 31.0288 3.7086 31.6636 4.18601 32.1212ZM38.6092 32.8822V35.5961L35.1714 35.5941L31.7336 35.5922L32.7078 35.067C34.4177 34.1453 35.4498 33.3514 37.0225 31.7481C37.8629 30.8913 38.5637 30.1854 38.5798 30.1794C38.5959 30.1733 38.6092 31.3896 38.6092 32.8822Z" fill="#05141F"/>
</svg>
