<svg width="188" height="129" viewBox="0 0 188 129" fill="none" xmlns="http://www.w3.org/2000/svg">
<path fill-rule="evenodd" clip-rule="evenodd" d="M57.5989 0.53651C44.8292 1.81763 34.6819 4.57447 25.1266 9.35966C11.1089 16.3795 2.38009 26.3744 0.43767 37.6298C0.0143031 40.0844 -0.0598688 45.3749 0.0389046 66.0905C0.159709 91.3317 0.16742 91.5582 0.994694 94.2707C4.28653 105.061 12.6628 113.698 26.1188 120.175C35.4846 124.684 45.0311 127.281 56.4444 128.425C58.9071 128.671 82.0793 128.806 122.208 128.806H184.17L185.418 127.972C188.048 126.215 187.949 127.254 187.95 101.317C187.95 78.0762 187.95 78.0487 187.148 76.6233C186.637 75.7141 185.796 74.9302 184.829 74.462C183.358 73.75 182.562 73.7276 158.643 73.7276H133.974V56.2668C133.974 36.2382 133.929 35.835 131.021 29.7981C123.736 14.6762 104.115 3.73728 79.0815 0.842011C74.7722 0.34337 61.4161 0.153534 57.5989 0.53651ZM78.5396 11.8698C100.537 14.5781 117.888 24.5796 122.118 36.9876C123.12 39.9262 123.231 44.3857 122.376 47.3151C120.331 54.3177 112.982 61.4933 103.023 66.2109C93.4389 70.7508 82.5643 73.1915 70.0832 73.6035C48.5558 74.3148 28.526 67.9602 17.759 57.0037C8.69829 47.7833 8.7563 37.0283 17.9165 27.787C26.3909 19.2374 41.0736 13.2864 57.966 11.5551C61.7767 11.1644 74.3775 11.3572 78.5396 11.8698ZM61.6379 26.5951C61.133 26.6692 59.4807 26.912 57.966 27.1345C49.3298 28.4024 41.8124 32.654 39.3537 37.661C37.9448 40.5298 37.8897 44.3875 39.2189 47.1065C43.8135 56.5058 63.2587 61.2293 79.9385 56.9982C86.8325 55.2493 92.6359 51.4786 94.6797 47.4205C95.725 45.344 96.0779 41.6589 95.4533 39.3387C94.2343 34.8109 88.3504 30.2548 81.0658 28.1975C75.9535 26.7533 66.0974 25.9407 61.6379 26.5951ZM76.5997 38.4512C79.7997 39.2428 83.548 40.9348 84.4146 41.9795C84.8739 42.5325 84.8086 42.7029 83.8421 43.4747C80.2015 46.3824 70.3057 48.1912 62.7395 47.3316C56.8788 46.6659 51.6273 44.9188 49.8721 43.051L49.0639 42.1903L50.8529 41.0534C52.8519 39.783 57.3774 38.2702 60.72 37.755C64.3044 37.2024 73.1122 37.5887 76.5997 38.4512ZM18.3098 71.6963C26.8928 77.4325 38.3175 81.5432 51.7239 83.7184C56.57 84.505 57.5827 84.5255 96.9797 84.6496L137.279 84.7763V101.283V117.79H131.587H125.896V107.747C125.896 97.9359 125.877 97.6752 125.07 96.4896C123.733 94.5262 122.456 93.7816 120.425 93.7816C119.013 93.7816 118.328 94.0063 117.263 94.8189C114.987 96.5553 114.88 97.1457 114.88 108.048V117.79H109.556H104.232V112.337C104.232 107.278 104.171 106.793 103.398 105.635C101.754 103.174 98.414 102.388 96.1499 103.929C93.6126 105.656 93.4121 106.241 93.2814 112.308L93.1632 117.79H87.8654H82.5676V107.644C82.5676 97.9829 82.5309 97.4384 81.7976 96.2524C79.7135 92.8798 74.5302 93.0211 72.4828 96.5061C71.7892 97.687 71.7275 98.4974 71.6221 107.784L71.5087 117.79H66.4235H61.3379L61.2127 112.308C61.0739 106.243 60.8716 105.654 58.3369 103.929C56.0728 102.388 52.7325 103.174 51.0886 105.635C50.3293 106.772 50.2551 107.306 50.2551 111.635V116.386L48.7456 116.131C47.915 115.991 45.5606 115.431 43.5132 114.887L39.7903 113.898L39.6067 105.625L39.4231 97.3521L38.4195 96.0376C37.0437 94.2347 34.7216 93.3597 32.734 93.895C31.15 94.3213 29.4396 95.7839 28.9149 97.1597C28.7368 97.6271 28.591 100.478 28.591 103.494C28.591 106.51 28.4548 108.978 28.2885 108.978C28.1218 108.978 26.4283 107.96 24.5248 106.716C19.9489 103.726 15.2427 98.978 13.4482 95.5415C11.1122 91.0673 10.966 89.9937 10.966 77.2971V65.9664L13.0774 67.7884C14.2388 68.7904 16.5932 70.5492 18.3098 71.6963ZM122.839 73.6024C122.758 73.6832 120.499 73.7034 117.819 73.6468L112.947 73.544L115.841 71.6486C117.433 70.6062 119.644 68.9707 120.755 68.0146L122.775 66.2759L122.88 69.8655C122.938 71.8399 122.92 73.5213 122.839 73.6024ZM176.935 101.083V117.423H162.614H148.294V101.328C148.294 92.4755 148.404 85.1226 148.539 84.9882C148.673 84.8534 155.118 84.7433 162.859 84.7433H176.935V101.083ZM160.779 95.804C157.442 97.1347 156.048 101.374 158.002 104.25C160.87 108.471 167.455 107.036 168.306 102.004C168.977 98.0277 164.484 94.3268 160.779 95.804Z" fill="white"/>
</svg>
