<svg width="56" height="34" viewBox="0 0 56 34" fill="none" xmlns="http://www.w3.org/2000/svg">
<path fill-rule="evenodd" clip-rule="evenodd" d="M48.7595 6.05742C50.3721 5.8095 51.9833 5.53892 53.5933 5.24708C54.2552 5.12667 54.8737 5.67208 54.9743 6.46542C54.9793 6.51358 54.9844 6.56033 54.987 6.60708L55.9988 29.7597C56.0319 30.5275 55.561 31.1933 54.9246 31.2798C47.6695 32.28 40.3868 33.0151 33.0884 33.4841C26.1012 33.9232 19.203 34.0819 12.3888 33.9601C11.7524 33.9487 11.2306 33.3467 11.1963 32.5831L11.0283 28.7439C8.13534 28.7822 5.25643 28.7765 2.39152 28.7298C2.05936 28.7253 1.74109 28.5807 1.50105 28.3251C1.26102 28.0694 1.11712 27.7219 1.09843 27.3528L0.00134221 4.19167C-0.00779161 3.98831 0.0214861 3.78508 0.0872853 3.5951C0.153085 3.40511 0.253943 3.2326 0.38335 3.08869C0.512757 2.94478 0.667836 2.83268 0.838578 2.75961C1.00932 2.68655 1.19193 2.65415 1.37461 2.6645C8.98424 3.05349 16.6064 3.02701 24.2137 2.58517C31.8373 2.14317 39.4432 1.28892 47.0299 0.0167515C47.2105 -0.0139636 47.3949 -0.00234974 47.5713 0.0508491C47.7476 0.104048 47.9121 0.197659 48.054 0.325687C48.196 0.453715 48.3124 0.613338 48.3958 0.794331C48.4791 0.975325 48.5276 1.1737 48.5381 1.37675L48.7595 6.05742Z" fill="#F83B00"/>
</svg>
