<svg width="60" height="60" viewBox="0 0 60 60" fill="none" xmlns="http://www.w3.org/2000/svg">
<g clip-path="url(#clip0_15_2022)">
<path d="M23 50.5L46 27.5L46.5 25L44.5 21.5L41.5 19.5L37.5 22.5L16 43.5L14 52L14.5 53.5L23 50.5Z" fill="#E8A200"/>
<path fill-rule="evenodd" clip-rule="evenodd" d="M29.0621 0.154725C28.833 0.239003 22.4023 4.43873 14.7717 9.48734C2.34552 17.7089 0.862822 18.722 0.561406 19.197C-0.296535 20.5497 -0.166402 21.9629 0.919213 23.084C1.85863 24.0542 3.24004 24.2548 4.43386 23.5945C4.71605 23.4384 4.96659 23.3107 4.99074 23.3107C5.01489 23.3107 5.03458 31.0543 5.03458 40.5185V57.7262L5.33823 58.3354C5.50529 58.6706 5.83203 59.1015 6.06439 59.293C6.98177 60.0489 5.30048 59.9993 30.0061 59.9993C54.7116 59.9993 53.0303 60.0489 53.9477 59.293C54.1801 59.1015 54.5068 58.6706 54.6739 58.3354L54.9775 57.7262V40.5185C54.9775 31.0543 54.9972 23.3107 55.0214 23.3107C55.0455 23.3107 55.2961 23.4384 55.5783 23.5945C57.6665 24.7494 60.2295 23.0422 59.9836 20.66C59.9037 19.8856 59.4092 18.9484 58.8523 18.516C57.77 17.6753 31.3512 0.304293 30.9282 0.155077C30.3425 -0.051575 29.6223 -0.0516922 29.0621 0.154725ZM37.0536 6.4593C40.6894 8.86657 46.838 12.9348 50.7171 15.4997C56.2062 19.1293 57.8008 20.2377 57.9089 20.4985C58.0804 20.9126 57.9715 21.4591 57.6616 21.7396C57.1488 22.2035 56.8679 22.0721 53.219 19.6607C31.1947 5.10569 30.3507 4.55618 30.0202 4.55618C29.8027 4.55618 29.3056 4.80222 28.6413 5.23862C28.0701 5.61406 22.1424 9.52755 15.4687 13.9355C2.62607 22.4178 2.91212 22.2477 2.34622 21.7357C2.02781 21.4475 1.92335 20.8382 2.12605 20.4513C2.23391 20.2454 6.73921 17.1942 15.824 11.1744C23.2695 6.24081 29.4668 2.15466 29.5957 2.09383C29.7247 2.03311 29.9681 2.00568 30.1367 2.03288C30.3051 2.06019 33.4178 4.05204 37.0536 6.4593ZM41.515 14.3231L52.9259 21.8629L52.958 39.4952C52.9756 49.193 52.9616 57.2452 52.9269 57.3892C52.7694 58.0423 54.091 58.0067 30.0061 58.0067C5.92113 58.0067 7.24274 58.0423 7.08518 57.3892C7.05047 57.2452 7.03652 49.1942 7.05411 39.4979L7.08623 21.8683L18.5031 14.3258C24.7823 10.1774 29.9614 6.78329 30.012 6.78329C30.0627 6.78329 35.2391 10.1762 41.515 14.3231ZM18.2824 18.2794C17.5901 18.592 11.6256 24.5457 11.3045 25.2448C10.9913 25.9266 10.9484 26.8024 11.1915 27.5475C11.3819 28.1311 11.7301 28.5103 16.1554 32.9536L20.9148 37.7319L18.0261 40.6313L15.1375 43.5305L13.8939 47.9132C12.9708 51.1671 12.6689 52.3939 12.7218 52.6759C12.8979 53.6141 13.6319 54.2546 14.5321 54.2553C14.8531 54.2556 16.7379 53.7763 19.3269 53.036L23.5927 51.8164L26.4472 48.9641L29.3016 46.112L33.9622 50.758C37.0052 53.7913 38.7958 55.4903 39.1209 55.6526C39.8529 56.0181 40.5214 56.0751 41.3309 55.8409C42.0008 55.6471 42.1232 55.541 45.1682 52.516C46.8982 50.7974 48.4545 49.1539 48.6267 48.8638C48.8922 48.4165 48.9395 48.2026 48.9375 47.4572C48.9358 46.8374 48.872 46.4571 48.7211 46.1678C48.6032 45.9422 46.3895 43.6353 43.8016 41.0413L39.0963 36.325L43.1548 32.2501C45.6701 29.7246 47.3052 27.992 47.4551 27.6933C47.5882 27.4282 47.759 26.8743 47.8348 26.4626C47.9509 25.8309 47.9421 25.5945 47.7788 24.9518C47.5125 23.9042 47.0333 23.2583 45.1402 21.3953C43.1528 19.4396 42.6494 19.1527 41.2022 19.1507C39.5031 19.1486 39.6309 19.0551 34.9005 23.7626L30.709 27.9338L25.8732 23.1219C20.6076 17.8823 20.7983 18.0331 19.4411 18.0386C19.0629 18.0401 18.5986 18.1366 18.2824 18.2794ZM21.142 21.1951L22.3242 22.3615L21.124 23.581C19.8959 24.8288 19.7791 25.0475 20.06 25.5749C20.265 25.9596 20.5251 26.1161 20.9665 26.1202C21.315 26.1235 21.5125 25.9783 22.5538 24.9539L23.743 23.7838L24.7602 24.8074L25.7773 25.8309L24.9608 26.6669C24.2509 27.3936 24.1442 27.5589 24.1442 27.9322C24.1442 28.4872 24.5673 28.9371 25.0893 28.9371C25.389 28.9371 25.6233 28.7777 26.3292 28.0933L27.1995 27.2495L28.252 28.2969L29.3044 29.3442L25.8751 32.7743C23.989 34.6609 22.3925 36.2045 22.3272 36.2045C22.1859 36.2045 13.4753 27.4836 13.1984 27.0648C12.7818 26.4351 12.8279 26.3719 16.0812 23.1106C18.9088 20.2762 19.188 20.0287 19.5578 20.0287C19.9096 20.0287 20.1077 20.1745 21.142 21.1951ZM41.8801 21.2474C42.0876 21.3375 43.0317 22.1946 43.978 23.1521C45.3996 24.5905 45.7213 24.9798 45.8289 25.3913C46.0442 26.2139 45.8356 26.7077 44.8348 27.7455L43.9682 28.6441L41.18 25.8616L38.392 23.0791L39.204 22.2611C40.3647 21.0916 40.9824 20.8576 41.8801 21.2474ZM41.5255 31.0755L40.5022 32.1035L37.7167 29.3204L34.9314 26.5375L35.9549 25.5094L36.9783 24.4814L39.7637 27.2644L42.549 30.0474L41.5255 31.0755ZM34.5796 28.997L35.5721 29.9945L28.1289 37.432L20.6857 44.8693L19.3495 44.2901C18.6145 43.9713 17.9836 43.6812 17.9477 43.6451C17.8847 43.5822 33.3997 27.9994 33.5254 27.9994C33.5593 27.9994 34.0336 28.4483 34.5796 28.997ZM38.0966 32.5134L39.089 33.5108L31.2945 41.3046C27.0075 45.5911 23.456 49.0838 23.4023 49.0659C23.3486 49.048 23.0369 48.4102 22.7096 47.6486L22.1144 46.264L29.489 38.8899C33.5451 34.8341 36.9178 31.5159 36.9839 31.5159C37.05 31.5159 37.5507 31.9647 38.0966 32.5134ZM38.9129 40.6113C38.2042 41.3421 38.0954 41.5112 38.0954 41.8823C38.0954 42.4359 38.5191 42.8858 39.0405 42.8858C39.3402 42.8858 39.5745 42.7264 40.2804 42.042L41.1507 41.1982L42.2025 42.2449L43.2543 43.2916L42.0905 44.466C41.4504 45.1118 40.912 45.7459 40.8941 45.8748C40.7937 46.597 41.3894 47.1928 42.0511 47.032C42.2349 46.9873 42.8707 46.4682 43.5235 45.8296L44.6725 44.7058L45.8389 45.8876C46.8501 46.9121 47.0054 47.1219 47.0054 47.4633C47.0054 47.8216 46.7345 48.1288 43.9941 50.8761C40.9002 53.9778 40.629 54.1865 40.066 53.8985C39.9172 53.8224 37.7507 51.7227 35.2517 49.2327L30.7082 44.7053L34.1951 41.2176L37.682 37.7299L38.7062 38.7491L39.7304 39.7683L38.9129 40.6113ZM18.4562 46.0831L20.1757 46.8189L20.9215 48.5512C21.4104 49.6867 21.6194 50.2992 21.5282 50.3291C21.0021 50.5019 19.6991 50.8565 19.5903 50.8565C19.5175 50.8565 19.3852 50.6851 19.2965 50.4755C18.883 49.4991 17.8011 48.3802 16.7121 47.8027C16.4151 47.6451 16.1709 47.4634 16.1695 47.3988C16.1668 47.2751 16.6802 45.3473 16.7158 45.3473C16.7273 45.3473 17.5105 45.6785 18.4562 46.0831ZM16.1252 49.7814C16.8647 50.3176 17.6514 51.3372 17.4431 51.4895C17.3504 51.5572 14.8266 52.2462 14.7932 52.2129C14.7337 52.1535 15.5208 49.4502 15.5976 49.4501C15.6363 49.45 15.8737 49.5991 16.1252 49.7814Z" fill="#05141F"/>
</g>
<defs>
<clipPath id="clip0_15_2022">
<rect width="60" height="60" fill="white"/>
</clipPath>
</defs>
</svg>
