<svg width="60" height="60" viewBox="0 0 60 60" fill="none" xmlns="http://www.w3.org/2000/svg">
<path d="M56.5 27L53.5 13H42L40 20.5L39 27H56.5Z" fill="#E8A200"/>
<path fill-rule="evenodd" clip-rule="evenodd" d="M4.21266 2.1806C3.11343 2.56326 2.33551 3.42889 2.09494 4.53694C2.01202 4.91905 1.98445 6.83683 2.00819 10.5669L2.04309 16.0366L2.33419 16.588C2.70811 17.2964 3.44217 17.9703 4.1281 18.2348C4.64139 18.4328 5.05776 18.4433 12.3812 18.4433C19.5324 18.4433 20.1348 18.4289 20.6594 18.2459C21.4158 17.982 22.1453 17.3185 22.5217 16.5523L22.8286 15.9272V10.2388V4.55029L22.5428 3.94862C22.2003 3.22761 21.6102 2.61971 20.9251 2.28223L20.4219 2.03423L12.6 2.00896C5.31309 1.98544 4.7393 1.99726 4.21266 2.1806ZM20.2457 4.44746C20.4374 4.60881 20.605 4.87551 20.641 5.07647C20.6755 5.26846 20.6895 7.44287 20.6721 9.90871L20.6407 14.3919L18.7888 12.1259C16.759 9.64245 16.5597 9.48284 15.864 9.78455C15.6632 9.87152 14.8118 10.6357 13.9718 11.4827L12.4445 13.0226L10.7993 11.399C9.08863 9.71104 8.78078 9.51402 8.19889 9.73522C8.03392 9.79801 7.20294 10.7194 6.19713 11.955C5.25117 13.1169 4.40958 14.1396 4.32687 14.2277C4.19899 14.3638 4.17634 13.6756 4.17634 9.64956V4.91129L4.54829 4.53935L4.92025 4.16741H12.4165H19.9129L20.2457 4.44746ZM11.4246 6.46785C11.0552 6.6164 10.7203 7.22113 10.7904 7.61331C10.8753 8.08819 11.4177 8.54315 11.8991 8.54315C12.4436 8.54315 12.9282 8.05449 12.9282 7.50512C12.9282 6.99239 12.7808 6.72602 12.3834 6.52047C12.026 6.3357 11.7862 6.32246 11.4246 6.46785ZM41.0794 11.9845C40.8886 12.0674 40.679 12.2351 40.6138 12.3571C40.5146 12.5421 38.199 22.3688 38.199 22.6041C38.199 22.6466 37.9995 22.4757 37.7556 22.2245C37.155 21.6056 36.4233 21.1584 35.5893 20.9007C34.917 20.693 34.5154 20.6858 23.4386 20.6858C13.2225 20.6858 11.919 20.7049 11.3891 20.8622C9.41025 21.4492 7.9324 23.0532 7.57686 24.9997C7.51166 25.3566 7.45827 26.7661 7.45827 28.1317V30.6147L6.93863 30.7435C5.23433 31.166 3.46372 32.5997 2.70932 34.1682C1.98718 35.6694 1.81795 37.1591 2.19974 38.652C2.70647 40.6332 4.01126 42.251 5.76261 43.0697L6.3096 43.3254L6.36429 48.1388L6.41899 52.9523L6.71863 53.2518C6.97561 53.5085 7.12691 53.5574 7.77826 53.5943L8.53814 53.6372L8.57249 55.4942L8.60695 57.3512L8.97037 57.6755L9.33379 58L11.9611 57.9672L14.5884 57.9344L14.8362 57.6461C15.0088 57.4453 15.2255 56.79 15.5507 55.4848L16.0175 53.6118L23.4093 53.6399L30.801 53.668L31.2664 55.5277C31.6798 57.1797 31.7694 57.421 32.068 57.6882L32.4044 57.9891H34.8695C37.4803 57.9891 37.8282 57.9305 38.0863 57.4481C38.1507 57.3281 38.199 56.4592 38.199 55.4255V53.6133H38.8609C39.5728 53.6133 40.0909 53.4151 40.2743 53.0724C40.3466 52.9374 40.3872 51.1633 40.3874 48.1235L40.388 43.385L41.2352 42.9548C42.8128 42.154 44.1464 40.4918 44.5895 38.7747C44.8613 37.7211 44.8195 36.1917 44.4906 35.1502C43.8268 33.049 42.1029 31.386 39.9753 30.7945L39.293 30.6048V29.4741V28.3434H43.1774H47.0618L47.0336 36.0283L47.0055 43.7132L46.2399 43.7461C45.5865 43.7743 45.4301 43.8215 45.1732 44.0674L44.8723 44.3558V47.8764V51.397L44.3899 51.4514C43.3313 51.5707 42.3225 52.3348 41.8246 53.3945C41.5617 53.954 41.5417 54.108 41.5387 55.5866C41.5353 57.3269 41.6341 57.6676 42.2048 57.8846C42.367 57.9462 44.8392 57.9891 48.227 57.9891H53.9742L54.3461 57.6171L54.7181 57.2452V55.7773C54.7181 54.0857 54.5699 53.4296 54.027 52.7156C53.5737 52.1194 52.6444 51.5576 51.9623 51.467L51.4361 51.3972V48.0148C51.4361 43.7734 51.4343 43.7679 49.9665 43.7679H49.2482V36.0556V28.3434H51.4361H53.6241V31.1803C53.6241 33.9174 53.6164 34.0195 53.4062 34.0863C52.9573 34.2288 52.138 34.9956 51.8306 35.561C51.4133 36.3284 51.3248 37.3596 51.6041 38.2004C51.8638 38.9824 52.7984 39.9339 53.5615 40.1934C54.2388 40.4236 55.1842 40.4282 55.8411 40.2044C56.5065 39.9777 57.2825 39.2821 57.6475 38.5852C58.0386 37.8385 58.0666 36.5457 57.7086 35.7659C57.4294 35.1576 56.7789 34.4804 56.2187 34.2146L55.812 34.0216V31.1825V28.3434H56.5341C57.2094 28.3434 57.2802 28.3193 57.628 27.9715C57.8326 27.7669 58 27.4914 58 27.3594C58 26.9225 54.617 12.4591 54.4747 12.2875C54.1029 11.8392 53.8853 11.8247 47.5287 11.8292C42.589 11.8327 41.3602 11.8623 41.0794 11.9845ZM17.837 14.4149C18.627 15.3879 19.2732 16.2125 19.2732 16.2472C19.2732 16.2818 18.4721 16.3101 17.493 16.3101H15.7127L14.8424 15.4347L13.972 14.5593L15.0608 13.4665C15.908 12.6161 16.1773 12.4039 16.2752 12.5095C16.3443 12.5843 17.0472 13.4417 17.837 14.4149ZM10.6308 14.3957L12.543 16.3101H9.0616C6.71327 16.3101 5.59249 16.2733 5.61798 16.197C5.67454 16.0274 8.56636 12.4813 8.64808 12.4813C8.68692 12.4813 9.57916 13.3428 10.6308 14.3957ZM52.7489 14.0592C52.7489 14.0848 53.1427 15.8115 53.6241 17.8963C54.1054 19.9811 54.4993 21.7078 54.4993 21.7334C54.4993 21.7589 51.37 21.7798 47.5452 21.7798C40.9729 21.7798 40.5942 21.7693 40.6493 21.5883C40.6814 21.483 41.082 19.7745 41.5395 17.7916C41.997 15.8086 42.3954 14.1473 42.4248 14.0996C42.4787 14.0124 52.7489 13.9724 52.7489 14.0592ZM35.3547 23.1319C35.8881 23.4154 36.5326 24.0505 36.8135 24.5693C37.0359 24.9802 37.0524 25.1783 37.0844 27.8178L37.1184 30.6286L36.6468 30.7492C35.0642 31.1536 33.8377 31.9917 32.895 33.3127C31.9957 34.5728 31.6352 35.8328 31.6352 37.7153C31.6352 38.5039 31.6022 38.7403 31.4984 38.6967C30.4082 38.24 30.4714 38.2435 23.3209 38.2435H16.4836L15.8819 38.4895C15.551 38.625 15.2488 38.7357 15.2103 38.7357C15.1719 38.7358 15.1187 38.0342 15.092 37.1769C15.0503 35.8285 15.0053 35.5192 14.7588 34.8855C13.9908 32.9108 12.39 31.4084 10.4394 30.8314L9.64623 30.5968V28.1225C9.64623 25.3459 9.73024 24.8518 10.3377 24.0553C10.5654 23.7569 10.9471 23.456 11.3875 23.228L12.0797 22.8698L23.5257 22.8991C34.4434 22.9271 34.9895 22.9378 35.3547 23.1319ZM55.2552 24.9605C55.381 25.5065 55.4839 25.9988 55.4839 26.0544C55.4839 26.1154 52.3302 26.1555 47.5397 26.1555H39.5957L39.6619 25.9094C39.6983 25.774 39.8109 25.2817 39.9121 24.8155L40.0961 23.9677H47.5614H55.0267L55.2552 24.9605ZM15.8107 27.058C14.7063 28.1644 14.0086 28.9492 13.9627 29.1365C13.8158 29.7363 14.0039 30.0084 15.8156 31.8166C18.2252 34.2216 17.9137 34.2268 20.413 31.7396C22.2192 29.9422 22.2767 29.8712 22.2767 29.4373C22.2767 29.0035 22.2192 28.9325 20.413 27.135C17.9095 24.6436 18.2153 24.6487 15.8107 27.058ZM26.3603 27.1163C24.7346 28.742 24.5243 28.9931 24.5243 29.3096C24.5243 29.5061 24.5942 29.7999 24.6797 29.9624C24.7651 30.1249 25.5932 31.0086 26.5201 31.926C28.1748 33.5643 28.2136 33.5943 28.6816 33.5943C29.1503 33.5943 29.1876 33.5653 30.9014 31.8713C31.8601 30.9237 32.7084 30.0007 32.7862 29.8202C33.0467 29.217 32.9056 29.0033 30.9885 27.0983C28.5196 24.6449 28.8329 24.6437 26.3603 27.1163ZM18.8903 28.6716L19.6502 29.4373L18.8901 30.2033L18.13 30.9692L17.3341 30.1787L16.5383 29.3881L17.2738 28.647C17.6783 28.2394 18.0365 27.9058 18.0698 27.9058C18.1032 27.9058 18.4724 28.2504 18.8903 28.6716ZM29.5029 28.6726L30.2638 29.4393L29.4726 30.2305L28.6814 31.0217L27.8903 30.2305L27.0991 29.4393L27.86 28.6726C28.2784 28.2509 28.6481 27.9058 28.6814 27.9058C28.7148 27.9058 29.0844 28.2509 29.5029 28.6726ZM10.3592 33.1415C11.3054 33.5843 12.08 34.3302 12.5189 35.221L12.8735 35.9407L12.9282 39.9961C12.9895 44.5487 12.9857 44.5272 13.775 44.7464C14.3373 44.9025 32.4083 44.9042 32.9704 44.7481C33.1932 44.6861 33.4762 44.5075 33.5994 44.3511C33.8147 44.0773 33.8231 43.9283 33.8231 40.3849C33.8231 36.2976 33.8751 35.8766 34.5114 34.8126C35.1385 33.7642 36.2126 33.0499 37.5304 32.8049C39.3946 32.4582 41.3846 33.523 42.2253 35.3169C42.4897 35.8811 42.5202 36.0709 42.5199 37.1496C42.5196 38.2372 42.491 38.4108 42.2228 38.9546C41.6161 40.1846 40.8188 40.8647 39.4189 41.3466C38.2084 41.7633 38.1995 41.7883 38.1992 44.7251L38.199 47.0497H23.3756H8.55225V44.5968V42.1437L8.28029 41.8206C8.10623 41.6138 7.82519 41.4513 7.49984 41.3693C6.7636 41.1839 6.18674 40.8616 5.58659 40.3002C3.76041 38.5922 3.71457 35.7958 5.48386 34.0266C6.77519 32.7353 8.73199 32.3801 10.3592 33.1415ZM8.22405 36.0782C7.89882 36.1971 7.56975 36.5898 7.50466 36.9368C7.31244 37.9613 8.58365 38.6118 9.32646 37.8691C9.85572 37.3398 9.7123 36.4893 9.04016 36.1703C8.6704 35.9948 8.50357 35.976 8.22405 36.0782ZM37.7355 36.1721C37.4492 36.3275 37.105 36.8342 37.105 37.1002C37.105 37.3855 37.4622 37.9482 37.7171 38.0642C38.196 38.2825 38.6268 38.2155 38.9732 37.8691C39.5338 37.3085 39.3411 36.3723 38.6131 36.1185C38.1843 35.969 38.1005 35.9741 37.7355 36.1721ZM55.5112 36.4399C55.8495 36.8111 55.8902 37.1734 55.6469 37.644C55.4413 38.0415 55.1749 38.1888 54.6622 38.1888C53.5728 38.1888 53.2339 36.6654 54.213 36.1697C54.6712 35.9377 55.1431 36.036 55.5112 36.4399ZM30.3771 40.6131C31.0359 40.9777 31.6352 41.8538 31.6352 42.4523C31.6352 42.6751 31.6231 42.6753 23.403 42.6473L15.1708 42.6193L15.2076 42.2911C15.2568 41.8519 15.6525 41.1555 15.9976 40.9004C16.6975 40.3831 16.7386 40.3805 23.5944 40.4067C29.3752 40.4288 30.0831 40.4503 30.3771 40.6131ZM49.2482 48.6906V51.4254H48.1542H47.0602V48.6906V45.9558H48.1542H49.2482V48.6906ZM38.199 50.3315V51.4254H23.3756H8.55225V50.3315V49.2376H23.3756H38.199V50.3315ZM13.6957 53.6954C13.6967 53.7405 13.5885 54.2328 13.4553 54.7893L13.2132 55.8012H11.9767H10.7402V54.7073V53.6133H12.2171C13.0293 53.6133 13.6947 53.6502 13.6957 53.6954ZM36.0111 54.7073V55.8012H34.812H33.6127L33.4917 55.3363C33.4252 55.0806 33.322 54.6744 33.2622 54.4338C33.2025 54.1931 33.1287 53.91 33.0981 53.8048C33.0472 53.6291 33.165 53.6133 34.5269 53.6133H36.0111V54.7073ZM51.9673 53.7692C52.3714 53.9781 52.5301 54.3676 52.5301 55.15V55.8012H48.0995H43.6689L43.6696 55.3363C43.6704 54.6451 43.8598 54.0887 44.1797 53.837C44.4532 53.622 44.6032 53.6133 48.065 53.6133C50.9675 53.6133 51.7243 53.6435 51.9673 53.7692Z" fill="#05141F"/>
</svg>
