<?xml version="1.0" encoding="utf-8"?><svg xmlns="http://www.w3.org/2000/svg" xmlns:xlink="http://www.w3.org/1999/xlink"><symbol viewBox="0 0 20 20" id="arrow-left" xmlns="http://www.w3.org/2000/svg"><g clip-path="url(#aa)"><path d="M7 16l-6-6 6-6m-5.5 6H20"/></g><defs><clipPath id="aa"><path transform="matrix(-1 0 0 1 20 0)" d="M0 0h20v20H0z"/></clipPath></defs></symbol><symbol viewBox="0 0 20 20" id="arrow-right" xmlns="http://www.w3.org/2000/svg"><g clip-path="url(#ba)"><path d="M13 16l6-6-6-6m5.5 6H0"/></g><defs><clipPath id="ba"><path d="M0 0h20v20H0z"/></clipPath></defs></symbol><symbol viewBox="0 0 24 24" id="basket" xmlns="http://www.w3.org/2000/svg"><path d="M17 20a1 1 0 112 0 1 1 0 01-2 0zM7 20a1 1 0 112 0 1 1 0 01-2 0zM3 3h.768a1 1 0 01.983.818L7 16M5.5 6h14.243a1 1 0 01.974 1.225l-1.846 8a1 1 0 01-.974.775H7"/></symbol><symbol viewBox="0 0 344.96 344.96" id="check" xmlns="http://www.w3.org/2000/svg"><g data-name="Слой 2"><path class="dcls-1" d="M321.85 86.24l-40-23.11-23.1-40H212.5L172.48 0l-40 23.11H86.24l-23.11 40-40 23.1v46.21L0 172.48l23.11 40v46.21l40 23.11 23.11 40h46.21l40 23.1 40-23.11h46.21l23.11-40 40-23.11V212.5l23.11-40-23.11-40V86.24zM156.91 243.07a16.79 16.79 0 01-23.34 0l-50.45-50.44a16.19 16.19 0 010-22.89l13.35-13.35a16.19 16.19 0 0122.89 0l25.87 25.87 80.34-80.35a16.19 16.19 0 0122.89 0l13.35 13.35a16.19 16.19 0 010 22.89z" data-name="Capa 1"/></g></symbol><symbol viewBox="0 0 24 24" id="chevron-right" xmlns="http://www.w3.org/2000/svg"><path d="M10.707 7.293a1 1 0 00-1.414 1.414l1.414-1.414zM14 12l.707.707a1 1 0 000-1.414L14 12zm-4.707 3.293a1 1 0 101.414 1.414l-1.414-1.414zm0-6.586l4 4 1.414-1.414-4-4-1.414 1.414zm4 2.586l-4 4 1.414 1.414 4-4-1.414-1.414z"/></symbol><symbol viewBox="0 0 24 24" id="fb" xmlns="http://www.w3.org/2000/svg"><path d="M13.397 20.997v-8.196h2.765l.411-3.209h-3.176V7.548c0-.926.258-1.56 1.587-1.56h1.684v-2.86A22.108 22.108 0 0014.201 3c-2.444 0-4.122 1.492-4.122 4.231v2.355H7.332v3.21h2.753v8.201h3.312z"/></symbol><symbol viewBox="0 0 24 24" id="instagram" xmlns="http://www.w3.org/2000/svg"><path d="M16.042 2H7.957A5.964 5.964 0 002 7.958v8.085A5.964 5.964 0 007.958 22h8.085A5.964 5.964 0 0022 16.042V7.957A5.964 5.964 0 0016.042 2zm3.946 14.042a3.946 3.946 0 01-3.946 3.946H7.957a3.947 3.947 0 01-3.945-3.946V7.957a3.947 3.947 0 013.946-3.945h8.085a3.947 3.947 0 013.945 3.946v8.085-.001z"/><path d="M11.998 6.444A5.563 5.563 0 006.444 12 5.563 5.563 0 0012 17.556a5.563 5.563 0 005.556-5.557 5.562 5.562 0 00-5.557-5.553v-.002zm0 8.951a3.395 3.395 0 110-6.79 3.395 3.395 0 010 6.79zm5.557-7.839a1.111 1.111 0 100-2.223 1.111 1.111 0 000 2.223z"/></symbol><symbol viewBox="0 0 24 24" id="instagram-svgrepo-com" xmlns="http://www.w3.org/2000/svg"><path d="M16.042 2H7.957A5.964 5.964 0 002 7.958v8.085A5.964 5.964 0 007.958 22h8.085A5.964 5.964 0 0022 16.042V7.957A5.964 5.964 0 0016.042 2zm3.946 14.042a3.946 3.946 0 01-3.946 3.946H7.957a3.947 3.947 0 01-3.945-3.946V7.957a3.947 3.947 0 013.946-3.945h8.085a3.947 3.947 0 013.945 3.946v8.085-.001z"/><path d="M11.998 6.444A5.563 5.563 0 006.444 12 5.563 5.563 0 0012 17.556a5.563 5.563 0 005.556-5.557 5.562 5.562 0 00-5.557-5.553v-.002zm0 8.951a3.395 3.395 0 110-6.79 3.395 3.395 0 010 6.79zm5.557-7.839a1.111 1.111 0 100-2.223 1.111 1.111 0 000 2.223z"/></symbol><symbol viewBox="0 0 24 24" id="like" xmlns="http://www.w3.org/2000/svg"><path d="M12 20l-.487.874a1 1 0 00.974 0L12 20zm0-12.838l-.92.391a1 1 0 001.84 0l-.92-.39zM2 8.972c0 3.474 2.56 6.49 4.835 8.516a29.62 29.62 0 004.645 3.367l.023.013.007.004a.077.077 0 01.003.001L12 20l.487-.873-.003-.002-.016-.01a9.69 9.69 0 01-.337-.198 27.649 27.649 0 01-3.965-2.922C5.94 14.012 4 11.515 4 8.972H2zm10.92-2.2c-1.18-2.78-3.873-4.067-6.313-3.715a5.17 5.17 0 00-3.248 1.79C2.499 5.872 2 7.27 2 8.972h2c0-1.304.376-2.225.891-2.84a3.17 3.17 0 012.002-1.096c1.56-.225 3.368.59 4.187 2.517l1.84-.782zm7.08 2.2c0 2.542-1.94 5.04-4.165 7.023a27.652 27.652 0 01-4.303 3.12l-.016.01-.003.001L12 20a154.744 154.744 0 00.488.873l.002-.001.007-.004.023-.013a15.49 15.49 0 00.384-.226 29.615 29.615 0 004.261-3.14C19.44 15.461 22 12.445 22 8.971h-2zm-7.08-1.419c.82-1.926 2.627-2.742 4.187-2.517a3.17 3.17 0 012.002 1.097c.515.614.891 1.535.891 2.84h2c0-1.704-.499-3.1-1.359-4.126a5.17 5.17 0 00-3.248-1.79c-2.44-.352-5.132.935-6.313 3.714l1.84.782z"/></symbol><symbol viewBox="0 0 24 24" id="search" xmlns="http://www.w3.org/2000/svg"><path fill-rule="evenodd" clip-rule="evenodd" d="M5 11c0-3.309 2.691-6 6-6s6 2.691 6 6-2.691 6-6 6-6-2.691-6-6zm15.707 8.293l-3.395-3.396A7.952 7.952 0 0019 11c0-4.411-3.589-8-8-8s-8 3.589-8 8 3.589 8 8 8a7.952 7.952 0 004.897-1.688l3.396 3.395a.997.997 0 001.414 0 .999.999 0 000-1.414z"/></symbol><symbol viewBox="0 0 24 24" id="tel" xmlns="http://www.w3.org/2000/svg"><path d="M9.503 4.257l-.929.372.929-.372zm1.054 2.636l.929-.372-.929.372zm-.32 2.023l.768.64-.768-.64zm-.568.68l.768.641-.768-.64zm.122 2.695L9.084 13l.707-.708zm1.918 1.918l.707-.708-.707.708zm2.694.122l-.64-.768.64.768zm.681-.568l.64.769-.64-.769zm2.023-.32l-.371.928.371-.928zm2.636 1.054l.371-.928-.371.928zM4.895 4h2.75V2h-2.75v2zm3.68.629l1.054 2.635 1.857-.743-1.055-2.635-1.857.743zm.893 3.647l-.567.68 1.537 1.281.567-.68-1.537-1.281zm-.384 4.723l1.917 1.917 1.415-1.415-1.917-1.917L9.084 13zm5.96 2.1l.68-.567-1.28-1.537-.681.568 1.28 1.536zm1.692-.728l2.635 1.055.743-1.857-2.636-1.055-.742 1.857zM20 16.354v2.751h2v-2.75h-2zM19.105 20C10.763 20 4 13.237 4 4.895H2C2 14.342 9.658 22 19.105 22v-2zm.895-.895c0 .494-.4.895-.895.895v2A2.895 2.895 0 0022 19.105h-2zm-.629-3.68a1 1 0 01.629.93h2a3 3 0 00-1.886-2.786l-.743 1.857zm-3.647-.893a1 1 0 011.012-.16l.742-1.858a3 3 0 00-3.034.481l1.28 1.537zm-4.723.384a3 3 0 004.042.183l-1.28-1.537a1 1 0 01-1.347-.06L11 14.915zm-2.1-5.96A3 3 0 009.084 13l1.415-1.415a1 1 0 01-.062-1.347l-1.536-1.28zm.728-1.692a1 1 0 01-.16 1.012l1.536 1.28a3 3 0 00.48-3.035l-1.856.743zM7.646 4a1 1 0 01.928.629l1.857-.743A3 3 0 007.646 2v2zM4.895 2A2.895 2.895 0 002 4.895h2C4 4.4 4.4 4 4.895 4V2z"/></symbol><symbol viewBox="0 0 24 24" id="telegram" xmlns="http://www.w3.org/2000/svg"><path d="M20.446 3.002a2.389 2.389 0 00-.755.181h-.003c-.23.092-1.325.556-2.988 1.259l-5.965 2.53a17641.01 17641.01 0 00-8.485 3.602l.051-.02s-.29.096-.593.306a1.646 1.646 0 00-.474.46c-.148.22-.268.557-.224.903.073.588.452.941.723 1.135.274.197.536.29.536.29h.007l3.944 1.338c.177.572 1.203 3.967 1.449 4.749.145.467.287.76.464.982.085.114.186.21.306.286a.895.895 0 00.199.086l-.041-.01c.012.003.022.013.031.016.032.01.054.013.095.02.625.19 1.127-.201 1.127-.201l.028-.022 2.329-2.136 3.904 3.016.088.038c.814.36 1.638.16 2.073-.194.439-.355.61-.81.61-.81l.028-.073 3.017-15.567c.085-.384.107-.743.012-1.093a1.469 1.469 0 00-.63-.852 1.503 1.503 0 00-.862-.22zm-.083 1.669c-.003.05.007.044-.015.143v.01l-2.989 15.403c-.012.023-.035.07-.094.118-.064.05-.114.083-.376-.022l-4.775-3.688-2.884 2.648.606-3.897s7.48-7.022 7.8-7.324c.323-.302.216-.365.216-.365.022-.369-.486-.108-.486-.108l-9.837 6.138-.003-.016-4.715-1.599v-.003l-.012-.003c.003 0 .025-.01.025-.01l.025-.012.025-.01 8.49-3.602c2.142-.909 4.3-1.824 5.96-2.53a851 851 0 012.957-1.246c.067-.025.035-.025.082-.025z"/></symbol><symbol viewBox="0 0 24 24" id="user" xmlns="http://www.w3.org/2000/svg"><path d="M4 21c0-2.761 3.582-5 8-5s8 2.239 8 5m-8-8a5 5 0 100-10 5 5 0 000 10z"/></symbol><symbol viewBox="0 0 24 24" id="viber" xmlns="http://www.w3.org/2000/svg"><path d="M8.022 6.29a.81.81 0 00-.53.104H7.48a4.06 4.06 0 00-.987.812c-.236.273-.364.549-.398.815-.02.158-.007.317.04.468l.017.01c.266.782.614 1.534 1.038 2.241a13.18 13.18 0 002.001 2.736l.024.033.037.027.023.028.027.023c.825.784 1.746 1.46 2.743 2.01 1.138.62 1.829.914 2.243 1.035v.007c.122.037.233.053.344.053.353-.026.688-.169.95-.407.32-.284.59-.619.802-.99v-.007c.199-.374.132-.728-.155-.967a11.949 11.949 0 00-1.853-1.33c-.441-.24-.89-.095-1.071.148l-.388.488c-.198.242-.56.209-.56.209l-.01.006c-2.691-.687-3.41-3.412-3.41-3.412s-.033-.371.216-.56l.485-.39c.233-.19.394-.637.145-1.079-.38-.66-.825-1.28-1.327-1.853a.737.737 0 00-.435-.26l.002.002zm4.548-1.185a.493.493 0 100 .986c1.246 0 2.281.407 3.1 1.187.42.428.749.933.964 1.487.216.555.314 1.147.289 1.74a.493.493 0 00.985.042 5.282 5.282 0 00-.356-2.14 5.364 5.364 0 00-1.186-1.827l-.01-.01c-1.015-.97-2.302-1.465-3.787-1.465z"/><path d="M12.536 6.726a.493.493 0 000 .986h.016c.9.063 1.554.363 2.013.855.47.507.713 1.136.695 1.915a.493.493 0 00.985.023c.024-1.023-.305-1.904-.958-2.609-.668-.716-1.583-1.095-2.685-1.169h-.066z"/><path d="M12.518 8.377a.493.493 0 00-.052.984c.412.022.675.145.84.312.167.168.291.437.314.858a.493.493 0 10.984-.053c-.032-.591-.217-1.114-.597-1.498-.38-.385-.9-.572-1.49-.603z"/><path fill-rule="evenodd" clip-rule="evenodd" d="M7.136 2.526a21.833 21.833 0 019.526 0l.334.075a5.081 5.081 0 013.816 3.708 19.435 19.435 0 010 9.561 5.081 5.081 0 01-3.816 3.709l-.334.075a21.8 21.8 0 01-5.99.49l-2.616 2.34a.74.74 0 01-1.222-.428l-.432-2.584a5.081 5.081 0 01-3.416-3.602 19.434 19.434 0 010-9.56A5.08 5.08 0 016.802 2.6l.334-.074zm9.203 1.443a20.355 20.355 0 00-8.88 0l-.335.074a3.602 3.602 0 00-2.705 2.63 17.956 17.956 0 000 8.833 3.602 3.602 0 002.705 2.63l.089.02a.74.74 0 01.568.599l.29 1.733 1.845-1.652a.739.739 0 01.545-.186 20.356 20.356 0 005.878-.44l.334-.074a3.602 3.602 0 002.706-2.63 17.957 17.957 0 000-8.833 3.602 3.602 0 00-2.706-2.63l-.334-.074z"/></symbol><symbol viewBox="0 0 24 24" id="vk" xmlns="http://www.w3.org/2000/svg"><path d="M21.579 6.855c.14-.465 0-.806-.662-.806h-2.193c-.558 0-.813.295-.953.619 0 0-1.115 2.719-2.695 4.482-.51.513-.743.675-1.021.675-.139 0-.341-.162-.341-.627V6.855c0-.558-.161-.806-.626-.806H9.642c-.348 0-.558.258-.558.504 0 .528.79.65.871 2.138v3.228c0 .707-.127.836-.407.836-.743 0-2.551-2.73-3.624-5.853-.209-.607-.42-.852-.98-.852H2.752c-.627 0-.752.295-.752.619 0 .582.743 3.462 3.461 7.27 1.812 2.602 4.363 4.012 6.687 4.012 1.393 0 1.565-.313 1.565-.853v-1.966c0-.626.133-.752.574-.752.324 0 .882.164 2.183 1.417 1.486 1.486 1.732 2.153 2.567 2.153h2.192c.626 0 .939-.313.759-.931-.197-.615-.907-1.51-1.849-2.57-.512-.603-1.277-1.253-1.51-1.578-.325-.42-.231-.604 0-.976.001 0 2.672-3.761 2.95-5.04z"/></symbol><symbol viewBox="0 0 24 24" id="whatsapp" xmlns="http://www.w3.org/2000/svg"><path fill-rule="evenodd" clip-rule="evenodd" d="M19.086 4.907a9.896 9.896 0 00-3.23-2.156A9.934 9.934 0 0012.043 2c-5.488 0-9.957 4.446-9.959 9.91a9.86 9.86 0 001.33 4.955L2 22l5.279-1.379a10 10 0 004.759 1.207h.004c5.488 0 9.956-4.446 9.958-9.91a9.816 9.816 0 00-2.914-7.011zm-7.044 15.248h-.003a8.29 8.29 0 01-4.213-1.149l-.302-.179-3.132.818.835-3.04-.197-.31a8.194 8.194 0 01-1.265-4.384c.002-4.542 3.715-8.237 8.28-8.237a8.257 8.257 0 015.852 2.415 8.158 8.158 0 012.422 5.828c-.003 4.542-3.716 8.238-8.277 8.238zm4.54-6.17c-.25-.125-1.472-.723-1.7-.806-.228-.083-.393-.124-.56.124-.166.247-.643.804-.788.97-.145.166-.29.186-.539.062-.248-.124-1.05-.385-2.001-1.229-.74-.657-1.24-1.467-1.384-1.715-.146-.249-.016-.382.11-.506.111-.11.248-.29.372-.434.124-.145.165-.247.248-.413.084-.165.043-.31-.02-.434s-.56-1.343-.768-1.839c-.2-.48-.406-.416-.56-.423-.158-.006-.316-.01-.475-.009a.92.92 0 00-.665.31c-.228.248-.87.846-.87 2.065 0 1.219.892 2.397 1.016 2.563.124.165 1.755 2.666 4.25 3.739.595.255 1.059.407 1.42.522.595.189 1.137.161 1.567.098.478-.07 1.472-.598 1.679-1.177.207-.578.207-1.074.145-1.178-.062-.103-.23-.166-.477-.29z"/></symbol></svg>