<svg width="44" height="44" viewBox="0 0 44 44" fill="none" xmlns="http://www.w3.org/2000/svg">
<path d="M22.0001 42.9C33.5429 42.9 42.9001 33.5427 42.9001 22C42.9001 10.4572 33.5429 1.09998 22.0001 1.09998C10.4573 1.09998 1.1001 10.4572 1.1001 22C1.1001 33.5427 10.4573 42.9 22.0001 42.9Z" stroke="#F2F2F2" stroke-width="1.5"/>
<path fill-rule="evenodd" clip-rule="evenodd" d="M22.971 28.6411C22.971 28.6411 23.3289 28.6029 23.5108 28.4093C23.6794 28.2333 23.6721 27.8989 23.6721 27.8989C23.6721 27.8989 23.6516 26.3413 24.3878 26.1111C25.1138 25.8852 26.0466 27.6173 27.0366 28.2847C27.7846 28.7877 28.3522 28.6777 28.3522 28.6777L30.9966 28.6411C30.9966 28.6411 32.3797 28.5575 31.7241 27.4912C31.6698 27.4032 31.3413 26.6992 29.7588 25.2575C28.0985 23.7468 28.3214 23.9917 30.319 21.3781C31.5349 19.7868 32.0204 18.8158 31.8693 18.4008C31.7241 18.0033 30.8294 18.1074 30.8294 18.1074L27.8521 18.1265C27.8521 18.1265 27.6321 18.0972 27.4678 18.1925C27.308 18.2864 27.2038 18.5064 27.2038 18.5064C27.2038 18.5064 26.7345 19.7384 26.1053 20.7856C24.7794 22.9944 24.25 23.1117 24.0329 22.9739C23.5284 22.6541 23.6545 21.6891 23.6545 21.0041C23.6545 18.8628 23.986 17.9681 23.0106 17.7378C22.688 17.6616 22.4489 17.6117 21.6217 17.6029C20.5584 17.5912 19.6593 17.6058 19.1504 17.8508C18.813 18.0121 18.549 18.3758 18.7104 18.3978C18.9069 18.4228 19.3528 18.5152 19.5889 18.8305C19.894 19.2382 19.8822 20.1535 19.8822 20.1535C19.8822 20.1535 20.0582 22.6732 19.473 22.9871C19.0726 23.2012 18.5226 22.7627 17.3405 20.7577C16.9395 20.0615 16.5843 19.3398 16.2772 18.5973C16.2772 18.5973 16.1892 18.3846 16.0308 18.2702C15.8401 18.1324 15.5746 18.0898 15.5746 18.0898L12.7454 18.1074C12.7454 18.1074 12.3201 18.1192 12.1646 18.301C12.0268 18.4624 12.1544 18.7953 12.1544 18.7953C12.1544 18.7953 14.369 23.8817 16.877 26.4455C19.1768 28.7951 21.7874 28.6411 21.7874 28.6411H22.971Z" fill="#F2F2F2"/>
</svg>
