<?xml version="1.0" encoding="utf-8"?><svg xmlns="http://www.w3.org/2000/svg" xmlns:xlink="http://www.w3.org/1999/xlink"><symbol viewBox="0 0 16 16" id="Lock" xmlns="http://www.w3.org/2000/svg"><path fill-rule="evenodd" clip-rule="evenodd" d="M12 12.666a.667.667 0 01-.667.667H4.667A.667.667 0 014 12.666V7.333c0-.368.299-.667.667-.667h6.666c.368 0 .667.299.667.667v5.333zM6.667 4.074c0-.776.598-1.408 1.333-1.408s1.333.632 1.333 1.408v1.259H6.667v-1.26zm4.666 1.259h-.666v-1.26c0-1.51-1.196-2.74-2.667-2.74-1.47 0-2.667 1.23-2.667 2.74v1.26h-.666c-1.103 0-2 .897-2 2v5.333c0 1.103.897 2 2 2h6.666c1.103 0 2-.897 2-2V7.333c0-1.103-.897-2-2-2z"/></symbol><symbol viewBox="0 0 20 20" id="arrow-left" xmlns="http://www.w3.org/2000/svg"><g clip-path="url(#aba)"><path d="M7 16l-6-6 6-6m-5.5 6H20"/></g><defs><clipPath id="aba"><path transform="matrix(-1 0 0 1 20 0)" d="M0 0h20v20H0z"/></clipPath></defs></symbol><symbol viewBox="0 0 20 20" id="arrow-right" xmlns="http://www.w3.org/2000/svg"><g clip-path="url(#aca)"><path d="M13 16l6-6-6-6m5.5 6H0"/></g><defs><clipPath id="aca"><path d="M0 0h20v20H0z"/></clipPath></defs></symbol><symbol viewBox="0 0 24 24" id="basket" xmlns="http://www.w3.org/2000/svg"><path d="M17 20a1 1 0 112 0 1 1 0 01-2 0zM7 20a1 1 0 112 0 1 1 0 01-2 0zM3 3h.768a1 1 0 01.983.818L7 16M5.5 6h14.243a1 1 0 01.974 1.225l-1.846 8a1 1 0 01-.974.775H7"/></symbol><symbol viewBox="0 0 180 180" id="blinds" xmlns="http://www.w3.org/2000/svg"><path fill-rule="evenodd" clip-rule="evenodd" d="M0 90v90h180V0H0v90zm169.453-74.18v5.274H10.547V10.547h158.906v5.273zm0 21.094v5.273H10.547V31.642h158.906v5.273zm0 21.094v5.273H10.547V52.734h158.906v5.274zm0 21.094v5.273H10.547V73.828h158.906v5.274zm-148.36 47.812v31.992h137.813V94.922h10.547v74.531H10.547V94.922h10.547v31.992zm32.825-28.389a907.09 907.09 0 011.15 4.345c.165.642-.448 1.109-4.59 3.506-2.63 1.522-4.74 2.863-4.69 2.981.452 1.064 5.07 8.761 5.26 8.764.135.002 2.167-1.114 4.515-2.481 2.348-1.366 4.459-2.557 4.69-2.646.59-.226 6.607 5.866 6.379 6.46-.1.262-1.291 2.374-2.646 4.693-1.354 2.32-2.46 4.326-2.459 4.459.004.185 7.716 4.81 8.765 5.254.117.05 1.459-2.06 2.98-4.689 2.385-4.122 2.868-4.756 3.507-4.603a208.9 208.9 0 013.377.897c1.45.394 3.072.806 3.604.914l.967.197v11.236h10.546v-11.236l.967-.196c.946-.192 6.035-1.483 7.159-1.816.423-.125 1.267 1.044 3.331 4.61 1.52 2.627 2.858 4.736 2.973 4.686 1.14-.495 8.774-5.027 8.774-5.209 0-.132-1.048-2.04-2.33-4.24-1.281-2.2-2.476-4.319-2.655-4.708-.277-.603.133-1.166 2.765-3.798s3.195-3.042 3.797-2.764c.39.179 2.508 1.374 4.709 2.655 2.2 1.281 4.098 2.327 4.218 2.325.171-.003 4.834-7.819 5.235-8.776.052-.124-2.059-1.465-4.69-2.979-4.129-2.377-4.76-2.856-4.606-3.496.098-.407.501-1.928.896-3.378.395-1.45.807-3.072.915-3.603l.196-.967h21.432v53.437H31.64V94.921h21.319l.96 3.604zm62.09-2.988c-.004.338-.388 1.694-.853 3.013-2.477 7.019-8.261 13.046-15.24 15.883-12.267 4.983-26.76-.186-33.246-11.857-1.215-2.187-2.685-6.082-2.685-7.115 0-.48 2.887-.54 26.016-.54 24.545 0 26.015.036 26.008.616z"/></symbol><symbol viewBox="0 0 20 20" id="burger" xmlns="http://www.w3.org/2000/svg"><path d="M3 13h14M3 7h14"/></symbol><symbol viewBox="0 0 24 24" id="catalog" xmlns="http://www.w3.org/2000/svg"><path d="M17 18a1 1 0 112 0 1 1 0 01-2 0zm-6 0a1 1 0 112 0 1 1 0 01-2 0zm-6 0a1 1 0 112 0 1 1 0 01-2 0zm12-6a1 1 0 112 0 1 1 0 01-2 0zm-6 0a1 1 0 112 0 1 1 0 01-2 0zm-6 0a1 1 0 112 0 1 1 0 01-2 0zm12-6a1 1 0 112 0 1 1 0 01-2 0zm-6 0a1 1 0 112 0 1 1 0 01-2 0zM5 6a1 1 0 112 0 1 1 0 01-2 0z"/></symbol><symbol viewBox="0 0 344.96 344.96" id="check" xmlns="http://www.w3.org/2000/svg"><g data-name="Слой 2"><path class="ahcls-1" d="M321.85 86.24l-40-23.11-23.1-40H212.5L172.48 0l-40 23.11H86.24l-23.11 40-40 23.1v46.21L0 172.48l23.11 40v46.21l40 23.11 23.11 40h46.21l40 23.1 40-23.11h46.21l23.11-40 40-23.11V212.5l23.11-40-23.11-40V86.24zM156.91 243.07a16.79 16.79 0 01-23.34 0l-50.45-50.44a16.19 16.19 0 010-22.89l13.35-13.35a16.19 16.19 0 0122.89 0l25.87 25.87 80.34-80.35a16.19 16.19 0 0122.89 0l13.35 13.35a16.19 16.19 0 010 22.89z" data-name="Capa 1"/></g></symbol><symbol viewBox="0 0 16 16" id="check-2" xmlns="http://www.w3.org/2000/svg"><path d="M8 14A6 6 0 108 2a6 6 0 000 12z"/><path d="M10.53 7.197a.75.75 0 10-1.06-1.06l1.06 1.06zM7.333 9.334l-.53.53a.75.75 0 001.06 0l-.53-.53zM6.53 7.47a.75.75 0 10-1.06 1.06l1.06-1.06zm2.94-1.333L6.803 8.803l1.06 1.061 2.667-2.667-1.06-1.06zM7.864 8.803L6.53 7.47 5.47 8.53l1.333 1.334 1.06-1.06z"/></symbol><symbol viewBox="0 0 24 24" id="chevron-accordion" xmlns="http://www.w3.org/2000/svg"><path d="M16.707 10.707a1 1 0 00-1.414-1.414l1.414 1.414zM12 14l-.707.707a1 1 0 001.414 0L12 14zM8.707 9.293a1 1 0 00-1.414 1.414l1.414-1.414zm6.586 0l-4 4 1.414 1.414 4-4-1.414-1.414zm-2.586 4l-4-4-1.414 1.414 4 4 1.414-1.414z"/></symbol><symbol viewBox="0 0 16 16" id="chevron-down" xmlns="http://www.w3.org/2000/svg"><path fill-rule="evenodd" clip-rule="evenodd" d="M13.111 6.74l-1.253-1.184L7.778 9.4l-4.08-3.845L2.445 6.74l5.333 5.038 5.333-5.038z"/></symbol><symbol viewBox="0 0 24 24" id="chevron-left" xmlns="http://www.w3.org/2000/svg"><path d="M13.293 16.707a1 1 0 001.414-1.414l-1.414 1.414zM10 12l-.707-.707a1 1 0 000 1.414L10 12zm4.707-3.293a1 1 0 00-1.414-1.414l1.414 1.414zm0 6.586l-4-4-1.414 1.414 4 4 1.414-1.414zm-4-2.586l4-4-1.414-1.414-4 4 1.414 1.414z"/></symbol><symbol viewBox="0 0 24 24" id="chevron-right" xmlns="http://www.w3.org/2000/svg"><path d="M10.707 7.293a1 1 0 00-1.414 1.414l1.414-1.414zM14 12l.707.707a1 1 0 000-1.414L14 12zm-4.707 3.293a1 1 0 101.414 1.414l-1.414-1.414zm0-6.586l4 4 1.414-1.414-4-4-1.414 1.414zm4 2.586l-4 4 1.414 1.414 4-4-1.414-1.414z"/></symbol><symbol viewBox="0 0 24 24" id="close" xmlns="http://www.w3.org/2000/svg"><path d="M16 16L8 8m8 0l-8 8"/></symbol><symbol viewBox="0 0 180 180" id="cloth_" xmlns="http://www.w3.org/2000/svg"><path fill-rule="evenodd" clip-rule="evenodd" d="M11.905.515C4.526 2.55-.54 9.72.09 17.238c.25 2.985 1.31 5.732 3.056 7.913 2.42 3.026 2.816 3.782 2.817 5.387.002 1.754-.322 2.459-2.128 4.636-5.059 6.098-5.066 14.692-.019 20.456 1.79 2.043 2.149 2.797 2.149 4.515 0 1.689-.336 2.409-2.13 4.572-5.004 6.032-5.017 14.748-.03 20.442 1.801 2.057 2.16 2.808 2.16 4.528 0 1.689-.336 2.41-2.13 4.572-5.004 6.032-5.017 14.748-.03 20.442 1.801 2.058 2.16 2.809 2.16 4.529 0 1.688-.336 2.409-2.13 4.572-7.39 8.909-3.667 21.582 7.445 25.337 1.822.617 2.843.734 5.412.623 3.752-.162 6.511-1.278 9.705-3.926 3.105-2.575 5.638-2.647 8.056-.229 2.421 2.421 2.343 5.105-.237 8.115-4.677 5.456-5.3 13.078-1.542 18.89 5.289 8.183 16.082 9.836 23.585 3.612 2.163-1.794 2.883-2.13 4.572-2.13 1.72 0 2.471.358 4.529 2.16 5.694 4.986 14.41 4.973 20.442-.03 2.163-1.794 2.884-2.13 4.573-2.13 1.72 0 2.47.358 4.528 2.16 5.694 4.986 14.411 4.973 20.443-.03 2.163-1.794 2.883-2.13 4.572-2.13 1.72 0 2.471.358 4.529 2.16 5.694 4.986 14.41 4.973 20.442-.03 2.163-1.794 2.884-2.13 4.573-2.13 1.719 0 2.471.358 4.528 2.16 3.345 2.929 8.272 4.3 12.717 3.538 6.756-1.159 11.928-6.39 13.104-13.254.728-4.252-.696-9.253-3.57-12.534-1.801-2.058-2.16-2.809-2.16-4.529 0-1.705.293-2.319 2.251-4.723 4.872-5.981 4.833-14.668-.091-20.291-1.801-2.057-2.16-2.808-2.16-4.528 0-1.705.293-2.319 2.251-4.723 4.872-5.981 4.833-14.669-.091-20.291-1.801-2.057-2.16-2.809-2.16-4.528 0-1.706.293-2.32 2.251-4.723 4.872-5.982 4.833-14.67-.091-20.291-1.801-2.058-2.16-2.81-2.16-4.529 0-1.705.293-2.32 2.251-4.723 2.911-3.574 4.187-8.208 3.447-12.522-1.324-7.724-7.864-13.352-15.513-13.352-4.008 0-7.248 1.23-10.676 4.052-1.532 1.26-2.388 1.703-3.551 1.834-2.025.228-3.87-.661-5.222-2.517-.914-1.253-1.028-1.666-.9-3.26.126-1.558.395-2.124 1.842-3.869.932-1.124 2.186-3.072 2.786-4.33 1.019-2.131 1.092-2.548 1.092-6.18 0-3.87-.009-3.915-1.482-6.887-4.744-9.574-16.179-12.033-24.368-5.24-2.163 1.794-2.883 2.13-4.572 2.13-1.72 0-2.471-.359-4.529-2.16-5.622-4.924-14.31-4.963-20.292-.09-2.403 1.957-3.018 2.25-4.723 2.25-1.72 0-2.47-.359-4.528-2.16-5.623-4.924-14.31-4.963-20.292-.09-2.404 1.957-3.018 2.25-4.723 2.25-1.718 0-2.472-.36-4.516-2.148-5.749-5.035-14.369-5.027-20.456.019-2.163 1.794-2.883 2.129-4.572 2.129-1.72 0-2.471-.359-4.529-2.16C22.375.599 16.546-.764 11.905.515zm5.764 10.363c.465.176 1.623.994 2.573 1.817.95.822 2.755 1.983 4.012 2.58 2.142 1.015 2.542 1.084 6.331 1.084 3.696 0 4.227-.085 6.155-.987 1.16-.542 3.004-1.687 4.096-2.544 3.863-3.03 5.755-3.01 9.226.1.75.673 2.411 1.72 3.693 2.327 2.19 1.038 2.57 1.104 6.374 1.104 3.695 0 4.227-.085 6.155-.987 1.16-.542 3.003-1.687 4.096-2.544 3.862-3.03 5.755-3.01 9.225.1.75.673 2.412 1.72 3.693 2.327 2.19 1.038 2.57 1.104 6.374 1.104 3.696 0 4.227-.085 6.155-.987 1.16-.542 3.004-1.687 4.096-2.544 3.863-3.03 5.755-3.01 9.226.1.75.673 2.411 1.72 3.693 2.327 2.19 1.038 2.569 1.104 6.374 1.104 3.695 0 4.227-.085 6.155-.987 1.16-.542 2.98-1.666 4.044-2.496 2.52-1.967 3.23-2.321 4.637-2.315 2.729.014 5.212 2.608 5.21 5.44-.002 1.487-.441 2.31-2.818 5.281-1.882 2.353-2.841 5.007-3.068 8.487-.295 4.54.799 7.436 4.629 12.252.764.961 1.063 1.76 1.163 3.114.145 1.973-.009 2.296-2.724 5.69-2.266 2.833-2.947 4.986-2.947 9.32 0 4.446.756 6.74 3.216 9.76 2.093 2.57 2.546 3.492 2.547 5.187.001 1.48-.438 2.303-2.816 5.275-1.882 2.353-2.841 5.007-3.068 8.487-.298 4.584.778 7.435 4.629 12.257.765.958 1.063 1.754 1.163 3.109.145 1.973-.009 2.296-2.724 5.69-1.882 2.352-2.841 5.006-3.068 8.486-.298 4.585.778 7.435 4.629 12.258 1.374 1.72 1.629 4.401.578 6.076-1.737 2.764-5.149 3.382-7.751 1.403-3.75-2.852-4.823-3.482-7.128-4.182-4.654-1.413-10.157-.414-13.809 2.506-3.394 2.715-3.716 2.869-5.69 2.724-1.355-.1-2.15-.398-3.108-1.162-4.823-3.852-7.673-4.928-12.258-4.629-3.48.226-6.134 1.185-8.487 3.067-3.394 2.715-3.717 2.869-5.69 2.724-1.355-.1-2.15-.398-3.109-1.162-4.822-3.852-7.673-4.928-12.258-4.629-3.48.226-6.134 1.185-8.487 3.067-3.394 2.715-3.716 2.869-5.69 2.724-1.355-.1-2.15-.398-3.108-1.162-4.823-3.852-7.674-4.928-12.258-4.629-3.48.226-6.134 1.185-8.487 3.067-2.973 2.377-3.795 2.816-5.281 2.818-2.833.003-5.427-2.481-5.44-5.21-.007-1.406.347-2.117 2.314-4.636.83-1.064 1.954-2.884 2.496-4.045.902-1.928.987-2.459.987-6.154 0-3.805-.066-4.183-1.104-6.374-.607-1.281-1.653-2.943-2.326-3.693-3.111-3.47-3.132-5.363-.101-9.225.857-1.092 2.002-2.936 2.544-4.096.902-1.928.987-2.46.987-6.155 0-3.804-.066-4.183-1.104-6.374-.607-1.28-1.653-2.943-2.326-3.692-3.111-3.47-3.132-5.363-.101-9.225.857-1.093 2.002-2.936 2.544-4.097.902-1.928.987-2.459.987-6.154 0-3.805-.066-4.183-1.104-6.374-.607-1.281-1.653-2.943-2.326-3.693-3.111-3.47-3.132-5.363-.101-9.225.857-1.092 2.002-2.935 2.544-4.096.902-1.928.987-2.46.987-6.155 0-3.804-.066-4.183-1.104-6.373-.607-1.282-1.653-2.943-2.326-3.693-2.314-2.581-2.918-4.749-1.88-6.745 1.334-2.561 4.225-3.83 6.638-2.914zm148.898 30.497c.705.334 1.57 1.19 2.076 2.053 1.428 2.436 1.134 3.933-1.405 7.17-.857 1.092-2.002 2.935-2.545 4.096-.901 1.927-.986 2.459-.986 6.154 0 3.804.065 4.183 1.104 6.374.607 1.281 1.653 2.943 2.326 3.693 3.111 3.47 3.132 5.362.101 9.225-.857 1.092-2.002 2.935-2.545 4.096-.901 1.928-.986 2.46-.986 6.154 0 3.805.065 4.184 1.104 6.374.607 1.282 1.653 2.943 2.326 3.693 3.111 3.47 3.132 5.363.101 9.225-.857 1.092-2.002 2.936-2.545 4.096-.901 1.928-.986 2.46-.986 6.155 0 3.804.065 4.183 1.104 6.374.607 1.281 1.653 2.943 2.326 3.693 2.206 2.46 2.791 4.262 2.032 6.258-.187.493-1.203 2.028-2.257 3.411-2.652 3.481-3.514 6.229-3.322 10.592.119 2.727.321 3.639 1.234 5.588.6 1.281 1.64 2.943 2.313 3.693 3.001 3.347 3.104 6.305.3 8.664-2.284 1.921-4.672 1.7-7.465-.692-1.041-.891-2.921-2.11-4.179-2.708-2.144-1.019-2.537-1.087-6.33-1.087-3.696 0-4.227.085-6.155.987-1.161.542-3.004 1.687-4.097 2.544-3.862 3.031-5.755 3.01-9.225-.101-.75-.673-2.412-1.719-3.693-2.326-2.191-1.039-2.569-1.104-6.374-1.104-3.695 0-4.227.085-6.155.987-1.16.542-3.004 1.687-4.096 2.544-3.863 3.031-5.755 3.01-9.225-.101-.75-.673-2.412-1.713-3.693-2.313-1.95-.913-2.862-1.115-5.589-1.234-4.363-.192-7.111.67-10.592 3.322-1.383 1.054-2.919 2.07-3.411 2.257-1.996.759-3.798.174-6.259-2.032-.75-.673-2.412-1.713-3.693-2.313-1.95-.913-2.861-1.115-5.589-1.234-4.065-.179-7.127.696-9.957 2.845a96.482 96.482 0 01-3.1 2.262c-3.2 2.184-7.778-.543-7.774-4.633.002-1.486.44-2.309 2.818-5.281 1.58-1.976 2.663-4.545 3.007-7.132l.23-1.741 1.984-.441c2.609-.58 4.795-1.712 7.091-3.673 2.966-2.531 5.497-2.59 8.267-.193 3.328 2.88 6.725 4.212 10.744 4.212 4.059 0 7.612-1.455 11.349-4.648 1.184-1.012 1.599-1.155 3.356-1.155 2.116 0 2.24.06 5.492 2.649 2.403 1.914 5.03 2.865 8.473 3.069 4.431.261 7.89-.932 11.409-3.937 3.059-2.61 5.466-2.601 8.505.033 2.846 2.467 5.704 3.681 9.172 3.897 6.805.423 12.649-2.941 15.648-9.007 1.273-2.575 1.307-2.749 1.3-6.533-.008-4.53-.658-6.61-2.97-9.514-2.59-3.252-2.65-3.376-2.65-5.491 0-1.758.143-2.172 1.155-3.357 3.505-4.101 4.832-7.648 4.564-12.194-.204-3.472-1.15-6.09-3.069-8.5-2.59-3.252-2.65-3.376-2.65-5.492 0-1.757.143-2.172 1.155-3.356 3.193-3.737 4.648-7.29 4.648-11.348 0-4.02-1.332-7.416-4.212-10.744-2.397-2.77-2.338-5.301.193-8.267 1.961-2.296 3.093-4.482 3.673-7.09l.441-1.984 1.741-.23c2.587-.344 5.157-1.427 7.133-3.008 3.797-3.036 5.24-3.453 7.784-2.245z"/></symbol><symbol viewBox="0 0 180 76" id="cornices" xmlns="http://www.w3.org/2000/svg"><path d="M30 24.875h120m0-18.75h30m-180 0h30m120 63.75h30m-180 0h30m0-15h120M5.625.5v75m22.5-75v75m120-75v75m26.25-75v75"/></symbol><symbol viewBox="0 0 180 180" id="curtain_" xmlns="http://www.w3.org/2000/svg"><path fill-rule="evenodd" clip-rule="evenodd" d="M0 15.812v15.812h10.547V21.083h10.547V180l5.361-.188c7.8-.273 12.465-1.753 18.548-5.882 6.089-4.132 11.674-5.394 17.973-4.06 2.686.57 4.727 1.541 8.817 4.195 7.074 4.589 10.375 5.606 18.207 5.606 7.883 0 11.374-1.101 18.771-5.92 5.559-3.622 9.069-4.66 14.467-4.279 3.519.248 6.506 1.219 9.593 3.118 8.122 4.998 10.218 5.945 14.989 6.777 1.701.296 4.891.539 7.089.539h3.997V21.083h10.547v10.541H180V0h-10.547v10.541H10.547V0H0v15.812zm53.086 74.31v69.039l-.967.213c-4.307.949-7.733 2.448-12.217 5.344-2.637 1.704-7.074 3.944-7.812 3.944-.363 0-.45-14.124-.45-73.79v-73.79h21.446v69.04zm31.64 4.75c0 58.8-.089 73.789-.439 73.786-.825-.006-4.148-1.728-7.41-3.84-1.791-1.16-4.437-2.652-5.878-3.316-2.384-1.097-3.53-1.478-6.4-2.123l-.966-.218V21.083h21.094v73.79zm31.641-4.75v69.039l-.967.218c-2.869.645-4.015 1.026-6.399 2.123-1.441.664-4.087 2.156-5.879 3.316-3.261 2.112-6.584 3.834-7.41 3.84-.35.003-.439-14.986-.439-73.786v-73.79h21.094v69.04zm31.992 4.75c0 59.666-.086 73.79-.449 73.79-.766 0-5.412-2.356-7.674-3.891-3.945-2.677-7.946-4.425-12.355-5.397l-.967-.213V21.083h21.445v73.79z"/></symbol><symbol viewBox="0 0 24 24" id="delete" xmlns="http://www.w3.org/2000/svg"><path d="M17.6 9.647L17 20H7L6.4 9.647H5V6.824h4.667v-.49a2.333 2.333 0 114.666-.001v.491H19v2.823h-1.4z"/><path d="M14.25 17.647V12M10 17.647V12m7.6-2.353L17 20H7L6.4 9.647m11.2 0H6.4m11.2 0H19V6.824h-4.667M6.4 9.647H5V6.824h4.667m4.666 0v-.491a2.333 2.333 0 10-4.666.001v.49m4.666 0H9.667"/></symbol><symbol viewBox="0 0 32 24" id="done" xmlns="http://www.w3.org/2000/svg"><path fill-rule="evenodd" clip-rule="evenodd" d="M10.336 18.91l-7.302-7.334L.6 14.021l9.736 9.779L31.2 2.845 28.766.4l-18.43 18.51z"/></symbol><symbol viewBox="0 0 18 13" id="done2" xmlns="http://www.w3.org/2000/svg"><path d="M1 7l4.95 4.95L16.556 1.343"/></symbol><symbol viewBox="0 0 24 24" id="edit-pencil" xmlns="http://www.w3.org/2000/svg"><path d="M19.93 8.259l-4.19-4.19a.785.785 0 00-1.11 0L3.11 15.59a.786.786 0 00-.23.556v4.19c0 .433.352.785.785.785h4.19a.785.785 0 00.555-.23L19.93 9.37a.785.785 0 000-1.111zm-12.4 11.29H4.45V16.47l7.07-7.07 3.078 3.079-7.069 7.069zm8.179-8.18l-3.078-3.078 2.554-2.555 3.079 3.078-2.555 2.555z"/></symbol><symbol viewBox="0 0 40 40" id="extra-2" xmlns="http://www.w3.org/2000/svg"><circle cx="20" cy="20" r="19"/><g clip-path="url(#ava)"><path d="M30.084 11.005h-2.241v-.255A2.74 2.74 0 0025.093 8h-13.45a2.74 2.74 0 00-2.75 2.75v2.702a2.74 2.74 0 002.75 2.75h13.45a2.74 2.74 0 002.75-2.75v-.406h1.223v4.737H18.368c-.558 0-1.018.46-1.018 1.018v1.992h-.607a1 1 0 00-.993.866l-.876 6.323C14.58 30.776 16.19 32 18.373 32c1.453 0 3.905-.563 3.499-4.018l-.876-6.323a1.006 1.006 0 00-.994-.866h-.611v-.974h10.698c.558 0 1.018-.46 1.018-1.018v-6.778a1.03 1.03 0 00-1.023-1.018zm-4.228 2.447a.784.784 0 01-.764.763H11.644a.784.784 0 01-.764-.763V10.75c0-.406.357-.763.763-.763h13.45c.405 0 .763.357.763.763v2.702zm-7.488 16.537c-.808 0-1.512-.642-1.512-1.733l.758-5.462h1.508l.758 5.462c0 1.326-.533 1.733-1.512 1.733z"/></g><defs><clipPath id="ava"><path transform="translate(8 8)" d="M0 0h24v24H0z"/></clipPath></defs></symbol><symbol viewBox="0 0 44 44" id="facebook2" xmlns="http://www.w3.org/2000/svg"><path d="M22 42.9c11.543 0 20.9-9.357 20.9-20.9S33.543 1.1 22 1.1 1.1 10.457 1.1 22 10.457 42.9 22 42.9z"/><path fill-rule="evenodd" clip-rule="evenodd" d="M23.452 30.96v-9.43h2.603l.345-3.251h-2.948l.004-1.628c0-.846.081-1.3 1.299-1.3h1.628V12.1h-2.605c-3.127 0-4.229 1.577-4.229 4.228v1.951H17.6v3.25h1.95v9.43h3.902z"/></symbol><symbol viewBox="0 0 24 24" id="favorite" xmlns="http://www.w3.org/2000/svg"><path d="M12 20S3 14.988 3 8.972c0-6.015 7-6.516 9-1.81 2-4.706 9-4.205 9 1.81C21 14.988 12 20 12 20z"/></symbol><symbol viewBox="0 0 24 24" id="favorite2" xmlns="http://www.w3.org/2000/svg"><path d="M12 20S3 14.988 3 8.972c0-6.015 7-6.516 9-1.81 2-4.706 9-4.205 9 1.81C21 14.988 12 20 12 20z"/><path d="M12 20l-.487.874a1 1 0 00.974 0L12 20zm0-12.838l-.92.391a1 1 0 001.84 0l-.92-.39zM2 8.972c0 3.474 2.56 6.49 4.835 8.516a29.62 29.62 0 004.645 3.367l.023.013.007.004a.077.077 0 01.003.001L12 20l.487-.873-.003-.002-.016-.01a9.69 9.69 0 01-.337-.198 27.649 27.649 0 01-3.965-2.922C5.94 14.012 4 11.515 4 8.972H2zm10.92-2.2c-1.18-2.78-3.873-4.067-6.313-3.715a5.17 5.17 0 00-3.248 1.79C2.499 5.872 2 7.27 2 8.972h2c0-1.304.376-2.225.891-2.84a3.17 3.17 0 012.002-1.096c1.56-.225 3.368.59 4.187 2.517l1.84-.782zm7.08 2.2c0 2.542-1.94 5.04-4.165 7.023a27.652 27.652 0 01-4.303 3.12l-.016.01-.003.001L12 20a154.744 154.744 0 00.488.873l.002-.001.007-.004.023-.013a15.49 15.49 0 00.384-.226 29.615 29.615 0 004.261-3.14C19.44 15.461 22 12.445 22 8.971h-2zm-7.08-1.419c.82-1.926 2.627-2.742 4.187-2.517a3.17 3.17 0 012.002 1.097c.515.614.891 1.535.891 2.84h2c0-1.704-.499-3.1-1.359-4.126a5.17 5.17 0 00-3.248-1.79c-2.44-.352-5.132.935-6.313 3.714l1.84.782z"/></symbol><symbol viewBox="0 0 24 24" id="fb" xmlns="http://www.w3.org/2000/svg"><path d="M13.397 20.997v-8.196h2.765l.411-3.209h-3.176V7.548c0-.926.258-1.56 1.587-1.56h1.684v-2.86A22.108 22.108 0 0014.201 3c-2.444 0-4.122 1.492-4.122 4.231v2.355H7.332v3.21h2.753v8.201h3.312z"/></symbol><symbol viewBox="0 0 16 16" id="fb-btn" xmlns="http://www.w3.org/2000/svg"><path d="M16 2.653C16 1.243 14.757 0 13.347 0H2.653C1.243 0 0 1.244 0 2.653v10.694C0 14.757 1.244 16 2.653 16H8.04V9.948H6.05V7.295h1.99V6.218c0-1.824 1.327-3.4 2.985-3.4h2.155v2.653h-2.155c-.249 0-.498.25-.498.747v1.077h2.653v2.653h-2.65V16h2.818C14.757 16 16 14.757 16 13.347V2.653z"/></symbol><symbol viewBox="0 0 25 24" id="filter" xmlns="http://www.w3.org/2000/svg"><path d="M14.023 15h7m-18 0h2m2.5 2.5a2.5 2.5 0 100-5 2.5 2.5 0 000 5zm12.5-8.5h1m-18 0h7m6.5 2.5a2.5 2.5 0 100-5 2.5 2.5 0 000 5z"/></symbol><symbol viewBox="0 0 24 24" id="home" xmlns="http://www.w3.org/2000/svg"><path d="M20 7.716l-6-4.991A3.094 3.094 0 0012 2c-.738 0-1.45.258-2 .725l-6 4.99c-.318.27-.571.601-.743.97-.173.37-.26.771-.257 1.175v8.293c0 .755.316 1.48.879 2.013A3.084 3.084 0 006 21h12c.796 0 1.559-.3 2.121-.834a2.775 2.775 0 00.88-2.013V9.851a2.724 2.724 0 00-.26-1.17 2.859 2.859 0 00-.74-.965zm-6 11.386h-4v-4.744c0-.252.105-.493.293-.671.188-.178.442-.278.707-.278h2c.265 0 .52.1.707.278.188.178.293.42.293.67v4.745zm5-.949a.925.925 0 01-.293.671 1.028 1.028 0 01-.707.278h-2v-4.744c0-.755-.316-1.48-.879-2.013a3.084 3.084 0 00-2.12-.834h-2c-.797 0-1.56.3-2.122.834A2.775 2.775 0 008 14.358v4.744H6c-.265 0-.52-.1-.707-.278a.925.925 0 01-.293-.67V9.85c0-.135.03-.268.09-.39a.954.954 0 01.25-.322l6-4.981c.183-.152.417-.236.66-.236.243 0 .478.084.66.236l6 4.981a.953.953 0 01.25.321.909.909 0 01.09.39v8.303z"/></symbol><symbol viewBox="0 0 24 24" id="instagram" xmlns="http://www.w3.org/2000/svg"><path d="M16.042 2H7.957A5.964 5.964 0 002 7.958v8.085A5.964 5.964 0 007.958 22h8.085A5.964 5.964 0 0022 16.042V7.957A5.964 5.964 0 0016.042 2zm3.946 14.042a3.946 3.946 0 01-3.946 3.946H7.957a3.947 3.947 0 01-3.945-3.946V7.957a3.947 3.947 0 013.946-3.945h8.085a3.947 3.947 0 013.945 3.946v8.085-.001z"/><path d="M11.998 6.444A5.563 5.563 0 006.444 12 5.563 5.563 0 0012 17.556a5.563 5.563 0 005.556-5.557 5.562 5.562 0 00-5.557-5.553v-.002zm0 8.951a3.395 3.395 0 110-6.79 3.395 3.395 0 010 6.79zm5.557-7.839a1.111 1.111 0 100-2.223 1.111 1.111 0 000 2.223z"/></symbol><symbol viewBox="0 0 24 24" id="instagram-svgrepo-com" xmlns="http://www.w3.org/2000/svg"><path d="M16.042 2H7.957A5.964 5.964 0 002 7.958v8.085A5.964 5.964 0 007.958 22h8.085A5.964 5.964 0 0022 16.042V7.957A5.964 5.964 0 0016.042 2zm3.946 14.042a3.946 3.946 0 01-3.946 3.946H7.957a3.947 3.947 0 01-3.945-3.946V7.957a3.947 3.947 0 013.946-3.945h8.085a3.947 3.947 0 013.945 3.946v8.085-.001z"/><path d="M11.998 6.444A5.563 5.563 0 006.444 12 5.563 5.563 0 0012 17.556a5.563 5.563 0 005.556-5.557 5.562 5.562 0 00-5.557-5.553v-.002zm0 8.951a3.395 3.395 0 110-6.79 3.395 3.395 0 010 6.79zm5.557-7.839a1.111 1.111 0 100-2.223 1.111 1.111 0 000 2.223z"/></symbol><symbol viewBox="0 0 44 44" id="instagram2" xmlns="http://www.w3.org/2000/svg"><path d="M22 42.9c11.543 0 20.9-9.357 20.9-20.9S33.543 1.1 22 1.1 1.1 10.457 1.1 22 10.457 42.9 22 42.9z"/><path fill-rule="evenodd" clip-rule="evenodd" d="M17.918 12.159c1.056-.047 1.394-.059 4.084-.059h-.003c2.688 0 3.024.012 4.081.059 1.053.05 1.774.215 2.406.46a4.84 4.84 0 011.752 1.143c.55.55.89 1.103 1.143 1.754.243.629.41 1.35.459 2.402.048 1.056.06 1.394.06 4.082 0 2.688-.012 3.026-.059 4.082-.05 1.053-.217 1.773-.46 2.402a4.863 4.863 0 01-1.144 1.754 4.842 4.842 0 01-1.751 1.143c-.631.245-1.35.41-2.406.459-1.056.048-1.391.06-4.08.06-2.688 0-3.026-.012-4.082-.059-1.054-.05-1.774-.215-2.403-.46a4.848 4.848 0 01-1.753-1.144 4.85 4.85 0 01-1.143-1.753c-.243-.63-.41-1.35-.459-2.402-.048-1.056-.06-1.394-.06-4.082 0-2.688.012-3.026.059-4.082.048-1.054.215-1.774.46-2.404a4.846 4.846 0 011.144-1.752 4.846 4.846 0 011.753-1.143c.63-.245 1.35-.41 2.402-.459v-.001zm3.752 1.726h-.559v-.003c-1.845.003-2.2.015-3.112.056-.965.044-1.489.205-1.838.341a3.08 3.08 0 00-1.14.741c-.328.32-.581.708-.74 1.138-.135.35-.296.873-.34 1.84-.049 1.042-.059 1.355-.059 3.998 0 2.644.01 2.958.059 4 .044.966.205 1.49.34 1.838.18.462.396.792.74 1.139a3.08 3.08 0 001.14.74c.35.135.873.296 1.838.34 1.044.049 1.357.06 4.001.06 2.643 0 2.957-.011 4-.06.965-.044 1.49-.205 1.837-.34a3.051 3.051 0 001.139-.74c.346-.347.561-.675.74-1.137.137-.35.298-.873.342-1.838.047-1.044.059-1.358.059-4s-.012-2.955-.059-4c-.044-.964-.205-1.488-.342-1.837a3.073 3.073 0 00-.74-1.138 3.061 3.061 0 00-1.139-.74c-.349-.136-.872-.297-1.837-.34-1.045-.05-1.357-.06-4-.06h-.33v.002z"/><path fill-rule="evenodd" clip-rule="evenodd" d="M27.286 15.528a1.188 1.188 0 100 2.376 1.188 1.188 0 000-2.376zM16.916 22a5.085 5.085 0 1110.169-.172A5.085 5.085 0 0116.917 22zm8.381 0a3.3 3.3 0 10-6.6 0 3.3 3.3 0 006.6 0z"/></symbol><symbol viewBox="0 0 24 24" id="like" xmlns="http://www.w3.org/2000/svg"><path d="M12 20l-.487.874a1 1 0 00.974 0L12 20zm0-12.838l-.92.391a1 1 0 001.84 0l-.92-.39zM2 8.972c0 3.474 2.56 6.49 4.835 8.516a29.62 29.62 0 004.645 3.367l.023.013.007.004a.077.077 0 01.003.001L12 20l.487-.873-.003-.002-.016-.01a9.69 9.69 0 01-.337-.198 27.649 27.649 0 01-3.965-2.922C5.94 14.012 4 11.515 4 8.972H2zm10.92-2.2c-1.18-2.78-3.873-4.067-6.313-3.715a5.17 5.17 0 00-3.248 1.79C2.499 5.872 2 7.27 2 8.972h2c0-1.304.376-2.225.891-2.84a3.17 3.17 0 012.002-1.096c1.56-.225 3.368.59 4.187 2.517l1.84-.782zm7.08 2.2c0 2.542-1.94 5.04-4.165 7.023a27.652 27.652 0 01-4.303 3.12l-.016.01-.003.001L12 20a154.744 154.744 0 00.488.873l.002-.001.007-.004.023-.013a15.49 15.49 0 00.384-.226 29.615 29.615 0 004.261-3.14C19.44 15.461 22 12.445 22 8.971h-2zm-7.08-1.419c.82-1.926 2.627-2.742 4.187-2.517a3.17 3.17 0 012.002 1.097c.515.614.891 1.535.891 2.84h2c0-1.704-.499-3.1-1.359-4.126a5.17 5.17 0 00-3.248-1.79c-2.44-.352-5.132.935-6.313 3.714l1.84.782z"/></symbol><symbol viewBox="0 0 24 24" id="map" xmlns="http://www.w3.org/2000/svg"><path d="M21.32 5.05l-6-2h-.07a.701.701 0 00-.14 0h-.43L9 5 3.32 3.05a1 1 0 00-.9.14A1 1 0 002 4v14a1 1 0 00.68.95l6 2a.995.995 0 00.62 0l5.7-1.9L20.68 21c.106.015.214.015.32 0a.94.94 0 00.58-.19A1.002 1.002 0 0022 20V6a1 1 0 00-.68-.95zM8 18.61l-4-1.33V5.39l4 1.33v11.89zm6-1.33l-4 1.33V6.72l4-1.33v11.89zm6 1.33l-4-1.33V5.39l4 1.33v11.89z"/></symbol><symbol viewBox="0 0 512 512" id="map-pin" xmlns="http://www.w3.org/2000/svg"><path d="M257.13 125.11c40.21 0 72.52 30.23 72.52 70.43 0 38.59-32.31 70.76-72.52 70.76-40.52 0-72.85-32.17-72.85-70.76 0-40.2 32.33-70.43 72.85-70.43zm181.54 52.42C438.67 78.79 358 0 257.13 0c-101 0-183.8 78.79-183.8 177.53 0 4.18 0 10.3 2.09 14.15h-2.09c0 96.81 183.8 320.32 183.8 320.32s181.54-223.51 181.54-320.32v-14.15z" fill-rule="evenodd"/></symbol><symbol viewBox="0 0 22 17" id="menu-small" xmlns="http://www.w3.org/2000/svg"><path fill-rule="evenodd" clip-rule="evenodd" d="M8.07 6H.948A.95.95 0 000 6.949v.102A.95.95 0 00.948 8h6.304a7.95 7.95 0 01.818-2zm8.981-6H.948A.95.95 0 000 .949v.102A.95.95 0 00.948 2h16.103A.952.952 0 0018 1.051V.949A.952.952 0 0017.051 0m-5.926 9.875a3.754 3.754 0 013.75-3.75 3.754 3.754 0 013.75 3.75 3.754 3.754 0 01-3.75 3.75 3.754 3.754 0 01-3.75-3.75zm9.817 5.183l-2.122-2.122a4.97 4.97 0 001.055-3.061c0-2.757-2.243-5-5-5s-5 2.243-5 5 2.243 5 5 5a4.97 4.97 0 003.06-1.055l2.123 2.122a.623.623 0 00.884 0 .624.624 0 000-.884z"/><path d="M18.82 12.936l-.316-.246-.216.279.25.25.282-.283zm-.884.884l.282-.283-.25-.25-.278.217.246.316zm2.122 2.122l.283-.283-.283.283zm-8.533-6.067a3.354 3.354 0 013.35-3.35v-.8a4.154 4.154 0 00-4.15 4.15h.8zm3.35-3.35a3.354 3.354 0 013.35 3.35h.8a4.154 4.154 0 00-4.15-4.15v.8zm3.35 3.35a3.354 3.354 0 01-3.35 3.35v.8a4.154 4.154 0 004.15-4.15h-.8zm-3.35 3.35a3.354 3.354 0 01-3.35-3.35h-.8a4.154 4.154 0 004.15 4.15v-.8zm6.35 1.55l-2.122-2.122-.566.565 2.122 2.123.566-.566zm-2.09-1.594a5.37 5.37 0 001.14-3.306h-.8a4.57 4.57 0 01-.97 2.815l.63.491zm1.14-3.306c0-2.978-2.422-5.4-5.4-5.4v.8c2.536 0 4.6 2.064 4.6 4.6h.8zm-5.4-5.4a5.406 5.406 0 00-5.4 5.4h.8c0-2.536 2.064-4.6 4.6-4.6v-.8zm-5.4 5.4c0 2.978 2.422 5.4 5.4 5.4v-.8a4.606 4.606 0 01-4.6-4.6h-.8zm5.4 5.4a5.37 5.37 0 003.306-1.14l-.49-.63a4.57 4.57 0 01-2.816.97v.8zm2.778-1.172l2.122 2.122.566-.566-2.123-2.122-.565.566zm2.122 2.122c.2.2.463.3.725.3v-.8a.223.223 0 01-.159-.066l-.566.566zm.725.3c.262 0 .525-.1.725-.3l-.566-.566a.223.223 0 01-.159.066v.8zm.725-.3c.4-.4.4-1.05 0-1.45l-.566.566a.224.224 0 010 .318l.566.566z"/><path fill-rule="evenodd" clip-rule="evenodd" d="M7.062 12H.948a.95.95 0 00-.948.949v.102A.95.95 0 00.948 14h6.634a7.947 7.947 0 01-.52-2z"/></symbol><symbol viewBox="0 0 24 24" id="metering" xmlns="http://www.w3.org/2000/svg"><path fill-rule="evenodd" clip-rule="evenodd" d="M7.353 4.026c-1.63.163-2.926.515-4.145 1.126-1.79.896-2.904 2.172-3.152 3.61-.054.313-.064.988-.051 3.633.015 3.222.016 3.25.122 3.597.42 1.377 1.49 2.48 3.207 3.307 1.196.576 2.415.907 3.872 1.053.314.032 3.272.049 8.395.049h7.91l.16-.107c.335-.224.323-.091.323-3.402 0-2.967 0-2.97-.103-3.153a.69.69 0 00-.296-.276c-.188-.09-.29-.093-3.343-.093h-3.149v-2.23c0-2.556-.006-2.608-.377-3.379-.93-1.93-3.435-3.326-6.63-3.696-.55-.064-2.256-.088-2.743-.04zm2.673 1.447c2.809.346 5.024 1.622 5.564 3.206.127.375.142.945.033 1.319-.262.894-1.2 1.81-2.471 2.412-1.224.58-2.612.891-4.205.944-2.748.09-5.305-.72-6.68-2.12-1.157-1.177-1.15-2.55.02-3.73C3.37 6.415 5.243 5.655 7.4 5.434c.486-.05 2.095-.026 2.626.04zM7.87 7.353l-.47.068c-1.102.162-2.061.705-2.375 1.344-.18.366-.187.859-.017 1.206.586 1.2 3.069 1.803 5.198 1.263.88-.223 1.62-.705 1.882-1.223.133-.265.178-.735.098-1.032-.155-.578-.906-1.16-1.836-1.422-.653-.184-1.911-.288-2.48-.204zm1.91 1.513c.408.101.887.317.997.45.059.071.05.093-.073.191-.464.372-1.728.603-2.694.493-.748-.085-1.418-.308-1.642-.547l-.104-.11.229-.145c.255-.162.833-.355 1.26-.42.457-.071 1.581-.022 2.027.088zM2.337 13.11c1.096.732 2.555 1.257 4.266 1.535.619.1.748.103 5.777.119l5.145.016v4.214h-1.453v-1.282c0-1.252-.003-1.285-.106-1.437-.17-.25-.333-.345-.593-.345a.556.556 0 00-.403.132c-.29.222-.305.297-.305 1.689v1.243h-1.359v-.696c0-.645-.007-.707-.106-.855-.21-.314-.636-.415-.925-.218-.325.22-.35.295-.367 1.07l-.015.7H10.54v-1.296c0-1.233-.004-1.303-.098-1.454-.266-.43-.928-.413-1.189.032-.088.151-.096.255-.11 1.44l-.014 1.277H7.83l-.016-.7c-.017-.774-.043-.849-.367-1.069-.289-.197-.715-.096-.925.218-.097.145-.106.213-.106.766v.606l-.193-.032c-.106-.018-.407-.09-.668-.16l-.475-.125-.024-1.056-.023-1.057-.128-.167c-.176-.23-.472-.342-.726-.274-.202.054-.42.241-.488.417-.022.06-.041.423-.041.808 0 .385-.017.7-.039.7-.021 0-.237-.13-.48-.288-.584-.382-1.185-.988-1.414-1.427-.298-.57-.317-.708-.317-2.329V12.38l.27.232c.148.128.448.353.667.5zm13.345.244c-.01.01-.3.012-.641.005l-.622-.013.37-.242c.203-.133.485-.342.627-.464l.257-.222.014.459c.007.252.005.466-.005.476zm6.905 3.508v2.086h-3.656v-2.055c0-1.13.014-2.069.031-2.086.018-.017.84-.031 1.829-.031h1.796v2.086zm-2.062-.674c-.426.17-.604.71-.354 1.078.366.539 1.206.356 1.315-.287.085-.507-.488-.98-.961-.791z"/></symbol><symbol viewBox="0 0 44 44" id="odnoklassniki" xmlns="http://www.w3.org/2000/svg"><path d="M22 42.9c11.543 0 20.9-9.357 20.9-20.9S33.543 1.1 22 1.1 1.1 10.457 1.1 22 10.457 42.9 22 42.9z"/><path fill-rule="evenodd" clip-rule="evenodd" d="M23.983 26.523a9.392 9.392 0 002.845-1.138 1.359 1.359 0 00.45-1.91 1.467 1.467 0 00-1.98-.436 6.412 6.412 0 01-6.598 0 1.465 1.465 0 00-1.98.435 1.358 1.358 0 00.45 1.911 9.392 9.392 0 002.846 1.138l-2.74 2.645a1.352 1.352 0 000 1.96c.273.262.638.407 1.016.405.367 0 .735-.134 1.017-.404l2.691-2.6 2.693 2.6a1.47 1.47 0 002.03 0 1.351 1.351 0 000-1.961l-2.74-2.645zm2.905-8.591c0 2.607-2.197 4.73-4.9 4.73-2.703 0-4.901-2.123-4.901-4.73 0-2.611 2.2-4.732 4.901-4.732 2.702 0 4.9 2.123 4.9 4.732zm-2.874 0c0-1.081-.91-1.958-2.03-1.958-1.118 0-2.029.877-2.029 1.958 0 1.08.91 1.958 2.029 1.958 1.119 0 2.03-.88 2.03-1.958z"/></symbol><symbol viewBox="0 0 24 24" id="plus" xmlns="http://www.w3.org/2000/svg"><path d="M6 12h12m-6 6V6"/></symbol><symbol viewBox="0 0 24 24" id="search" xmlns="http://www.w3.org/2000/svg"><path fill-rule="evenodd" clip-rule="evenodd" d="M5 11c0-3.309 2.691-6 6-6s6 2.691 6 6-2.691 6-6 6-6-2.691-6-6zm15.707 8.293l-3.395-3.396A7.952 7.952 0 0019 11c0-4.411-3.589-8-8-8s-8 3.589-8 8 3.589 8 8 8a7.952 7.952 0 004.897-1.688l3.396 3.395a.997.997 0 001.414 0 .999.999 0 000-1.414z"/></symbol><symbol viewBox="0 0 24 24" id="tel" xmlns="http://www.w3.org/2000/svg"><path d="M9.503 4.257l-.929.372.929-.372zm1.054 2.636l.929-.372-.929.372zm-.32 2.023l.768.64-.768-.64zm-.568.68l.768.641-.768-.64zm.122 2.695L9.084 13l.707-.708zm1.918 1.918l.707-.708-.707.708zm2.694.122l-.64-.768.64.768zm.681-.568l.64.769-.64-.769zm2.023-.32l-.371.928.371-.928zm2.636 1.054l.371-.928-.371.928zM4.895 4h2.75V2h-2.75v2zm3.68.629l1.054 2.635 1.857-.743-1.055-2.635-1.857.743zm.893 3.647l-.567.68 1.537 1.281.567-.68-1.537-1.281zm-.384 4.723l1.917 1.917 1.415-1.415-1.917-1.917L9.084 13zm5.96 2.1l.68-.567-1.28-1.537-.681.568 1.28 1.536zm1.692-.728l2.635 1.055.743-1.857-2.636-1.055-.742 1.857zM20 16.354v2.751h2v-2.75h-2zM19.105 20C10.763 20 4 13.237 4 4.895H2C2 14.342 9.658 22 19.105 22v-2zm.895-.895c0 .494-.4.895-.895.895v2A2.895 2.895 0 0022 19.105h-2zm-.629-3.68a1 1 0 01.629.93h2a3 3 0 00-1.886-2.786l-.743 1.857zm-3.647-.893a1 1 0 011.012-.16l.742-1.858a3 3 0 00-3.034.481l1.28 1.537zm-4.723.384a3 3 0 004.042.183l-1.28-1.537a1 1 0 01-1.347-.06L11 14.915zm-2.1-5.96A3 3 0 009.084 13l1.415-1.415a1 1 0 01-.062-1.347l-1.536-1.28zm.728-1.692a1 1 0 01-.16 1.012l1.536 1.28a3 3 0 00.48-3.035l-1.856.743zM7.646 4a1 1 0 01.928.629l1.857-.743A3 3 0 007.646 2v2zM4.895 2A2.895 2.895 0 002 4.895h2C4 4.4 4.4 4 4.895 4V2z"/></symbol><symbol viewBox="0 0 24 24" id="telegram" xmlns="http://www.w3.org/2000/svg"><path d="M20.446 3.002a2.389 2.389 0 00-.755.181h-.003c-.23.092-1.325.556-2.988 1.259l-5.965 2.53a17641.01 17641.01 0 00-8.485 3.602l.051-.02s-.29.096-.593.306a1.646 1.646 0 00-.474.46c-.148.22-.268.557-.224.903.073.588.452.941.723 1.135.274.197.536.29.536.29h.007l3.944 1.338c.177.572 1.203 3.967 1.449 4.749.145.467.287.76.464.982.085.114.186.21.306.286a.895.895 0 00.199.086l-.041-.01c.012.003.022.013.031.016.032.01.054.013.095.02.625.19 1.127-.201 1.127-.201l.028-.022 2.329-2.136 3.904 3.016.088.038c.814.36 1.638.16 2.073-.194.439-.355.61-.81.61-.81l.028-.073 3.017-15.567c.085-.384.107-.743.012-1.093a1.469 1.469 0 00-.63-.852 1.503 1.503 0 00-.862-.22zm-.083 1.669c-.003.05.007.044-.015.143v.01l-2.989 15.403c-.012.023-.035.07-.094.118-.064.05-.114.083-.376-.022l-4.775-3.688-2.884 2.648.606-3.897s7.48-7.022 7.8-7.324c.323-.302.216-.365.216-.365.022-.369-.486-.108-.486-.108l-9.837 6.138-.003-.016-4.715-1.599v-.003l-.012-.003c.003 0 .025-.01.025-.01l.025-.012.025-.01 8.49-3.602c2.142-.909 4.3-1.824 5.96-2.53a851 851 0 012.957-1.246c.067-.025.035-.025.082-.025z"/></symbol><symbol viewBox="0 0 180 140" id="towels" xmlns="http://www.w3.org/2000/svg"><path fill-rule="evenodd" clip-rule="evenodd" d="M23.565.774c-2.646.196-3.67.451-5.583 1.394C11.947 5.139 8.37 11.74 9.37 18.056c.386 2.433 1.588 5.43 2.794 6.963l.724.92-2.766 2.854C5.876 33.175 3.714 36.795 2.415 41.7c-.832 3.142-.822 9.935.02 13.032 1.733 6.377 5.936 12.396 11.034 15.801l1.83 1.223-3.81 3.757c-4.245 4.184-6.09 6.724-8.337 11.473C.426 92.75 0 94.854 0 102.551c0 5.996.087 7 .828 9.525 4.08 13.907 14.857 23.872 29.328 27.116 3.348.751 3.4.751 64.192.751h60.841l3.453-1.195c9.679-3.352 16.241-10.333 18.643-19.835.628-2.481.713-3.61.556-7.354-.208-4.971-.677-6.829-2.844-11.287-1.151-2.366-2.136-3.698-4.754-6.427l-3.303-3.441.749-1.052c3.125-4.39 3.656-10.149 1.42-15.394-.335-.786-1.431-2.417-2.434-3.623l-1.824-2.192 1.163-.963c4.541-3.76 7.714-7.787 10.206-12.957 2.45-5.082 3.479-8.98 3.725-14.11.529-11.005-2.768-19.8-10.403-27.752-4.814-5.014-10.446-8.41-17.175-10.36-2.403-.696-4.501-.995-8.641-1.233-6.291-.36-115.28-.356-120.16.006zm56.322 11.1c7.261 1.793 14.302 7.317 17.782 13.952 2.359 4.497 2.798 6.34 2.812 11.818.011 4.181-.112 5.344-.8 7.584-1.735 5.643-5.44 10.999-9.847 14.234-2.454 1.802-6.41 3.687-9.507 4.53-2.603.708-3.727.75-23.718.894-11.543.082-23.486.003-26.543-.177-5.41-.318-5.626-.361-8.223-1.645-6.576-3.25-10.387-10.306-9.333-17.28 1.104-7.298 7.098-13.133 14.394-14.013 1.502-.181 12.715-.282 25.006-.226 21.937.1 22.298.113 23.278.836 2.679 1.975 2.859 4.967.438 7.27l-1.377 1.31-22.663.105c-24.7.115-23.755.033-25.36 2.173-1.126 1.499-1.174 4.65-.094 6.108 1.511 2.042.92 1.99 24.48 2.16 15.259.111 22.457.038 24.273-.246 10.846-1.694 16.498-13.58 10.895-22.91-1.87-3.113-5.539-6.014-8.637-6.83-.752-.198-12.643-.461-27.867-.618l-26.555-.272-.901-.842c-2.542-2.375-2.537-6.428.01-7.796 1.53-.821 5.606-.93 30.37-.809 21.829.107 25.716.204 27.687.69zm69.936.295c8.774 3.063 14.643 8.394 17.77 16.139 2.8 6.932 2.48 14.297-.925 21.33-3.378 6.975-9.819 12.233-17.601 14.368-2.58.708-3.687.747-25.709.89-12.658.083-23.014.043-23.014-.09 0-.132.69-1.06 1.533-2.06 3.701-4.396 6.469-9.532 8.204-15.227.901-2.956.968-3.607.968-9.523 0-5.887-.07-6.58-.956-9.524-1.742-5.786-4.78-11.394-8.047-14.847-.986-1.043-1.661-2.044-1.525-2.263.175-.284 6.651-.36 23.399-.272l23.157.12 2.746.96zM79.146 76.182c-.261.34-1.048 1.332-1.748 2.205-3.568 4.446-6.344 9.624-7.755 14.463-1.053 3.61-1.362 12.305-.585 16.425 1.126 5.969 4.27 12.485 8.41 17.434l1.99 2.378-2.66.225c-3.445.291-21.003.238-34.474-.104-10.503-.268-10.602-.277-13.402-1.301-4.669-1.705-7.47-3.475-10.767-6.801-3.123-3.15-5.164-6.442-6.75-10.889-1.052-2.945-1.303-9.976-.487-13.64 2.409-10.832 12.686-19.81 23.647-20.66 1.746-.135 12.598-.27 24.115-.299 19.894-.05 20.917-.022 20.466.564zm78.456.196c2.923 1.916 3.098 5.995.338 7.866-.941.637-2.223.679-27.088.876-27.933.221-27.066.162-30.861 2.097-1.917.978-4.936 3.807-6.142 5.756-2.059 3.329-2.567 8.556-1.219 12.549 1.442 4.27 4.937 7.84 9.393 9.596 1.99.785 2.326.8 19.659.925 9.699.07 20.448-.006 23.885-.168l6.25-.296 1.076-1.031c2.386-2.286 2.211-5.49-.421-7.743l-1.466-1.256-20.658-.018c-11.362-.01-21.751-.139-23.087-.287-2.191-.244-2.545-.397-3.615-1.564-1.008-1.1-1.186-1.554-1.186-3.016 0-1.956.694-3.08 2.647-4.288l1.225-.757 23.371.133c22.829.13 23.423.15 25.662.896 7.315 2.434 11.979 8.511 11.976 15.604-.001 1.455-.162 3.342-.358 4.193-1.231 5.342-5.525 9.989-11.089 12.002-2.111.763-2.174.765-28.745.658l-26.629-.107-2.476-.916c-6.126-2.269-10.988-5.828-14.178-10.382-3.022-4.313-4.687-9.756-4.68-15.294.007-4.662.642-7.432 2.637-11.496 4.158-8.476 12.615-14.323 21.695-15.001 1.843-.138 14.547-.232 28.232-.21 23.348.04 24.941.082 25.852.679z"/></symbol><symbol viewBox="0 0 40 40" id="trolley-cart" xmlns="http://www.w3.org/2000/svg"><path fill-rule="evenodd" clip-rule="evenodd" d="M.665.19c-.887.597-.887 1.69 0 2.288.276.186.326.19 2.6.19h2.318l.082.312c.19.731 4.592 19.512 4.592 19.596 0 .05-.103.114-.23.141-1.45.31-2.609 1.246-3.117 2.518-.16.402-.191.633-.191 1.438 0 .808.03 1.034.194 1.444.438 1.097 1.455 2.045 2.562 2.387.542.167.713.17 12.406.17h11.856l.282-.19c.887-.598.887-1.69 0-2.288l-.282-.19H10.45l-.363-.192c-.395-.209-.747-.745-.747-1.137 0-.416.345-.948.747-1.15l.372-.188h11.685c11.467 0 11.694-.003 12.226-.168a4.104 4.104 0 002.453-2.145c.117-.254.832-3.107 1.703-6.793 1.47-6.23 1.5-6.37 1.465-7.106-.043-.919-.259-1.52-.798-2.231a4.19 4.19 0 00-1.981-1.392c-.544-.168-.702-.17-14.376-.17H9.01l-.046-.187c-.026-.103-.266-1.12-.534-2.259C7.923.732 7.841.528 7.34.188 7.068.002 7.042 0 4.007 0 .962 0 .945 0 .666.19zm36 8.02c.396.24.631.66.625 1.12-.007.498-2.822 12.383-3.011 12.713-.08.14-.312.338-.516.441l-.37.188H23.249c-9.59 0-10.148-.008-10.19-.146-.094-.312-3.384-14.344-3.384-14.432 0-.07 3.505-.088 13.357-.072 13.19.021 13.36.024 13.633.188zM13.6 32.134c-1.397.391-2.557 1.623-2.848 3.022-.134.646-.056 1.695.171 2.296.416 1.097 1.447 2.05 2.597 2.4.747.226 1.86.19 2.582-.085 1.025-.391 1.94-1.304 2.328-2.323.279-.731.316-1.84.088-2.59-.349-1.15-1.3-2.179-2.4-2.599-.634-.242-1.874-.302-2.518-.121zm14.67 0c-1.397.391-2.557 1.623-2.848 3.022-.134.646-.056 1.695.171 2.296.415 1.097 1.447 2.05 2.597 2.4.746.226 1.86.19 2.581-.085 1.026-.391 1.94-1.304 2.33-2.323.278-.731.315-1.84.087-2.59-.349-1.15-1.3-2.179-2.4-2.599-.634-.242-1.874-.302-2.518-.121zm-13.041 2.713c1.239.6.82 2.443-.554 2.443-.748 0-1.283-.534-1.283-1.282 0-.524.237-.913.698-1.146.458-.233.684-.235 1.139-.015zm14.67 0c1.238.6.82 2.443-.554 2.443a1.296 1.296 0 01-1.119-1.955c.177-.31.768-.66 1.11-.66.113 0 .367.077.563.172z"/></symbol><symbol viewBox="0 0 1792 1792" id="undo" xmlns="http://www.w3.org/2000/svg"><path d="M1664 896q0 156-61 298t-164 245-245 164-298 61q-172 0-327-72.5T305 1387q-7-10-6.5-22.5t8.5-20.5l137-138q10-9 25-9 16 2 23 12 73 95 179 147t225 52q104 0 198.5-40.5T1258 1258t109.5-163.5T1408 896t-40.5-198.5T1258 534t-163.5-109.5T896 384q-98 0-188 35.5T548 521l137 138q31 30 14 69-17 40-59 40H192q-26 0-45-19t-19-45V256q0-42 40-59 39-17 69 14l130 129q107-101 244.5-156.5T896 128q156 0 298 61t245 164 164 245 61 298z"/></symbol><symbol viewBox="0 0 24 24" id="user" xmlns="http://www.w3.org/2000/svg"><path d="M4 21c0-2.761 3.582-5 8-5s8 2.239 8 5m-8-8a5 5 0 100-10 5 5 0 000 10z"/></symbol><symbol viewBox="0 0 24 24" id="viber" xmlns="http://www.w3.org/2000/svg"><path d="M8.022 6.29a.81.81 0 00-.53.104H7.48a4.06 4.06 0 00-.987.812c-.236.273-.364.549-.398.815-.02.158-.007.317.04.468l.017.01c.266.782.614 1.534 1.038 2.241a13.18 13.18 0 002.001 2.736l.024.033.037.027.023.028.027.023c.825.784 1.746 1.46 2.743 2.01 1.138.62 1.829.914 2.243 1.035v.007c.122.037.233.053.344.053.353-.026.688-.169.95-.407.32-.284.59-.619.802-.99v-.007c.199-.374.132-.728-.155-.967a11.949 11.949 0 00-1.853-1.33c-.441-.24-.89-.095-1.071.148l-.388.488c-.198.242-.56.209-.56.209l-.01.006c-2.691-.687-3.41-3.412-3.41-3.412s-.033-.371.216-.56l.485-.39c.233-.19.394-.637.145-1.079-.38-.66-.825-1.28-1.327-1.853a.737.737 0 00-.435-.26l.002.002zm4.548-1.185a.493.493 0 100 .986c1.246 0 2.281.407 3.1 1.187.42.428.749.933.964 1.487.216.555.314 1.147.289 1.74a.493.493 0 00.985.042 5.282 5.282 0 00-.356-2.14 5.364 5.364 0 00-1.186-1.827l-.01-.01c-1.015-.97-2.302-1.465-3.787-1.465z"/><path d="M12.536 6.726a.493.493 0 000 .986h.016c.9.063 1.554.363 2.013.855.47.507.713 1.136.695 1.915a.493.493 0 00.985.023c.024-1.023-.305-1.904-.958-2.609-.668-.716-1.583-1.095-2.685-1.169h-.066z"/><path d="M12.518 8.377a.493.493 0 00-.052.984c.412.022.675.145.84.312.167.168.291.437.314.858a.493.493 0 10.984-.053c-.032-.591-.217-1.114-.597-1.498-.38-.385-.9-.572-1.49-.603z"/><path fill-rule="evenodd" clip-rule="evenodd" d="M7.136 2.526a21.833 21.833 0 019.526 0l.334.075a5.081 5.081 0 013.816 3.708 19.435 19.435 0 010 9.561 5.081 5.081 0 01-3.816 3.709l-.334.075a21.8 21.8 0 01-5.99.49l-2.616 2.34a.74.74 0 01-1.222-.428l-.432-2.584a5.081 5.081 0 01-3.416-3.602 19.434 19.434 0 010-9.56A5.08 5.08 0 016.802 2.6l.334-.074zm9.203 1.443a20.355 20.355 0 00-8.88 0l-.335.074a3.602 3.602 0 00-2.705 2.63 17.956 17.956 0 000 8.833 3.602 3.602 0 002.705 2.63l.089.02a.74.74 0 01.568.599l.29 1.733 1.845-1.652a.739.739 0 01.545-.186 20.356 20.356 0 005.878-.44l.334-.074a3.602 3.602 0 002.706-2.63 17.957 17.957 0 000-8.833 3.602 3.602 0 00-2.706-2.63l-.334-.074z"/></symbol><symbol viewBox="0 0 24 24" id="vk" xmlns="http://www.w3.org/2000/svg"><path d="M21.579 6.855c.14-.465 0-.806-.662-.806h-2.193c-.558 0-.813.295-.953.619 0 0-1.115 2.719-2.695 4.482-.51.513-.743.675-1.021.675-.139 0-.341-.162-.341-.627V6.855c0-.558-.161-.806-.626-.806H9.642c-.348 0-.558.258-.558.504 0 .528.79.65.871 2.138v3.228c0 .707-.127.836-.407.836-.743 0-2.551-2.73-3.624-5.853-.209-.607-.42-.852-.98-.852H2.752c-.627 0-.752.295-.752.619 0 .582.743 3.462 3.461 7.27 1.812 2.602 4.363 4.012 6.687 4.012 1.393 0 1.565-.313 1.565-.853v-1.966c0-.626.133-.752.574-.752.324 0 .882.164 2.183 1.417 1.486 1.486 1.732 2.153 2.567 2.153h2.192c.626 0 .939-.313.759-.931-.197-.615-.907-1.51-1.849-2.57-.512-.603-1.277-1.253-1.51-1.578-.325-.42-.231-.604 0-.976.001 0 2.672-3.761 2.95-5.04z"/></symbol><symbol viewBox="0 0 44 44" id="vkontakte" xmlns="http://www.w3.org/2000/svg"><path d="M22 42.9c11.543 0 20.9-9.357 20.9-20.9S33.543 1.1 22 1.1 1.1 10.457 1.1 22 10.457 42.9 22 42.9z"/><path fill-rule="evenodd" clip-rule="evenodd" d="M22.971 28.641s.358-.038.54-.232c.168-.176.161-.51.161-.51s-.02-1.558.716-1.788c.726-.226 1.659 1.506 2.649 2.174.748.503 1.315.393 1.315.393l2.645-.037s1.383-.083.727-1.15c-.054-.088-.383-.792-1.965-2.233-1.66-1.511-1.438-1.266.56-3.88 1.216-1.591 1.701-2.562 1.55-2.977-.145-.398-1.04-.294-1.04-.294l-2.977.02s-.22-.03-.384.066c-.16.093-.264.313-.264.313s-.47 1.232-1.099 2.28c-1.326 2.208-1.855 2.326-2.072 2.188-.505-.32-.379-1.285-.379-1.97 0-2.141.332-3.036-.643-3.266-.323-.076-.562-.126-1.39-.135-1.063-.012-1.962.003-2.47.248-.338.161-.602.525-.44.547.196.025.642.117.878.433.305.407.293 1.323.293 1.323s.176 2.52-.409 2.833c-.4.214-.95-.224-2.133-2.23a18.48 18.48 0 01-1.063-2.16s-.088-.212-.246-.327c-.19-.138-.456-.18-.456-.18l-2.83.017s-.425.012-.58.194c-.138.161-.01.494-.01.494s2.214 5.087 4.722 7.65c2.3 2.35 4.91 2.196 4.91 2.196h1.184z"/></symbol><symbol viewBox="0 0 24 24" id="whatsapp" xmlns="http://www.w3.org/2000/svg"><path fill-rule="evenodd" clip-rule="evenodd" d="M19.086 4.907a9.896 9.896 0 00-3.23-2.156A9.934 9.934 0 0012.043 2c-5.488 0-9.957 4.446-9.959 9.91a9.86 9.86 0 001.33 4.955L2 22l5.279-1.379a10 10 0 004.759 1.207h.004c5.488 0 9.956-4.446 9.958-9.91a9.816 9.816 0 00-2.914-7.011zm-7.044 15.248h-.003a8.29 8.29 0 01-4.213-1.149l-.302-.179-3.132.818.835-3.04-.197-.31a8.194 8.194 0 01-1.265-4.384c.002-4.542 3.715-8.237 8.28-8.237a8.257 8.257 0 015.852 2.415 8.158 8.158 0 012.422 5.828c-.003 4.542-3.716 8.238-8.277 8.238zm4.54-6.17c-.25-.125-1.472-.723-1.7-.806-.228-.083-.393-.124-.56.124-.166.247-.643.804-.788.97-.145.166-.29.186-.539.062-.248-.124-1.05-.385-2.001-1.229-.74-.657-1.24-1.467-1.384-1.715-.146-.249-.016-.382.11-.506.111-.11.248-.29.372-.434.124-.145.165-.247.248-.413.084-.165.043-.31-.02-.434s-.56-1.343-.768-1.839c-.2-.48-.406-.416-.56-.423-.158-.006-.316-.01-.475-.009a.92.92 0 00-.665.31c-.228.248-.87.846-.87 2.065 0 1.219.892 2.397 1.016 2.563.124.165 1.755 2.666 4.25 3.739.595.255 1.059.407 1.42.522.595.189 1.137.161 1.567.098.478-.07 1.472-.598 1.679-1.177.207-.578.207-1.074.145-1.178-.062-.103-.23-.166-.477-.29z"/></symbol><symbol viewBox="0 0 44 44" id="youtube" xmlns="http://www.w3.org/2000/svg"><path d="M22 42.9c11.543 0 20.9-9.357 20.9-20.9S33.543 1.1 22 1.1 1.1 10.457 1.1 22 10.457 42.9 22 42.9z"/><path fill-rule="evenodd" clip-rule="evenodd" d="M29.925 16.343c.528.546.7 1.785.7 1.785s.175 1.456.175 2.911v1.364c0 1.457-.176 2.912-.176 2.912s-.171 1.239-.7 1.784c-.602.646-1.271.713-1.65.751l-.112.012c-2.464.182-6.162.188-6.162.188s-4.576-.044-5.984-.18a2.438 2.438 0 00-.239-.034c-.446-.056-1.145-.141-1.701-.736-.528-.546-.7-1.785-.7-1.785s-.176-1.455-.176-2.91V21.04c0-1.457.176-2.913.176-2.913s.172-1.24.7-1.785c.604-.645 1.273-.711 1.651-.748l.112-.013c2.464-.182 6.157-.182 6.157-.182h.009s3.693 0 6.157.182l.111.011c.378.039 1.047.103 1.652.75zm-9.745 2.662v5.053l4.756-2.519-4.756-2.534z"/></symbol></svg>