<?xml version="1.0" encoding="utf-8"?><svg xmlns="http://www.w3.org/2000/svg" xmlns:xlink="http://www.w3.org/1999/xlink"><symbol viewBox="0 0 20 20" id="arrow-left" xmlns="http://www.w3.org/2000/svg"><g clip-path="url(#aaa)"><path d="M7 16l-6-6 6-6m-5.5 6H20"/></g><defs><clipPath id="aaa"><path transform="matrix(-1 0 0 1 20 0)" d="M0 0h20v20H0z"/></clipPath></defs></symbol><symbol viewBox="0 0 20 20" id="arrow-right" xmlns="http://www.w3.org/2000/svg"><g clip-path="url(#aba)"><path d="M13 16l6-6-6-6m5.5 6H0"/></g><defs><clipPath id="aba"><path d="M0 0h20v20H0z"/></clipPath></defs></symbol><symbol viewBox="0 0 24 24" id="basket" xmlns="http://www.w3.org/2000/svg"><path d="M17 20a1 1 0 112 0 1 1 0 01-2 0zM7 20a1 1 0 112 0 1 1 0 01-2 0zM3 3h.768a1 1 0 01.983.818L7 16M5.5 6h14.243a1 1 0 01.974 1.225l-1.846 8a1 1 0 01-.974.775H7"/></symbol><symbol viewBox="0 0 344.96 344.96" id="check" xmlns="http://www.w3.org/2000/svg"><g data-name="Слой 2"><path class="adcls-1" d="M321.85 86.24l-40-23.11-23.1-40H212.5L172.48 0l-40 23.11H86.24l-23.11 40-40 23.1v46.21L0 172.48l23.11 40v46.21l40 23.11 23.11 40h46.21l40 23.1 40-23.11h46.21l23.11-40 40-23.11V212.5l23.11-40-23.11-40V86.24zM156.91 243.07a16.79 16.79 0 01-23.34 0l-50.45-50.44a16.19 16.19 0 010-22.89l13.35-13.35a16.19 16.19 0 0122.89 0l25.87 25.87 80.34-80.35a16.19 16.19 0 0122.89 0l13.35 13.35a16.19 16.19 0 010 22.89z" data-name="Capa 1"/></g></symbol><symbol viewBox="0 0 24 24" id="chevron-accordion" xmlns="http://www.w3.org/2000/svg"><path d="M16.707 10.707a1 1 0 00-1.414-1.414l1.414 1.414zM12 14l-.707.707a1 1 0 001.414 0L12 14zM8.707 9.293a1 1 0 00-1.414 1.414l1.414-1.414zm6.586 0l-4 4 1.414 1.414 4-4-1.414-1.414zm-2.586 4l-4-4-1.414 1.414 4 4 1.414-1.414z"/></symbol><symbol viewBox="0 0 16 16" id="chevron-down" xmlns="http://www.w3.org/2000/svg"><path fill-rule="evenodd" clip-rule="evenodd" d="M13.111 6.74l-1.253-1.184L7.778 9.4l-4.08-3.845L2.445 6.74l5.333 5.038 5.333-5.038z"/></symbol><symbol viewBox="0 0 24 24" id="chevron-left" xmlns="http://www.w3.org/2000/svg"><path d="M13.293 16.707a1 1 0 001.414-1.414l-1.414 1.414zM10 12l-.707-.707a1 1 0 000 1.414L10 12zm4.707-3.293a1 1 0 00-1.414-1.414l1.414 1.414zm0 6.586l-4-4-1.414 1.414 4 4 1.414-1.414zm-4-2.586l4-4-1.414-1.414-4 4 1.414 1.414z"/></symbol><symbol viewBox="0 0 24 24" id="chevron-right" xmlns="http://www.w3.org/2000/svg"><path d="M10.707 7.293a1 1 0 00-1.414 1.414l1.414-1.414zM14 12l.707.707a1 1 0 000-1.414L14 12zm-4.707 3.293a1 1 0 101.414 1.414l-1.414-1.414zm0-6.586l4 4 1.414-1.414-4-4-1.414 1.414zm4 2.586l-4 4 1.414 1.414 4-4-1.414-1.414z"/></symbol><symbol viewBox="0 0 24 24" id="close" xmlns="http://www.w3.org/2000/svg"><path d="M16 16L8 8m8 0l-8 8"/></symbol><symbol viewBox="0 0 44 44" id="facebook2" xmlns="http://www.w3.org/2000/svg"><path d="M22 42.9c11.543 0 20.9-9.357 20.9-20.9S33.543 1.1 22 1.1 1.1 10.457 1.1 22 10.457 42.9 22 42.9z"/><path fill-rule="evenodd" clip-rule="evenodd" d="M23.452 30.96v-9.43h2.603l.345-3.251h-2.948l.004-1.628c0-.846.081-1.3 1.299-1.3h1.628V12.1h-2.605c-3.127 0-4.229 1.577-4.229 4.228v1.951H17.6v3.25h1.95v9.43h3.902z"/></symbol><symbol viewBox="0 0 24 24" id="fb" xmlns="http://www.w3.org/2000/svg"><path d="M13.397 20.997v-8.196h2.765l.411-3.209h-3.176V7.548c0-.926.258-1.56 1.587-1.56h1.684v-2.86A22.108 22.108 0 0014.201 3c-2.444 0-4.122 1.492-4.122 4.231v2.355H7.332v3.21h2.753v8.201h3.312z"/></symbol><symbol viewBox="0 0 16 16" id="fb-btn" xmlns="http://www.w3.org/2000/svg"><path d="M16 2.653C16 1.243 14.757 0 13.347 0H2.653C1.243 0 0 1.244 0 2.653v10.694C0 14.757 1.244 16 2.653 16H8.04V9.948H6.05V7.295h1.99V6.218c0-1.824 1.327-3.4 2.985-3.4h2.155v2.653h-2.155c-.249 0-.498.25-.498.747v1.077h2.653v2.653h-2.65V16h2.818C14.757 16 16 14.757 16 13.347V2.653z"/></symbol><symbol viewBox="0 0 25 24" id="filter" xmlns="http://www.w3.org/2000/svg"><path d="M14.023 15h7m-18 0h2m2.5 2.5a2.5 2.5 0 100-5 2.5 2.5 0 000 5zm12.5-8.5h1m-18 0h7m6.5 2.5a2.5 2.5 0 100-5 2.5 2.5 0 000 5z"/></symbol><symbol viewBox="0 0 24 24" id="home" xmlns="http://www.w3.org/2000/svg"><path d="M20 7.716l-6-4.991A3.094 3.094 0 0012 2c-.738 0-1.45.258-2 .725l-6 4.99c-.318.27-.571.601-.743.97-.173.37-.26.771-.257 1.175v8.293c0 .755.316 1.48.879 2.013A3.084 3.084 0 006 21h12c.796 0 1.559-.3 2.121-.834a2.775 2.775 0 00.88-2.013V9.851a2.724 2.724 0 00-.26-1.17 2.859 2.859 0 00-.74-.965zm-6 11.386h-4v-4.744c0-.252.105-.493.293-.671.188-.178.442-.278.707-.278h2c.265 0 .52.1.707.278.188.178.293.42.293.67v4.745zm5-.949a.925.925 0 01-.293.671 1.028 1.028 0 01-.707.278h-2v-4.744c0-.755-.316-1.48-.879-2.013a3.084 3.084 0 00-2.12-.834h-2c-.797 0-1.56.3-2.122.834A2.775 2.775 0 008 14.358v4.744H6c-.265 0-.52-.1-.707-.278a.925.925 0 01-.293-.67V9.85c0-.135.03-.268.09-.39a.954.954 0 01.25-.322l6-4.981c.183-.152.417-.236.66-.236.243 0 .478.084.66.236l6 4.981a.953.953 0 01.25.321.909.909 0 01.09.39v8.303z"/></symbol><symbol viewBox="0 0 24 24" id="instagram" xmlns="http://www.w3.org/2000/svg"><path d="M16.042 2H7.957A5.964 5.964 0 002 7.958v8.085A5.964 5.964 0 007.958 22h8.085A5.964 5.964 0 0022 16.042V7.957A5.964 5.964 0 0016.042 2zm3.946 14.042a3.946 3.946 0 01-3.946 3.946H7.957a3.947 3.947 0 01-3.945-3.946V7.957a3.947 3.947 0 013.946-3.945h8.085a3.947 3.947 0 013.945 3.946v8.085-.001z"/><path d="M11.998 6.444A5.563 5.563 0 006.444 12 5.563 5.563 0 0012 17.556a5.563 5.563 0 005.556-5.557 5.562 5.562 0 00-5.557-5.553v-.002zm0 8.951a3.395 3.395 0 110-6.79 3.395 3.395 0 010 6.79zm5.557-7.839a1.111 1.111 0 100-2.223 1.111 1.111 0 000 2.223z"/></symbol><symbol viewBox="0 0 24 24" id="instagram-svgrepo-com" xmlns="http://www.w3.org/2000/svg"><path d="M16.042 2H7.957A5.964 5.964 0 002 7.958v8.085A5.964 5.964 0 007.958 22h8.085A5.964 5.964 0 0022 16.042V7.957A5.964 5.964 0 0016.042 2zm3.946 14.042a3.946 3.946 0 01-3.946 3.946H7.957a3.947 3.947 0 01-3.945-3.946V7.957a3.947 3.947 0 013.946-3.945h8.085a3.947 3.947 0 013.945 3.946v8.085-.001z"/><path d="M11.998 6.444A5.563 5.563 0 006.444 12 5.563 5.563 0 0012 17.556a5.563 5.563 0 005.556-5.557 5.562 5.562 0 00-5.557-5.553v-.002zm0 8.951a3.395 3.395 0 110-6.79 3.395 3.395 0 010 6.79zm5.557-7.839a1.111 1.111 0 100-2.223 1.111 1.111 0 000 2.223z"/></symbol><symbol viewBox="0 0 44 44" id="instagram2" xmlns="http://www.w3.org/2000/svg"><path d="M22 42.9c11.543 0 20.9-9.357 20.9-20.9S33.543 1.1 22 1.1 1.1 10.457 1.1 22 10.457 42.9 22 42.9z"/><path fill-rule="evenodd" clip-rule="evenodd" d="M17.918 12.159c1.056-.047 1.394-.059 4.084-.059h-.003c2.688 0 3.024.012 4.081.059 1.053.05 1.774.215 2.406.46a4.84 4.84 0 011.752 1.143c.55.55.89 1.103 1.143 1.754.243.629.41 1.35.459 2.402.048 1.056.06 1.394.06 4.082 0 2.688-.012 3.026-.059 4.082-.05 1.053-.217 1.773-.46 2.402a4.863 4.863 0 01-1.144 1.754 4.842 4.842 0 01-1.751 1.143c-.631.245-1.35.41-2.406.459-1.056.048-1.391.06-4.08.06-2.688 0-3.026-.012-4.082-.059-1.054-.05-1.774-.215-2.403-.46a4.848 4.848 0 01-1.753-1.144 4.85 4.85 0 01-1.143-1.753c-.243-.63-.41-1.35-.459-2.402-.048-1.056-.06-1.394-.06-4.082 0-2.688.012-3.026.059-4.082.048-1.054.215-1.774.46-2.404a4.846 4.846 0 011.144-1.752 4.846 4.846 0 011.753-1.143c.63-.245 1.35-.41 2.402-.459v-.001zm3.752 1.726h-.559v-.003c-1.845.003-2.2.015-3.112.056-.965.044-1.489.205-1.838.341a3.08 3.08 0 00-1.14.741c-.328.32-.581.708-.74 1.138-.135.35-.296.873-.34 1.84-.049 1.042-.059 1.355-.059 3.998 0 2.644.01 2.958.059 4 .044.966.205 1.49.34 1.838.18.462.396.792.74 1.139a3.08 3.08 0 001.14.74c.35.135.873.296 1.838.34 1.044.049 1.357.06 4.001.06 2.643 0 2.957-.011 4-.06.965-.044 1.49-.205 1.837-.34a3.051 3.051 0 001.139-.74c.346-.347.561-.675.74-1.137.137-.35.298-.873.342-1.838.047-1.044.059-1.358.059-4s-.012-2.955-.059-4c-.044-.964-.205-1.488-.342-1.837a3.073 3.073 0 00-.74-1.138 3.061 3.061 0 00-1.139-.74c-.349-.136-.872-.297-1.837-.34-1.045-.05-1.357-.06-4-.06h-.33v.002z"/><path fill-rule="evenodd" clip-rule="evenodd" d="M27.286 15.528a1.188 1.188 0 100 2.376 1.188 1.188 0 000-2.376zM16.916 22a5.085 5.085 0 1110.169-.172A5.085 5.085 0 0116.917 22zm8.381 0a3.3 3.3 0 10-6.6 0 3.3 3.3 0 006.6 0z"/></symbol><symbol viewBox="0 0 24 24" id="like" xmlns="http://www.w3.org/2000/svg"><path d="M12 20l-.487.874a1 1 0 00.974 0L12 20zm0-12.838l-.92.391a1 1 0 001.84 0l-.92-.39zM2 8.972c0 3.474 2.56 6.49 4.835 8.516a29.62 29.62 0 004.645 3.367l.023.013.007.004a.077.077 0 01.003.001L12 20l.487-.873-.003-.002-.016-.01a9.69 9.69 0 01-.337-.198 27.649 27.649 0 01-3.965-2.922C5.94 14.012 4 11.515 4 8.972H2zm10.92-2.2c-1.18-2.78-3.873-4.067-6.313-3.715a5.17 5.17 0 00-3.248 1.79C2.499 5.872 2 7.27 2 8.972h2c0-1.304.376-2.225.891-2.84a3.17 3.17 0 012.002-1.096c1.56-.225 3.368.59 4.187 2.517l1.84-.782zm7.08 2.2c0 2.542-1.94 5.04-4.165 7.023a27.652 27.652 0 01-4.303 3.12l-.016.01-.003.001L12 20a154.744 154.744 0 00.488.873l.002-.001.007-.004.023-.013a15.49 15.49 0 00.384-.226 29.615 29.615 0 004.261-3.14C19.44 15.461 22 12.445 22 8.971h-2zm-7.08-1.419c.82-1.926 2.627-2.742 4.187-2.517a3.17 3.17 0 012.002 1.097c.515.614.891 1.535.891 2.84h2c0-1.704-.499-3.1-1.359-4.126a5.17 5.17 0 00-3.248-1.79c-2.44-.352-5.132.935-6.313 3.714l1.84.782z"/></symbol><symbol viewBox="0 0 512 512" id="map-pin" xmlns="http://www.w3.org/2000/svg"><path d="M257.13 125.11c40.21 0 72.52 30.23 72.52 70.43 0 38.59-32.31 70.76-72.52 70.76-40.52 0-72.85-32.17-72.85-70.76 0-40.2 32.33-70.43 72.85-70.43zm181.54 52.42C438.67 78.79 358 0 257.13 0c-101 0-183.8 78.79-183.8 177.53 0 4.18 0 10.3 2.09 14.15h-2.09c0 96.81 183.8 320.32 183.8 320.32s181.54-223.51 181.54-320.32v-14.15z" fill-rule="evenodd"/></symbol><symbol viewBox="0 0 22 17" id="menu-small" xmlns="http://www.w3.org/2000/svg"><path fill-rule="evenodd" clip-rule="evenodd" d="M8.07 6H.948A.95.95 0 000 6.949v.102A.95.95 0 00.948 8h6.304a7.95 7.95 0 01.818-2zm8.981-6H.948A.95.95 0 000 .949v.102A.95.95 0 00.948 2h16.103A.952.952 0 0018 1.051V.949A.952.952 0 0017.051 0m-5.926 9.875a3.754 3.754 0 013.75-3.75 3.754 3.754 0 013.75 3.75 3.754 3.754 0 01-3.75 3.75 3.754 3.754 0 01-3.75-3.75zm9.817 5.183l-2.122-2.122a4.97 4.97 0 001.055-3.061c0-2.757-2.243-5-5-5s-5 2.243-5 5 2.243 5 5 5a4.97 4.97 0 003.06-1.055l2.123 2.122a.623.623 0 00.884 0 .624.624 0 000-.884z"/><path d="M18.82 12.936l-.316-.246-.216.279.25.25.282-.283zm-.884.884l.282-.283-.25-.25-.278.217.246.316zm2.122 2.122l.283-.283-.283.283zm-8.533-6.067a3.354 3.354 0 013.35-3.35v-.8a4.154 4.154 0 00-4.15 4.15h.8zm3.35-3.35a3.354 3.354 0 013.35 3.35h.8a4.154 4.154 0 00-4.15-4.15v.8zm3.35 3.35a3.354 3.354 0 01-3.35 3.35v.8a4.154 4.154 0 004.15-4.15h-.8zm-3.35 3.35a3.354 3.354 0 01-3.35-3.35h-.8a4.154 4.154 0 004.15 4.15v-.8zm6.35 1.55l-2.122-2.122-.566.565 2.122 2.123.566-.566zm-2.09-1.594a5.37 5.37 0 001.14-3.306h-.8a4.57 4.57 0 01-.97 2.815l.63.491zm1.14-3.306c0-2.978-2.422-5.4-5.4-5.4v.8c2.536 0 4.6 2.064 4.6 4.6h.8zm-5.4-5.4a5.406 5.406 0 00-5.4 5.4h.8c0-2.536 2.064-4.6 4.6-4.6v-.8zm-5.4 5.4c0 2.978 2.422 5.4 5.4 5.4v-.8a4.606 4.606 0 01-4.6-4.6h-.8zm5.4 5.4a5.37 5.37 0 003.306-1.14l-.49-.63a4.57 4.57 0 01-2.816.97v.8zm2.778-1.172l2.122 2.122.566-.566-2.123-2.122-.565.566zm2.122 2.122c.2.2.463.3.725.3v-.8a.223.223 0 01-.159-.066l-.566.566zm.725.3c.262 0 .525-.1.725-.3l-.566-.566a.223.223 0 01-.159.066v.8zm.725-.3c.4-.4.4-1.05 0-1.45l-.566.566a.224.224 0 010 .318l.566.566z"/><path fill-rule="evenodd" clip-rule="evenodd" d="M7.062 12H.948a.95.95 0 00-.948.949v.102A.95.95 0 00.948 14h6.634a7.947 7.947 0 01-.52-2z"/></symbol><symbol viewBox="0 0 44 44" id="odnoklassniki" xmlns="http://www.w3.org/2000/svg"><path d="M22 42.9c11.543 0 20.9-9.357 20.9-20.9S33.543 1.1 22 1.1 1.1 10.457 1.1 22 10.457 42.9 22 42.9z"/><path fill-rule="evenodd" clip-rule="evenodd" d="M23.983 26.523a9.392 9.392 0 002.845-1.138 1.359 1.359 0 00.45-1.91 1.467 1.467 0 00-1.98-.436 6.412 6.412 0 01-6.598 0 1.465 1.465 0 00-1.98.435 1.358 1.358 0 00.45 1.911 9.392 9.392 0 002.846 1.138l-2.74 2.645a1.352 1.352 0 000 1.96c.273.262.638.407 1.016.405.367 0 .735-.134 1.017-.404l2.691-2.6 2.693 2.6a1.47 1.47 0 002.03 0 1.351 1.351 0 000-1.961l-2.74-2.645zm2.905-8.591c0 2.607-2.197 4.73-4.9 4.73-2.703 0-4.901-2.123-4.901-4.73 0-2.611 2.2-4.732 4.901-4.732 2.702 0 4.9 2.123 4.9 4.732zm-2.874 0c0-1.081-.91-1.958-2.03-1.958-1.118 0-2.029.877-2.029 1.958 0 1.08.91 1.958 2.029 1.958 1.119 0 2.03-.88 2.03-1.958z"/></symbol><symbol viewBox="0 0 24 24" id="search" xmlns="http://www.w3.org/2000/svg"><path fill-rule="evenodd" clip-rule="evenodd" d="M5 11c0-3.309 2.691-6 6-6s6 2.691 6 6-2.691 6-6 6-6-2.691-6-6zm15.707 8.293l-3.395-3.396A7.952 7.952 0 0019 11c0-4.411-3.589-8-8-8s-8 3.589-8 8 3.589 8 8 8a7.952 7.952 0 004.897-1.688l3.396 3.395a.997.997 0 001.414 0 .999.999 0 000-1.414z"/></symbol><symbol viewBox="0 0 24 24" id="tel" xmlns="http://www.w3.org/2000/svg"><path d="M9.503 4.257l-.929.372.929-.372zm1.054 2.636l.929-.372-.929.372zm-.32 2.023l.768.64-.768-.64zm-.568.68l.768.641-.768-.64zm.122 2.695L9.084 13l.707-.708zm1.918 1.918l.707-.708-.707.708zm2.694.122l-.64-.768.64.768zm.681-.568l.64.769-.64-.769zm2.023-.32l-.371.928.371-.928zm2.636 1.054l.371-.928-.371.928zM4.895 4h2.75V2h-2.75v2zm3.68.629l1.054 2.635 1.857-.743-1.055-2.635-1.857.743zm.893 3.647l-.567.68 1.537 1.281.567-.68-1.537-1.281zm-.384 4.723l1.917 1.917 1.415-1.415-1.917-1.917L9.084 13zm5.96 2.1l.68-.567-1.28-1.537-.681.568 1.28 1.536zm1.692-.728l2.635 1.055.743-1.857-2.636-1.055-.742 1.857zM20 16.354v2.751h2v-2.75h-2zM19.105 20C10.763 20 4 13.237 4 4.895H2C2 14.342 9.658 22 19.105 22v-2zm.895-.895c0 .494-.4.895-.895.895v2A2.895 2.895 0 0022 19.105h-2zm-.629-3.68a1 1 0 01.629.93h2a3 3 0 00-1.886-2.786l-.743 1.857zm-3.647-.893a1 1 0 011.012-.16l.742-1.858a3 3 0 00-3.034.481l1.28 1.537zm-4.723.384a3 3 0 004.042.183l-1.28-1.537a1 1 0 01-1.347-.06L11 14.915zm-2.1-5.96A3 3 0 009.084 13l1.415-1.415a1 1 0 01-.062-1.347l-1.536-1.28zm.728-1.692a1 1 0 01-.16 1.012l1.536 1.28a3 3 0 00.48-3.035l-1.856.743zM7.646 4a1 1 0 01.928.629l1.857-.743A3 3 0 007.646 2v2zM4.895 2A2.895 2.895 0 002 4.895h2C4 4.4 4.4 4 4.895 4V2z"/></symbol><symbol viewBox="0 0 24 24" id="telegram" xmlns="http://www.w3.org/2000/svg"><path d="M20.446 3.002a2.389 2.389 0 00-.755.181h-.003c-.23.092-1.325.556-2.988 1.259l-5.965 2.53a17641.01 17641.01 0 00-8.485 3.602l.051-.02s-.29.096-.593.306a1.646 1.646 0 00-.474.46c-.148.22-.268.557-.224.903.073.588.452.941.723 1.135.274.197.536.29.536.29h.007l3.944 1.338c.177.572 1.203 3.967 1.449 4.749.145.467.287.76.464.982.085.114.186.21.306.286a.895.895 0 00.199.086l-.041-.01c.012.003.022.013.031.016.032.01.054.013.095.02.625.19 1.127-.201 1.127-.201l.028-.022 2.329-2.136 3.904 3.016.088.038c.814.36 1.638.16 2.073-.194.439-.355.61-.81.61-.81l.028-.073 3.017-15.567c.085-.384.107-.743.012-1.093a1.469 1.469 0 00-.63-.852 1.503 1.503 0 00-.862-.22zm-.083 1.669c-.003.05.007.044-.015.143v.01l-2.989 15.403c-.012.023-.035.07-.094.118-.064.05-.114.083-.376-.022l-4.775-3.688-2.884 2.648.606-3.897s7.48-7.022 7.8-7.324c.323-.302.216-.365.216-.365.022-.369-.486-.108-.486-.108l-9.837 6.138-.003-.016-4.715-1.599v-.003l-.012-.003c.003 0 .025-.01.025-.01l.025-.012.025-.01 8.49-3.602c2.142-.909 4.3-1.824 5.96-2.53a851 851 0 012.957-1.246c.067-.025.035-.025.082-.025z"/></symbol><symbol viewBox="0 0 24 24" id="user" xmlns="http://www.w3.org/2000/svg"><path d="M4 21c0-2.761 3.582-5 8-5s8 2.239 8 5m-8-8a5 5 0 100-10 5 5 0 000 10z"/></symbol><symbol viewBox="0 0 24 24" id="viber" xmlns="http://www.w3.org/2000/svg"><path d="M8.022 6.29a.81.81 0 00-.53.104H7.48a4.06 4.06 0 00-.987.812c-.236.273-.364.549-.398.815-.02.158-.007.317.04.468l.017.01c.266.782.614 1.534 1.038 2.241a13.18 13.18 0 002.001 2.736l.024.033.037.027.023.028.027.023c.825.784 1.746 1.46 2.743 2.01 1.138.62 1.829.914 2.243 1.035v.007c.122.037.233.053.344.053.353-.026.688-.169.95-.407.32-.284.59-.619.802-.99v-.007c.199-.374.132-.728-.155-.967a11.949 11.949 0 00-1.853-1.33c-.441-.24-.89-.095-1.071.148l-.388.488c-.198.242-.56.209-.56.209l-.01.006c-2.691-.687-3.41-3.412-3.41-3.412s-.033-.371.216-.56l.485-.39c.233-.19.394-.637.145-1.079-.38-.66-.825-1.28-1.327-1.853a.737.737 0 00-.435-.26l.002.002zm4.548-1.185a.493.493 0 100 .986c1.246 0 2.281.407 3.1 1.187.42.428.749.933.964 1.487.216.555.314 1.147.289 1.74a.493.493 0 00.985.042 5.282 5.282 0 00-.356-2.14 5.364 5.364 0 00-1.186-1.827l-.01-.01c-1.015-.97-2.302-1.465-3.787-1.465z"/><path d="M12.536 6.726a.493.493 0 000 .986h.016c.9.063 1.554.363 2.013.855.47.507.713 1.136.695 1.915a.493.493 0 00.985.023c.024-1.023-.305-1.904-.958-2.609-.668-.716-1.583-1.095-2.685-1.169h-.066z"/><path d="M12.518 8.377a.493.493 0 00-.052.984c.412.022.675.145.84.312.167.168.291.437.314.858a.493.493 0 10.984-.053c-.032-.591-.217-1.114-.597-1.498-.38-.385-.9-.572-1.49-.603z"/><path fill-rule="evenodd" clip-rule="evenodd" d="M7.136 2.526a21.833 21.833 0 019.526 0l.334.075a5.081 5.081 0 013.816 3.708 19.435 19.435 0 010 9.561 5.081 5.081 0 01-3.816 3.709l-.334.075a21.8 21.8 0 01-5.99.49l-2.616 2.34a.74.74 0 01-1.222-.428l-.432-2.584a5.081 5.081 0 01-3.416-3.602 19.434 19.434 0 010-9.56A5.08 5.08 0 016.802 2.6l.334-.074zm9.203 1.443a20.355 20.355 0 00-8.88 0l-.335.074a3.602 3.602 0 00-2.705 2.63 17.956 17.956 0 000 8.833 3.602 3.602 0 002.705 2.63l.089.02a.74.74 0 01.568.599l.29 1.733 1.845-1.652a.739.739 0 01.545-.186 20.356 20.356 0 005.878-.44l.334-.074a3.602 3.602 0 002.706-2.63 17.957 17.957 0 000-8.833 3.602 3.602 0 00-2.706-2.63l-.334-.074z"/></symbol><symbol viewBox="0 0 24 24" id="vk" xmlns="http://www.w3.org/2000/svg"><path d="M21.579 6.855c.14-.465 0-.806-.662-.806h-2.193c-.558 0-.813.295-.953.619 0 0-1.115 2.719-2.695 4.482-.51.513-.743.675-1.021.675-.139 0-.341-.162-.341-.627V6.855c0-.558-.161-.806-.626-.806H9.642c-.348 0-.558.258-.558.504 0 .528.79.65.871 2.138v3.228c0 .707-.127.836-.407.836-.743 0-2.551-2.73-3.624-5.853-.209-.607-.42-.852-.98-.852H2.752c-.627 0-.752.295-.752.619 0 .582.743 3.462 3.461 7.27 1.812 2.602 4.363 4.012 6.687 4.012 1.393 0 1.565-.313 1.565-.853v-1.966c0-.626.133-.752.574-.752.324 0 .882.164 2.183 1.417 1.486 1.486 1.732 2.153 2.567 2.153h2.192c.626 0 .939-.313.759-.931-.197-.615-.907-1.51-1.849-2.57-.512-.603-1.277-1.253-1.51-1.578-.325-.42-.231-.604 0-.976.001 0 2.672-3.761 2.95-5.04z"/></symbol><symbol viewBox="0 0 44 44" id="vkontakte" xmlns="http://www.w3.org/2000/svg"><path d="M22 42.9c11.543 0 20.9-9.357 20.9-20.9S33.543 1.1 22 1.1 1.1 10.457 1.1 22 10.457 42.9 22 42.9z"/><path fill-rule="evenodd" clip-rule="evenodd" d="M22.971 28.641s.358-.038.54-.232c.168-.176.161-.51.161-.51s-.02-1.558.716-1.788c.726-.226 1.659 1.506 2.649 2.174.748.503 1.315.393 1.315.393l2.645-.037s1.383-.083.727-1.15c-.054-.088-.383-.792-1.965-2.233-1.66-1.511-1.438-1.266.56-3.88 1.216-1.591 1.701-2.562 1.55-2.977-.145-.398-1.04-.294-1.04-.294l-2.977.02s-.22-.03-.384.066c-.16.093-.264.313-.264.313s-.47 1.232-1.099 2.28c-1.326 2.208-1.855 2.326-2.072 2.188-.505-.32-.379-1.285-.379-1.97 0-2.141.332-3.036-.643-3.266-.323-.076-.562-.126-1.39-.135-1.063-.012-1.962.003-2.47.248-.338.161-.602.525-.44.547.196.025.642.117.878.433.305.407.293 1.323.293 1.323s.176 2.52-.409 2.833c-.4.214-.95-.224-2.133-2.23a18.48 18.48 0 01-1.063-2.16s-.088-.212-.246-.327c-.19-.138-.456-.18-.456-.18l-2.83.017s-.425.012-.58.194c-.138.161-.01.494-.01.494s2.214 5.087 4.722 7.65c2.3 2.35 4.91 2.196 4.91 2.196h1.184z"/></symbol><symbol viewBox="0 0 24 24" id="whatsapp" xmlns="http://www.w3.org/2000/svg"><path fill-rule="evenodd" clip-rule="evenodd" d="M19.086 4.907a9.896 9.896 0 00-3.23-2.156A9.934 9.934 0 0012.043 2c-5.488 0-9.957 4.446-9.959 9.91a9.86 9.86 0 001.33 4.955L2 22l5.279-1.379a10 10 0 004.759 1.207h.004c5.488 0 9.956-4.446 9.958-9.91a9.816 9.816 0 00-2.914-7.011zm-7.044 15.248h-.003a8.29 8.29 0 01-4.213-1.149l-.302-.179-3.132.818.835-3.04-.197-.31a8.194 8.194 0 01-1.265-4.384c.002-4.542 3.715-8.237 8.28-8.237a8.257 8.257 0 015.852 2.415 8.158 8.158 0 012.422 5.828c-.003 4.542-3.716 8.238-8.277 8.238zm4.54-6.17c-.25-.125-1.472-.723-1.7-.806-.228-.083-.393-.124-.56.124-.166.247-.643.804-.788.97-.145.166-.29.186-.539.062-.248-.124-1.05-.385-2.001-1.229-.74-.657-1.24-1.467-1.384-1.715-.146-.249-.016-.382.11-.506.111-.11.248-.29.372-.434.124-.145.165-.247.248-.413.084-.165.043-.31-.02-.434s-.56-1.343-.768-1.839c-.2-.48-.406-.416-.56-.423-.158-.006-.316-.01-.475-.009a.92.92 0 00-.665.31c-.228.248-.87.846-.87 2.065 0 1.219.892 2.397 1.016 2.563.124.165 1.755 2.666 4.25 3.739.595.255 1.059.407 1.42.522.595.189 1.137.161 1.567.098.478-.07 1.472-.598 1.679-1.177.207-.578.207-1.074.145-1.178-.062-.103-.23-.166-.477-.29z"/></symbol><symbol viewBox="0 0 44 44" id="youtube" xmlns="http://www.w3.org/2000/svg"><path d="M22 42.9c11.543 0 20.9-9.357 20.9-20.9S33.543 1.1 22 1.1 1.1 10.457 1.1 22 10.457 42.9 22 42.9z"/><path fill-rule="evenodd" clip-rule="evenodd" d="M29.925 16.343c.528.546.7 1.785.7 1.785s.175 1.456.175 2.911v1.364c0 1.457-.176 2.912-.176 2.912s-.171 1.239-.7 1.784c-.602.646-1.271.713-1.65.751l-.112.012c-2.464.182-6.162.188-6.162.188s-4.576-.044-5.984-.18a2.438 2.438 0 00-.239-.034c-.446-.056-1.145-.141-1.701-.736-.528-.546-.7-1.785-.7-1.785s-.176-1.455-.176-2.91V21.04c0-1.457.176-2.913.176-2.913s.172-1.24.7-1.785c.604-.645 1.273-.711 1.651-.748l.112-.013c2.464-.182 6.157-.182 6.157-.182h.009s3.693 0 6.157.182l.111.011c.378.039 1.047.103 1.652.75zm-9.745 2.662v5.053l4.756-2.519-4.756-2.534z"/></symbol></svg>