<svg width="16" height="16" viewBox="0 0 16 16" fill="none" xmlns="http://www.w3.org/2000/svg">
<path d="M8 14C11.3137 14 14 11.3137 14 8C14 4.68629 11.3137 2 8 2C4.68629 2 2 4.68629 2 8C2 11.3137 4.68629 14 8 14Z" stroke="#E8A200" stroke-width="1.5" stroke-miterlimit="10" stroke-linecap="round" stroke-linejoin="round"/>
<path d="M10.5303 7.19732C10.8232 6.90443 10.8232 6.42956 10.5303 6.13666C10.2374 5.84377 9.76256 5.84377 9.46967 6.13666L10.5303 7.19732ZM7.33333 9.33366L6.803 9.86399C7.0959 10.1569 7.57077 10.1569 7.86366 9.86399L7.33333 9.33366ZM6.53033 7.47C6.23744 7.1771 5.76256 7.1771 5.46967 7.47C5.17678 7.76289 5.17678 8.23776 5.46967 8.53066L6.53033 7.47ZM9.46967 6.13666L6.803 8.80333L7.86366 9.86399L10.5303 7.19732L9.46967 6.13666ZM7.86366 8.80333L6.53033 7.47L5.46967 8.53066L6.803 9.86399L7.86366 8.80333Z" fill="#E8A200"/>
</svg>
