<svg width="24" height="24" viewBox="0 0 24 24" fill="none" xmlns="http://www.w3.org/2000/svg">
<g opacity="0.3">
<path d="M17.6 9.647L17 20H7L6.4 9.647H5V6.824H9.667V6.334C9.66687 6.02754 9.72712 5.72406 9.8443 5.44089C9.96149 5.15772 10.1333 4.90042 10.35 4.68367C10.5666 4.46693 10.8239 4.29499 11.107 4.17768C11.3901 4.06038 11.6935 4 12 4C12.6188 4 13.2122 4.2458 13.6497 4.68332C14.0872 5.12084 14.333 5.71425 14.333 6.333V6.824H19V9.647H17.6Z" fill="white"/>
<path d="M14.25 17.647V12M10 17.647V12M17.6 9.647L17 20H7L6.4 9.647M17.6 9.647H6.4M17.6 9.647H19V6.824H14.333M6.4 9.647H5V6.824H9.667M14.333 6.824V6.333C14.333 5.71425 14.0872 5.12084 13.6497 4.68332C13.2122 4.2458 12.6188 4 12 4C11.6935 4 11.3901 4.06038 11.107 4.17768C10.8239 4.29499 10.5666 4.46693 10.35 4.68367C10.1333 4.90042 9.96149 5.15772 9.8443 5.44089C9.72712 5.72406 9.66687 6.02754 9.667 6.334V6.824M14.333 6.824H9.667" stroke="#05141F" stroke-width="1.5"/>
</g>
</svg>
