<svg width="24" height="24" viewBox="0 0 24 24" fill="none" xmlns="http://www.w3.org/2000/svg">
<path d="M19.9298 8.259L15.7407 4.0699C15.4341 3.76316 14.9367 3.76316 14.63 4.0699L3.10997 15.5899C2.96267 15.7372 2.87988 15.937 2.87988 16.1453V20.3344C2.87988 20.7682 3.23156 21.1198 3.66534 21.1198H7.85442C8.06273 21.1198 8.26249 21.0371 8.40979 20.8898L19.9298 9.36974C20.2366 9.06304 20.2366 8.56575 19.9298 8.259ZM7.52909 19.5489H4.45079V16.4706L11.5199 9.40152L14.5982 12.4798L7.52909 19.5489ZM15.709 11.369L12.6307 8.29073L15.1853 5.73612L18.2636 8.81437L15.709 11.369Z" fill="#05141F"/>
</svg>
