<svg width="25" height="24" viewBox="0 0 25 24" fill="none" xmlns="http://www.w3.org/2000/svg">
<path d="M14.0234 15L21.0234 15" stroke="white" stroke-width="2" stroke-linecap="round" stroke-linejoin="round"/>
<path d="M3.02344 15H5.02344" stroke="white" stroke-width="2" stroke-linecap="round" stroke-linejoin="round"/>
<path d="M7.52344 17.5C8.90415 17.5 10.0234 16.3807 10.0234 15C10.0234 13.6193 8.90415 12.5 7.52344 12.5C6.14273 12.5 5.02344 13.6193 5.02344 15C5.02344 16.3807 6.14273 17.5 7.52344 17.5Z" stroke="white" stroke-width="2" stroke-linecap="round" stroke-linejoin="round"/>
<path d="M20.0234 9H21.0234" stroke="white" stroke-width="2" stroke-linecap="round" stroke-linejoin="round"/>
<path d="M3.02344 9H10.0234" stroke="white" stroke-width="2" stroke-linecap="round" stroke-linejoin="round"/>
<path d="M16.5234 11.5C17.9041 11.5 19.0234 10.3807 19.0234 9C19.0234 7.61929 17.9041 6.5 16.5234 6.5C15.1427 6.5 14.0234 7.61929 14.0234 9C14.0234 10.3807 15.1427 11.5 16.5234 11.5Z" stroke="white" stroke-width="2" stroke-linecap="round" stroke-linejoin="round"/>
</svg>
