<svg width="24" height="24" viewBox="0 0 24 24" fill="none" xmlns="http://www.w3.org/2000/svg">
<path d="M20.0001 7.7159L14.0001 2.72487C13.4501 2.25807 12.738 2 12.0001 2C11.2622 2 10.5501 2.25807 10.0001 2.72487L4.00009 7.7159C3.68246 7.98544 3.42899 8.31611 3.25657 8.68587C3.08414 9.05563 2.99671 9.456 3.00009 9.86033V18.1534C3.00009 18.9084 3.31617 19.6324 3.87877 20.1663C4.44138 20.7001 5.20445 21 6.00009 21H18.0001C18.7957 21 19.5588 20.7001 20.1214 20.1663C20.684 19.6324 21.0001 18.9084 21.0001 18.1534V9.85084C21.0021 9.44811 20.9139 9.04956 20.7416 8.68154C20.5692 8.31351 20.3165 7.98438 20.0001 7.7159ZM14.0001 19.1023H10.0001V14.3579C10.0001 14.1063 10.1055 13.8649 10.293 13.687C10.4805 13.5091 10.7349 13.4091 11.0001 13.4091H13.0001C13.2653 13.4091 13.5197 13.5091 13.7072 13.687C13.8947 13.8649 14.0001 14.1063 14.0001 14.3579V19.1023ZM19.0001 18.1534C19.0001 18.4051 18.8947 18.6464 18.7072 18.8244C18.5197 19.0023 18.2653 19.1023 18.0001 19.1023H16.0001V14.3579C16.0001 13.603 15.684 12.8789 15.1214 12.3451C14.5588 11.8113 13.7957 11.5114 13.0001 11.5114H11.0001C10.2044 11.5114 9.44138 11.8113 8.87877 12.3451C8.31616 12.8789 8.00009 13.603 8.00009 14.3579V19.1023H6.00009C5.73488 19.1023 5.48052 19.0023 5.29299 18.8244C5.10545 18.6464 5.00009 18.4051 5.00009 18.1534V9.85084C5.00027 9.71612 5.03069 9.58297 5.08931 9.46027C5.14794 9.33756 5.23343 9.22811 5.3401 9.13919L11.3401 4.15765C11.5226 4.00553 11.7572 3.92164 12.0001 3.92164C12.243 3.92164 12.4776 4.00553 12.6601 4.15765L18.6601 9.13919C18.7668 9.22811 18.8523 9.33756 18.9109 9.46027C18.9695 9.58297 18.9999 9.71612 19.0001 9.85084V18.1534Z" fill="#05141F"/>
</svg>
