<svg width="16" height="16" viewBox="0 0 16 16" fill="none" xmlns="http://www.w3.org/2000/svg">
<path fill-rule="evenodd" clip-rule="evenodd" d="M12 12.6663C12 13.0343 11.7013 13.333 11.3333 13.333H4.66666C4.29866 13.333 3.99999 13.0343 3.99999 12.6663V7.33301C3.99999 6.96501 4.29866 6.66634 4.66666 6.66634H5.33332H6.66666H9.33332H10.6667H11.3333C11.7013 6.66634 12 6.96501 12 7.33301V12.6663ZM6.66666 4.07367C6.66666 3.29767 7.26466 2.66634 7.99999 2.66634C8.73532 2.66634 9.33332 3.29767 9.33332 4.07367V5.33301H6.66666V4.07367ZM11.3333 5.33301H10.6667V4.07367C10.6667 2.56301 9.47066 1.33301 7.99999 1.33301C6.52932 1.33301 5.33332 2.56301 5.33332 4.07367V5.33301H4.66666C3.56399 5.33301 2.66666 6.23034 2.66666 7.33301V12.6663C2.66666 13.769 3.56399 14.6663 4.66666 14.6663H11.3333C12.436 14.6663 13.3333 13.769 13.3333 12.6663V7.33301C13.3333 6.23034 12.436 5.33301 11.3333 5.33301Z" fill="#E8A200"/>
</svg>
