<svg width="22" height="17" viewBox="0 0 22 17" fill="none" xmlns="http://www.w3.org/2000/svg">
<path fill-rule="evenodd" clip-rule="evenodd" d="M8.07026 6L0.948 6C0.426 6 0 6.427 0 6.949V7.051C0 7.573 0.426 8 0.948 8H7.25204C7.43466 7.29046 7.71218 6.61901 8.07026 6Z" fill="#05141F"/>
<path fill-rule="evenodd" clip-rule="evenodd" d="M17.051 0H0.948C0.426 0 0 0.427 0 0.949V1.051C0 1.573 0.426 2 0.948 2H17.051C17.573 2 18 1.573 18 1.051V0.949C18 0.427 17.573 0 17.051 0" fill="#05141F"/>
<path fill-rule="evenodd" clip-rule="evenodd" d="M11.125 9.875C11.125 7.80687 12.8069 6.125 14.875 6.125C16.9431 6.125 18.625 7.80687 18.625 9.875C18.625 11.9431 16.9431 13.625 14.875 13.625C12.8069 13.625 11.125 11.9431 11.125 9.875ZM20.9419 15.0581L18.82 12.9356C19.4781 12.0894 19.875 11.0287 19.875 9.875C19.875 7.11813 17.6319 4.875 14.875 4.875C12.1181 4.875 9.875 7.11813 9.875 9.875C9.875 12.6319 12.1181 14.875 14.875 14.875C16.0287 14.875 17.0894 14.4781 17.9356 13.82L20.0581 15.9419C20.18 16.0638 20.34 16.125 20.5 16.125C20.66 16.125 20.82 16.0638 20.9419 15.9419C21.1863 15.6975 21.1863 15.3025 20.9419 15.0581Z" fill="#05141F"/>
<path d="M18.82 12.9356L18.5042 12.6901L18.2875 12.9688L18.5371 13.2184L18.82 12.9356ZM17.9356 13.82L18.2184 13.5371L17.9688 13.2875L17.6901 13.5042L17.9356 13.82ZM20.0581 15.9419L20.341 15.659L20.3409 15.659L20.0581 15.9419ZM11.525 9.875C11.525 8.02779 13.0278 6.525 14.875 6.525V5.725C12.586 5.725 10.725 7.58596 10.725 9.875H11.525ZM14.875 6.525C16.7222 6.525 18.225 8.02779 18.225 9.875H19.025C19.025 7.58596 17.164 5.725 14.875 5.725V6.525ZM18.225 9.875C18.225 11.7222 16.7222 13.225 14.875 13.225V14.025C17.164 14.025 19.025 12.164 19.025 9.875H18.225ZM14.875 13.225C13.0278 13.225 11.525 11.7222 11.525 9.875H10.725C10.725 12.164 12.586 14.025 14.875 14.025V13.225ZM21.2248 14.7753L19.1029 12.6528L18.5371 13.2184L20.659 15.3409L21.2248 14.7753ZM19.1358 13.1812C19.8456 12.2684 20.275 11.1223 20.275 9.875H19.475C19.475 10.9352 19.1106 11.9103 18.5042 12.6901L19.1358 13.1812ZM20.275 9.875C20.275 6.89721 17.8528 4.475 14.875 4.475V5.275C17.411 5.275 19.475 7.33904 19.475 9.875H20.275ZM14.875 4.475C11.8972 4.475 9.475 6.89721 9.475 9.875H10.275C10.275 7.33904 12.339 5.275 14.875 5.275V4.475ZM9.475 9.875C9.475 12.8528 11.8972 15.275 14.875 15.275V14.475C12.339 14.475 10.275 12.411 10.275 9.875H9.475ZM14.875 15.275C16.1223 15.275 17.2684 14.8456 18.1812 14.1358L17.6901 13.5042C16.9103 14.1106 15.9352 14.475 14.875 14.475V15.275ZM17.6528 14.1029L19.7753 16.2248L20.3409 15.659L18.2184 13.5371L17.6528 14.1029ZM19.7753 16.2247C19.975 16.4244 20.238 16.525 20.5 16.525V15.725C20.442 15.725 20.385 15.7031 20.341 15.659L19.7753 16.2247ZM20.5 16.525C20.762 16.525 21.025 16.4244 21.2247 16.2247L20.659 15.659C20.615 15.7031 20.558 15.725 20.5 15.725V16.525ZM21.2247 16.2247C21.6253 15.8241 21.6253 15.1759 21.2247 14.7753L20.659 15.341C20.7472 15.4291 20.7472 15.5709 20.659 15.659L21.2247 16.2247Z" fill="#05141F"/>
<path fill-rule="evenodd" clip-rule="evenodd" d="M7.06189 12L0.948 12C0.426 12 0 12.427 0 12.949V13.051C0 13.573 0.426 14 0.948 14H7.58152C7.32622 13.3693 7.14901 12.6986 7.06189 12Z" fill="#05141F"/>
</svg>
