<svg width="24" height="24" viewBox="0 0 24 24" fill="none" xmlns="http://www.w3.org/2000/svg">
<path fill-rule="evenodd" clip-rule="evenodd" d="M7.35304 4.02595C5.72287 4.18949 4.42748 4.54143 3.20765 5.15231C1.41815 6.04846 0.303842 7.3244 0.0558728 8.76126C0.00182592 9.07462 -0.00764283 9.74999 0.00496655 12.3945C0.0203884 15.6168 0.0213728 15.6457 0.126982 15.992C0.547217 17.3695 1.61653 18.4721 3.33431 19.299C4.52995 19.8745 5.74865 20.2061 7.20567 20.3521C7.52006 20.3836 10.4782 20.4007 15.6011 20.4007H23.511L23.6703 20.2943C24.0061 20.07 23.9935 20.2027 23.9936 16.8915C23.9937 13.9246 23.9936 13.9211 23.8913 13.7392C23.826 13.6231 23.7187 13.523 23.5952 13.4632C23.4075 13.3724 23.3058 13.3695 20.2523 13.3695H17.103V11.1404C17.103 8.5836 17.0973 8.53214 16.7261 7.76146C15.7961 5.83101 13.2913 4.43456 10.0955 4.06495C9.54539 4.00129 7.84036 3.97706 7.35304 4.02595ZM10.0263 5.47274C12.8345 5.8185 15.0495 7.09528 15.5896 8.67928C15.7175 9.05442 15.7317 9.62371 15.6225 9.99768C15.3614 10.8916 14.4232 11.8077 13.1519 12.4099C11.9284 12.9895 10.5401 13.3011 8.94679 13.3537C6.19861 13.4444 3.64162 12.6332 2.26711 11.2345C1.11042 10.0574 1.11783 8.68448 2.28722 7.50473C3.36904 6.41329 5.24344 5.65359 7.39992 5.43257C7.88639 5.3827 9.495 5.40731 10.0263 5.47274ZM7.86867 7.35257C7.80422 7.36204 7.59328 7.39303 7.39992 7.42143C6.29742 7.58329 5.33775 8.12606 5.02387 8.76524C4.84401 9.13148 4.83698 9.62395 5.00667 9.97106C5.59322 11.171 8.07558 11.774 10.2049 11.2338C11.085 11.0106 11.8259 10.5292 12.0868 10.0111C12.2202 9.74606 12.2653 9.27562 12.1855 8.97942C12.0299 8.4014 11.2788 7.81978 10.3488 7.55714C9.69619 7.37278 8.43797 7.26904 7.86867 7.35257ZM9.77869 8.86612C10.1872 8.96718 10.6657 9.18318 10.7763 9.31654C10.835 9.38714 10.8266 9.40889 10.7032 9.50742C10.2385 9.87862 8.9752 10.1095 8.00929 9.99979C7.26112 9.91481 6.59072 9.69178 6.36665 9.45332L6.26348 9.34345L6.49186 9.19832C6.74705 9.03614 7.32478 8.84301 7.75148 8.77725C8.20908 8.7067 9.33347 8.75601 9.77869 8.86612ZM2.33742 13.1102C3.43312 13.8425 4.89159 14.3672 6.60304 14.6449C7.2217 14.7453 7.35098 14.7479 12.3804 14.7638L17.5249 14.78V16.8872V18.9945H16.7984H16.0718V17.7124C16.0718 16.4599 16.0694 16.4266 15.9663 16.2753C15.7957 16.0246 15.6327 15.9296 15.3734 15.9296C15.1932 15.9296 15.1057 15.9583 14.9698 16.062C14.6791 16.2837 14.6655 16.359 14.6655 17.7508V18.9945H13.9859H13.3062V18.2983C13.3062 17.6526 13.2985 17.5906 13.1998 17.4428C12.9899 17.1286 12.5635 17.0283 12.2745 17.225C11.9505 17.4454 11.925 17.5201 11.9083 18.2946L11.8932 18.9945H11.2169H10.5405V17.6992C10.5405 16.4659 10.5359 16.3964 10.4422 16.245C10.1762 15.8144 9.5145 15.8325 9.25312 16.2774C9.16458 16.4281 9.1567 16.5316 9.14325 17.7172L9.12876 18.9945H8.47959H7.83037L7.81439 18.2947C7.79667 17.5204 7.77084 17.4452 7.44726 17.225C7.15823 17.0283 6.73181 17.1286 6.52195 17.4428C6.42501 17.5879 6.41554 17.6561 6.41554 18.2087V18.8152L6.22284 18.7827C6.11681 18.7648 5.81625 18.6933 5.55487 18.6239L5.07961 18.4976L5.05617 17.4415L5.03273 16.3854L4.90462 16.2176C4.72898 15.9874 4.43254 15.8757 4.17881 15.9441C3.97659 15.9985 3.75825 16.1852 3.69126 16.3608C3.66853 16.4205 3.64992 16.7844 3.64992 17.1694C3.64992 17.5544 3.63253 17.8695 3.61129 17.8695C3.59001 17.8695 3.37383 17.7396 3.13083 17.5808C2.54667 17.199 1.94587 16.5929 1.71679 16.1542C1.41858 15.5831 1.39992 15.446 1.39992 13.8252V12.3787L1.66945 12.6113C1.81772 12.7392 2.11828 12.9637 2.33742 13.1102ZM15.6815 13.3535C15.6712 13.3638 15.3828 13.3664 15.0407 13.3592L14.4187 13.3461L14.7882 13.1041C14.9915 12.971 15.2737 12.7622 15.4155 12.6402L15.6734 12.4182L15.6869 12.8765C15.6943 13.1285 15.6919 13.3432 15.6815 13.3535ZM22.5874 16.8617V18.9476H20.7593H18.9312V16.8929C18.9312 15.7628 18.9452 14.8242 18.9624 14.807C18.9796 14.7898 19.8022 14.7757 20.7906 14.7757H22.5874V16.8617ZM20.525 16.1878C20.099 16.3576 19.921 16.8989 20.1705 17.266C20.5366 17.8049 21.3773 17.6216 21.4858 16.9792C21.5715 16.4716 20.9979 15.9992 20.525 16.1878Z" fill="#E8A200"/>
</svg>
