<svg width="44" height="44" viewBox="0 0 44 44" fill="none" xmlns="http://www.w3.org/2000/svg">
<path d="M22.0001 42.9C33.5429 42.9 42.9001 33.5427 42.9001 22C42.9001 10.4572 33.5429 1.09998 22.0001 1.09998C10.4573 1.09998 1.1001 10.4572 1.1001 22C1.1001 33.5427 10.4573 42.9 22.0001 42.9Z" stroke="#F2F2F2" stroke-width="1.5"/>
<path fill-rule="evenodd" clip-rule="evenodd" d="M23.9829 26.5234C24.9803 26.3034 25.9424 25.9221 26.8283 25.3853C26.9864 25.2923 27.1241 25.1682 27.233 25.0205C27.3419 24.8728 27.4198 24.7046 27.4618 24.526C27.5039 24.3474 27.5094 24.1621 27.4779 23.9813C27.4464 23.8005 27.3785 23.628 27.2785 23.4742C27.068 23.1606 26.7447 22.9404 26.3759 22.8592C26.0071 22.7781 25.6212 22.8423 25.2985 23.0386C24.3019 23.6366 23.1615 23.9525 21.9993 23.9525C20.837 23.9525 19.6966 23.6366 18.7 23.0386C18.3774 22.842 17.9914 22.7775 17.6225 22.8587C17.2536 22.9398 16.9302 23.1604 16.72 23.4742C16.62 23.628 16.5522 23.8005 16.5207 23.9813C16.4892 24.1621 16.4946 24.3474 16.5367 24.526C16.5788 24.7046 16.6566 24.8728 16.7655 25.0205C16.8744 25.1682 17.0121 25.2923 17.1703 25.3853C18.0561 25.9221 19.0183 26.3034 20.0156 26.5234L17.2759 29.1678C17.1429 29.2941 17.037 29.4462 16.9646 29.6148C16.8922 29.7833 16.8549 29.9648 16.8549 30.1483C16.8549 30.3317 16.8922 30.5132 16.9646 30.6818C17.037 30.8503 17.1429 31.0024 17.2759 31.1287C17.5493 31.3904 17.9138 31.5355 18.2923 31.5335C18.6589 31.5335 19.0271 31.3986 19.3087 31.1287L22 28.5298L24.6928 31.1287C24.9664 31.3895 25.3298 31.5349 25.7077 31.5349C26.0857 31.5349 26.4491 31.3895 26.7227 31.1287C26.8558 31.0025 26.9619 30.8505 27.0344 30.6819C27.1069 30.5133 27.1443 30.3318 27.1443 30.1483C27.1443 29.9648 27.1069 29.7832 27.0344 29.6146C26.9619 29.4461 26.8558 29.294 26.7227 29.1678L23.9829 26.5234ZM26.8884 17.9317C26.8884 20.5394 24.6913 22.6617 21.9883 22.6617C19.2852 22.6617 17.0867 20.5394 17.0867 17.9317C17.0867 15.321 19.2867 13.2002 21.9883 13.2002C24.6899 13.2002 26.8884 15.3225 26.8884 17.9317ZM24.0137 17.9317C24.0137 16.8507 23.1044 15.9737 21.9839 15.9737C20.8663 15.9737 19.9555 16.8507 19.9555 17.9317C19.9555 19.0111 20.8648 19.8897 21.9839 19.8897C23.1029 19.8897 24.0137 19.0097 24.0137 17.9317Z" fill="#F2F2F2"/>
</svg>
