<svg width="40" height="40" viewBox="0 0 40 40" fill="none" xmlns="http://www.w3.org/2000/svg">
<path fill-rule="evenodd" clip-rule="evenodd" d="M0.665146 0.189541C-0.221715 0.787172 -0.221715 1.88008 0.665146 2.47771C0.940872 2.66358 0.9913 2.66725 3.26463 2.66725H5.58297L5.66466 2.97982C5.85578 3.71148 10.2571 22.4923 10.2571 22.5761C10.2571 22.6269 10.1539 22.6905 10.0279 22.7174C8.57763 23.0267 7.41821 23.9631 6.91009 25.2353C6.74956 25.6372 6.71889 25.8677 6.71889 26.6725C6.71889 27.4808 6.74923 27.7071 6.91259 28.1165C7.35061 29.2141 8.36758 30.1616 9.47482 30.5036C10.017 30.671 10.188 30.6734 21.881 30.6734H33.7375L34.0188 30.4838C34.9056 29.8862 34.9056 28.7933 34.0188 28.1957L33.7375 28.0061H22.0938H10.45L10.087 27.8142C9.69237 27.6055 9.34021 27.0693 9.34021 26.6771C9.34021 26.2605 9.6852 25.7291 10.0872 25.5264L10.4591 25.3389H22.1436C33.6105 25.3389 33.8381 25.3358 34.3703 25.1714C35.4266 24.8451 36.3611 24.0278 36.8234 23.0257C36.9405 22.7717 37.6552 19.9194 38.5256 16.2325C39.9964 10.0021 40.0252 9.86241 39.9907 9.127C39.9476 8.20796 39.7324 7.60625 39.1926 6.89551C38.719 6.27187 37.9513 5.73275 37.2117 5.50429C36.668 5.33633 36.5105 5.3345 22.836 5.3345H9.00997L8.96379 5.14696C8.93837 5.04385 8.69832 4.0273 8.43043 2.88813C7.9234 0.73216 7.84105 0.528115 7.34061 0.187541C7.06721 0.00150032 7.04112 0 4.00571 0C0.961544 0 0.944957 0.00091688 0.665146 0.189541ZM36.6644 8.21013C37.0614 8.44935 37.2962 8.86961 37.2897 9.32946C37.2827 9.82765 34.4679 21.713 34.2787 22.0432C34.1988 22.1825 33.967 22.3809 33.7635 22.4841L33.3935 22.6716H23.2478C13.6577 22.6716 13.0999 22.6636 13.0584 22.5258C12.9645 22.214 9.67362 8.18196 9.67362 8.09352C9.67362 8.02434 13.1785 8.0055 23.0307 8.02159C36.2202 8.04318 36.3913 8.04551 36.6644 8.21013ZM13.5999 32.1337C12.2033 32.5254 11.043 33.757 10.7522 35.1561C10.6179 35.8023 10.6962 36.8511 10.9235 37.4519C11.3386 38.5486 12.3705 39.5023 13.5202 39.8515C14.2666 40.0783 15.3799 40.0417 16.1016 39.7666C17.1268 39.376 18.0418 38.4632 18.4302 37.4436C18.7086 36.7127 18.7463 35.6039 18.5184 34.8534C18.1695 33.7047 17.2185 32.675 16.1187 32.255C15.484 32.0126 14.2444 31.9529 13.5999 32.1337ZM28.2698 32.1337C26.8732 32.5254 25.7129 33.757 25.4221 35.1561C25.2878 35.8023 25.366 36.8511 25.5933 37.4519C26.0084 38.5486 27.0404 39.5023 28.1901 39.8515C28.9365 40.0783 30.0498 40.0417 30.7715 39.7666C31.7967 39.376 32.7117 38.4632 33.1001 37.4436C33.3785 36.7127 33.4162 35.6039 33.1883 34.8534C32.8394 33.7047 31.8884 32.675 30.7886 32.255C30.1538 32.0126 28.9142 31.9529 28.2698 32.1337ZM15.2287 34.8469C16.4675 35.4466 16.0494 37.2902 14.6747 37.2902C13.9265 37.2902 13.3923 36.756 13.3923 36.0079C13.3923 35.4843 13.6291 35.0953 14.09 34.8618C14.5483 34.6295 14.7736 34.6266 15.2287 34.8469ZM29.8986 34.8469C31.1374 35.4466 30.7193 37.2902 29.3446 37.2902C28.3387 37.2902 27.7221 36.2121 28.2261 35.3346C28.4034 35.0257 28.9942 34.6742 29.3359 34.6742C29.4493 34.6742 29.7025 34.7519 29.8986 34.8469Z" fill="white"/>
</svg>
