<svg width="24" height="24" viewBox="0 0 24 24" fill="none" xmlns="http://www.w3.org/2000/svg">
<path d="M8.02151 6.28988C7.83842 6.26313 7.65169 6.29989 7.49239 6.39403H7.47881C7.10898 6.6108 6.77583 6.8848 6.49173 7.2058C6.25564 7.47877 6.12756 7.75498 6.09393 8.02083C6.07387 8.1793 6.08745 8.33778 6.13468 8.48913L6.15149 8.49948C6.41735 9.28086 6.7647 10.0325 7.18903 10.7401C7.73562 11.7343 8.40829 12.6537 9.19035 13.4756L9.21363 13.5092L9.2505 13.5364L9.27379 13.5636L9.30095 13.5869C10.1259 14.3712 11.0475 15.0471 12.0436 15.5979C13.182 16.2175 13.8729 16.5106 14.2874 16.6322V16.6386C14.409 16.6756 14.5196 16.6923 14.6309 16.6923C14.9843 16.6664 15.3188 16.523 15.5811 16.2849C15.9006 16.0007 16.1716 15.6662 16.3832 15.2946V15.2881C16.5817 14.9142 16.5145 14.5604 16.228 14.321C15.654 13.8194 15.0336 13.3739 14.3747 12.9905C13.9336 12.7512 13.4854 12.8961 13.3036 13.1386L12.9162 13.6269C12.7176 13.8695 12.3566 13.8359 12.3566 13.8359L12.3463 13.8424C9.65477 13.1548 8.93679 10.4297 8.93679 10.4297C8.93679 10.4297 8.90315 10.059 9.15218 9.87014L9.63731 9.47944C9.86953 9.29057 10.0312 8.84296 9.7822 8.40116C9.40148 7.74149 8.95691 7.12078 8.45489 6.54798C8.34514 6.41293 8.19117 6.32106 8.02021 6.28859L8.02151 6.28988Z" fill="#697279"/>
<path d="M12.5695 5.10522C12.2973 5.10522 12.0767 5.32587 12.0767 5.59805C12.0767 5.87023 12.2973 6.09088 12.5695 6.09088C13.8159 6.09088 14.8515 6.49828 15.6697 7.27836C16.0909 7.70554 16.4187 8.21118 16.634 8.76452C16.85 9.31994 16.9483 9.9122 16.923 10.5055C16.9115 10.7773 17.1225 11.0072 17.3945 11.0187C17.6664 11.0303 17.8963 10.8192 17.9078 10.5473C17.9389 9.81747 17.8178 9.08931 17.5525 8.40718C17.2872 7.72509 16.8833 7.10352 16.3658 6.58024L16.3559 6.57077C15.3407 5.59987 14.0538 5.10522 12.5695 5.10522Z" fill="#697279"/>
<path d="M12.536 6.7262C12.2639 6.7262 12.0432 6.94685 12.0432 7.21903C12.0432 7.49121 12.2639 7.71186 12.536 7.71186H12.5521C13.4515 7.77523 14.1059 8.07501 14.5647 8.56709C15.0344 9.07388 15.2777 9.70335 15.2596 10.4822C15.2533 10.7543 15.4689 10.98 15.7409 10.9863C16.0131 10.9926 16.2388 10.7771 16.2451 10.505C16.2687 9.48238 15.9398 8.60057 15.2871 7.89649L15.2862 7.89556C14.6193 7.1799 13.7043 6.80129 12.6021 6.7273L12.5856 6.7262H12.536Z" fill="#697279"/>
<path d="M12.5175 8.37667C12.2457 8.36237 12.0138 8.57111 11.9995 8.84292C11.9852 9.11472 12.1939 9.34666 12.4657 9.36097C12.8784 9.38269 13.1414 9.50645 13.3068 9.67346C13.4729 9.84119 13.5971 10.1098 13.6198 10.5309C13.6345 10.8027 13.8666 11.0112 14.1385 10.9965C14.4102 10.9819 14.6187 10.7498 14.6041 10.4779C14.5722 9.88651 14.3871 9.36365 14.0072 8.9799C13.6264 8.59544 13.1065 8.40767 12.5175 8.37667Z" fill="#697279"/>
<path fill-rule="evenodd" clip-rule="evenodd" d="M7.13608 2.52582C10.2725 1.82473 13.5251 1.82473 16.6616 2.52582L16.9958 2.60052C18.8654 3.01843 20.3409 4.45238 20.8122 6.30925C21.6083 9.44644 21.6083 12.7328 20.8122 15.87C20.3409 17.7269 18.8653 19.1608 16.9958 19.5787L16.6616 19.6535C14.6914 20.0938 12.6755 20.2576 10.6712 20.1447L8.05607 22.4846C7.85526 22.6642 7.57259 22.7204 7.31834 22.6312C7.06409 22.542 6.87853 22.3215 6.83404 22.0557L6.40152 19.472C4.72354 18.9506 3.42257 17.5921 2.98553 15.87C2.18939 12.7328 2.18939 9.44644 2.98553 6.30925C3.45674 4.45238 4.93234 3.01843 6.80191 2.60052L7.13608 2.52582ZM16.3391 3.9687C13.415 3.31509 10.3827 3.31509 7.45861 3.9687L7.12444 4.0434C5.7989 4.33969 4.75269 5.35639 4.41859 6.67292C3.68302 9.57145 3.68302 12.6078 4.41859 15.5063C4.75269 16.8228 5.79889 17.8395 7.12444 18.1358L7.21272 18.1555C7.50634 18.2212 7.73088 18.4582 7.78056 18.7549L8.0706 20.4877L9.91612 18.8364C10.0651 18.7031 10.2618 18.6358 10.4613 18.65C12.4262 18.789 14.4063 18.6426 16.3391 18.2105L16.6732 18.1358C17.9988 17.8395 19.045 16.8228 19.3791 15.5063C20.1146 12.6078 20.1146 9.57145 19.3791 6.67292C19.045 5.35639 17.9988 4.3397 16.6732 4.0434L16.3391 3.9687Z" fill="#697279"/>
</svg>
