<svg width="44" height="44" viewBox="0 0 44 44" fill="none" xmlns="http://www.w3.org/2000/svg">
<path d="M22.0001 42.9C33.5429 42.9 42.9001 33.5427 42.9001 22C42.9001 10.4572 33.5429 1.09998 22.0001 1.09998C10.4573 1.09998 1.1001 10.4572 1.1001 22C1.1001 33.5427 10.4573 42.9 22.0001 42.9Z" stroke="#F2F2F2" stroke-width="1.5"/>
<path fill-rule="evenodd" clip-rule="evenodd" d="M29.9246 16.343C30.4526 16.8886 30.6242 18.1279 30.6242 18.1279C30.6242 18.1279 30.8002 19.5843 30.8002 21.0392V22.4032C30.8002 23.8596 30.6242 25.3146 30.6242 25.3146C30.6242 25.3146 30.4526 26.5539 29.9246 27.0995C29.3218 27.7448 28.653 27.8123 28.2746 27.8504L28.1617 27.8622C25.6977 28.044 22.0002 28.0499 22.0002 28.0499C22.0002 28.0499 17.4242 28.0059 16.0162 27.8695C15.9487 27.8548 15.8695 27.846 15.7771 27.8358C15.3313 27.78 14.6317 27.695 14.0758 27.0995C13.5478 26.5539 13.3762 25.3146 13.3762 25.3146C13.3762 25.3146 13.2002 23.8596 13.2002 22.4047V21.0407C13.2002 19.5843 13.3762 18.1279 13.3762 18.1279C13.3762 18.1279 13.5478 16.8886 14.0758 16.343C14.6801 15.6976 15.3489 15.6316 15.7273 15.595L15.8387 15.5818C18.3027 15.3999 21.9958 15.3999 21.9958 15.3999H22.0046C22.0046 15.3999 25.6977 15.3999 28.1617 15.5818L28.2731 15.5935C28.6515 15.6316 29.3203 15.6962 29.9246 16.343ZM20.1801 19.005V24.0576L24.9365 21.5394L20.1801 19.005Z" fill="#F2F2F2"/>
</svg>
