<svg width="24" height="24" viewBox="0 0 24 24" fill="none" xmlns="http://www.w3.org/2000/svg">
<g clip-path="url(#clip0_544_10356)">
<path d="M2 7L15.5 7L17 21L15.0945 15.5558C14.0871 12.6775 11.8214 10.4161 8.94114 9.41431L2 7Z" fill="#E8A200"/>
</g>
<path d="M15.3376 6.67713V2.90003C15.3376 2.40297 14.9347 2 14.4376 2H9.56354C9.06648 2 8.66351 2.40297 8.66351 2.90003V6.67702C7.31515 7.69224 6.44141 9.30593 6.44141 11.12C6.44141 14.1853 8.9352 16.6791 12.0004 16.6791C15.0657 16.6791 17.5595 14.1853 17.5595 11.12C17.5595 9.30605 16.6859 7.69248 15.3376 6.67713ZM10.4636 3.80005H13.5375V5.77879C13.0489 5.6379 12.5336 5.56098 12.0003 5.56098C11.4672 5.56098 10.952 5.63803 10.4634 5.77867V3.80005H10.4636ZM12.0004 14.879C9.92763 14.879 8.24146 13.1927 8.24146 11.12C8.24146 9.04732 9.92775 7.36103 12.0004 7.36103C14.0731 7.36103 15.7594 9.04732 15.7594 11.12C15.7594 13.1928 14.0733 14.879 12.0004 14.879Z" fill="#05141F"/>
<path d="M5.99166 11.1202C5.99166 10.6232 5.58869 10.2202 5.09163 10.2202H2.02014C1.52309 10.2202 1.12012 10.6232 1.12012 11.1202C1.12012 11.6173 1.52309 12.0203 2.02014 12.0203H5.09163C5.58869 12.0203 5.99166 11.6173 5.99166 11.1202Z" fill="#05141F"/>
<path d="M21.9801 10.2202H18.9086C18.4115 10.2202 18.0085 10.6232 18.0085 11.1202C18.0085 11.6173 18.4115 12.0203 18.9086 12.0203H21.9801C22.4771 12.0203 22.8801 11.6173 22.8801 11.1202C22.8801 10.6232 22.4771 10.2202 21.9801 10.2202Z" fill="#05141F"/>
<path d="M6.47841 6.87133C6.65409 7.04713 6.8845 7.13498 7.11478 7.13498C7.34507 7.13498 7.57548 7.04713 7.75116 6.87133C8.10265 6.51984 8.10265 5.94994 7.75116 5.59857L5.57934 3.42675C5.22785 3.07514 4.65796 3.07526 4.30659 3.42675C3.9551 3.77824 3.9551 4.34814 4.30659 4.69951L6.47841 6.87133Z" fill="#05141F"/>
<path d="M17.5218 15.3686C17.1702 15.0171 16.6004 15.0172 16.2489 15.3686C15.8974 15.72 15.8976 16.2899 16.2489 16.6414L18.421 18.8133C18.5968 18.9889 18.8271 19.0768 19.0574 19.0768C19.2876 19.0768 19.5181 18.9889 19.6939 18.8131C20.0454 18.4616 20.0452 17.8917 19.6939 17.5403L17.5218 15.3686Z" fill="#05141F"/>
<path d="M6.47853 15.3686L4.30659 17.5404C3.9551 17.8919 3.9551 18.4617 4.30659 18.8133C4.48227 18.9891 4.71268 19.0769 4.94296 19.0769C5.17325 19.0769 5.40366 18.9891 5.57934 18.8133L7.75128 16.6415C8.10277 16.29 8.10277 15.7202 7.75128 15.3687C7.39991 15.0171 6.83002 15.0171 6.47853 15.3686Z" fill="#05141F"/>
<path d="M16.8855 7.1349C17.1158 7.1349 17.3462 7.04706 17.5218 6.87137L19.6939 4.69955C20.0454 4.34806 20.0454 3.77816 19.6939 3.42667C19.3424 3.0753 18.7725 3.07518 18.421 3.42655L16.249 5.59838C15.8975 5.94987 15.8975 6.51976 16.249 6.87125C16.4248 7.04706 16.6552 7.1349 16.8855 7.1349Z" fill="#05141F"/>
<path d="M12.0006 17.1284C11.5036 17.1284 11.1006 17.5314 11.1006 18.0284V21.0999C11.1006 21.597 11.5036 22 12.0006 22C12.4977 22 12.9006 21.597 12.9006 21.0999V18.0284C12.9006 17.5314 12.4977 17.1284 12.0006 17.1284Z" fill="#05141F"/>
<defs>
<clipPath id="clip0_544_10356">
<rect width="8" height="8" fill="white" transform="translate(8 7)"/>
</clipPath>
</defs>
</svg>
