<svg width="24" height="24" viewBox="0 0 24 24" fill="none" xmlns="http://www.w3.org/2000/svg">
<rect x="9.11328" y="4.12891" width="4.42509" height="10.7877" transform="rotate(-45 9.11328 4.12891)" fill="#E8A200"/>
<rect x="4" y="15.1289" width="4.42509" height="10.7877" transform="rotate(-45 4 15.1289)" fill="#E8A200"/>
<path fill-rule="evenodd" clip-rule="evenodd" d="M9.83851 4.09938L12 1.93789L18.8571 8.79503L16.6957 10.9565L12 6.26087L9.83851 4.09938ZM15.7267 11.9255L12 8.19876L8.19876 12L11.9255 15.7267L15.7267 11.9255ZM12.8944 16.6957L17.6646 11.9255L19.8261 9.76398L22.0621 12L15.1304 18.9317L12.8944 16.6957ZM11.9255 17.6646L7.22982 12.9689L5.06833 15.1304L12 22.0621L14.1615 19.9006L11.9255 17.6646ZM7.22982 11.0311L11.0311 7.22982L8.86957 5.06833L1.93789 12L4.09938 14.1615L6.26087 12L7.22982 11.0311ZM3.13044 15.1304L5.3948e-06 12L7.90062 4.09938L12 7.47917e-07L20.795 8.79503L24 12L16.0994 19.9006L12 24L3.13044 15.1304Z" fill="#05141F"/>
</svg>
