<svg width="24" height="24" viewBox="0 0 24 24" fill="none" xmlns="http://www.w3.org/2000/svg">
<g clip-path="url(#clip0_544_10282)">
<path d="M8.64697 7.35498L19.0116 0.740431L23.4995 8.49976L19.5119 7.17056C18.1851 6.72828 16.7802 6.56925 15.3881 6.70374L8.64697 7.35498Z" fill="#E8A200"/>
<path d="M23.9248 8.04509L19.9657 0.363057C19.7956 0.0370673 19.394 -0.0952185 19.068 0.0748633C19.068 0.0748633 8.92448 4.67652 7.91344 8.33328L5.73544 9.45771C5.4378 9.61362 5.30551 9.95851 5.41417 10.2703L2.32907 13.6058C2.14009 13.8137 2.08812 14.1208 2.22513 14.3617C2.44246 14.7444 2.87239 14.7208 2.90074 14.7208L7.41264 14.1539C7.49768 14.272 7.7906 14.5554 8.25833 14.3617L10.4316 13.242C15.2364 14.1822 23.6319 8.94746 23.6319 8.94746C23.9673 8.77738 24.0949 8.37108 23.9248 8.04509ZM4.54959 13.1664L6.05671 11.5365L6.75593 12.8877L4.54959 13.1664ZM8.24415 12.8688L6.94019 10.3365L8.21108 9.67976L9.51505 12.2121L8.24415 12.8688ZM10.8993 11.99L9.19378 8.68289C9.64733 6.97263 13.4222 4.49227 16.1246 3.08437L19.479 9.59C13.6679 12.2215 11.1356 12.0751 10.8993 11.99ZM20.6649 8.97581L17.3152 2.47491L19.0869 1.56308L22.4366 8.06398L20.6649 8.97581Z" fill="#05141F"/>
<ellipse cx="2.5" cy="21" rx="1.5" ry="2" fill="#E8A200"/>
<path d="M3.06148 17.4091C2.93864 17.2249 2.73549 17.1162 2.51344 17.1162C2.29611 17.1162 2.08823 17.2249 1.96539 17.4044C1.50239 18.0753 0 20.3478 0 21.4864C0 22.8707 1.12916 23.9998 2.51344 23.9998C3.89771 23.9998 5.02687 22.8707 5.02687 21.4864C5.02687 20.3478 3.52448 18.0753 3.06148 17.4091ZM2.51344 22.6675C1.86145 22.6675 1.33231 22.1384 1.33231 21.4864C1.33231 21.0942 1.88035 20.0265 2.51344 19.006C3.14652 20.0312 3.69456 21.0942 3.69456 21.4864C3.69456 22.1384 3.16542 22.6675 2.51344 22.6675Z" fill="#05141F"/>
</g>
<defs>
<clipPath id="clip0_544_10282">
<rect width="24" height="24" fill="white"/>
</clipPath>
</defs>
</svg>
