<svg width="24" height="24" viewBox="0 0 24 24" fill="none" xmlns="http://www.w3.org/2000/svg">
<path d="M8 3H21V15L18.9116 10.6625C17.9259 8.61539 16.2725 6.96495 14.2237 5.98294L8 3Z" fill="#E8A200"/>
<path d="M21.1261 2C21.1261 2 5.97104 2 5.92614 2C3.67716 2 2.02002 2.93469 2.02002 4.24898V19.8776C2.02002 21.3224 4.05675 22 5.92614 22C7.73839 22 9.70982 21.3592 9.82818 20.0041C9.82818 20.0041 9.82818 19.9592 9.82818 19.8735H21.1302C21.5955 19.8735 21.9792 19.4898 21.9792 19.0245V2.84898C21.9751 2.38367 21.5914 2 21.1261 2ZM8.13022 19.7878C7.90165 19.9714 7.18737 20.302 5.92206 20.302C4.65675 20.302 3.94247 19.9714 3.7139 19.7878V6.14286C4.33022 6.37143 5.08533 6.50204 5.92206 6.50204C6.75879 6.50204 7.5139 6.37143 8.13022 6.14286V19.7878ZM5.92206 4.8449C4.68941 4.8449 3.88533 4.46122 3.7139 4.24898C3.88533 4.03673 4.64859 3.65306 5.92206 3.65306C7.15471 3.65306 7.95879 4.03673 8.13022 4.24898C7.96288 4.46122 7.15471 4.8449 5.92206 4.8449ZM20.318 18.1796H9.82818C9.83226 14.0286 9.83226 4.25306 9.83226 4.25306C9.83226 4.06122 9.79553 3.87755 9.73022 3.70204H20.3221V18.1796H20.318Z" fill="#05141F"/>
<path d="M15.3057 7.64913H16.4077V10.0695C16.4077 10.5348 16.7914 10.9185 17.2567 10.9185C17.722 10.9185 18.1057 10.5348 18.1057 10.0695V6.80015C18.1057 6.33485 17.722 5.95117 17.2567 5.95117H15.3016C14.8363 5.95117 14.4526 6.33485 14.4526 6.80015C14.4567 7.26546 14.8404 7.64913 15.3057 7.64913Z" fill="#05141F"/>
</svg>
