<svg width="24" height="24" viewBox="0 0 24 24" fill="none" xmlns="http://www.w3.org/2000/svg">
<path d="M16 9L16 23L7 23L11.0858 18.9142C12.0194 17.9806 12.7588 16.8715 13.2615 15.6506L16 9Z" fill="#E8A200"/>
<path d="M21 3.51562C21 1.57711 19.4472 0 17.5385 0H6.46154C4.55285 0 3 1.57711 3 3.51562C3 5.21339 4.19114 6.63384 5.76923 6.96052V7.73438C5.76923 8.65102 6.34805 9.43256 7.15385 9.72281V22.5938H6.46154C6.0792 22.5938 5.76923 22.9086 5.76923 23.2969C5.76923 23.6852 6.0792 24 6.46154 24H17.5385C17.9208 24 18.2308 23.6852 18.2308 23.2969C18.2308 22.9086 17.9208 22.5938 17.5385 22.5938H16.8462V9.72281C17.652 9.43256 18.2308 8.65102 18.2308 7.73438V6.96052C19.8089 6.63384 21 5.21339 21 3.51562ZM8.53846 22.5938V9.84375H15.4615V22.5938H8.53846ZM16.8462 7.73438C16.8462 8.12208 16.5356 8.4375 16.1538 8.4375H7.84615C7.46442 8.4375 7.15385 8.12208 7.15385 7.73438V7.03125H16.8462V7.73438ZM17.5385 5.625C17.1567 5.625 16.8462 5.30958 16.8462 4.92188C16.8462 4.53417 17.1567 4.21875 17.5385 4.21875C17.9208 4.21875 18.2308 3.90394 18.2308 3.51562C18.2308 3.12731 17.9208 2.8125 17.5385 2.8125C16.3932 2.8125 15.4615 3.75877 15.4615 4.92188C15.4615 5.16834 15.5038 5.40492 15.5806 5.625H8.41938C8.49623 5.40492 8.53846 5.16834 8.53846 4.92188C8.53846 3.75877 7.60675 2.8125 6.46154 2.8125C6.0792 2.8125 5.76923 3.12731 5.76923 3.51562C5.76923 3.90394 6.0792 4.21875 6.46154 4.21875C6.84328 4.21875 7.15385 4.53417 7.15385 4.92188C7.15385 5.30958 6.84328 5.625 6.46154 5.625C5.31632 5.625 4.38462 4.67873 4.38462 3.51562C4.38462 2.35252 5.31632 1.40625 6.46154 1.40625H17.5385C18.6837 1.40625 19.6154 2.35252 19.6154 3.51562C19.6154 4.67873 18.6837 5.625 17.5385 5.625Z" fill="#05141F"/>
<path d="M10.8281 11.375C10.5045 11.375 10.2422 11.6373 10.2422 11.9609V19.0703C10.2422 19.3939 10.5045 19.6562 10.8281 19.6562C11.1517 19.6562 11.4141 19.3939 11.4141 19.0703V11.9609C11.4141 11.6373 11.1517 11.375 10.8281 11.375Z" fill="#05141F"/>
<path d="M13.1719 11.375C12.8483 11.375 12.5859 11.6373 12.5859 11.9609V19.0703C12.5859 19.3939 12.8483 19.6562 13.1719 19.6562C13.4955 19.6562 13.7578 19.3939 13.7578 19.0703V11.9609C13.7578 11.6373 13.4955 11.375 13.1719 11.375Z" fill="#05141F"/>
</svg>
